<svg width="231" height="79" viewBox="0 0 231 79" fill="none" xmlns="http://www.w3.org/2000/svg">
<rect x="0.919922" width="229.473" height="78.2115" rx="11.3077" fill="#68A4F9"/>
<path d="M69.3777 49.1556C68.7037 51.2925 67.6409 53.4294 66.1893 55.5662C63.96 58.9169 61.7394 60.5922 59.5274 60.5922C58.6806 60.5922 57.4709 60.3187 55.8983 59.7716C54.4122 59.2246 53.1074 58.9511 51.9841 58.9511C50.93 58.9511 49.703 59.2331 48.3032 59.7973C46.9035 60.3785 45.7629 60.6691 44.8815 60.6691C42.2548 60.6691 39.654 58.4553 37.0791 54.0277C34.5387 49.5659 33.2686 45.2665 33.2686 41.1295C33.2686 37.2319 34.2449 34.0351 36.1977 31.5392C38.1505 29.0776 40.6044 27.8467 43.5595 27.8467C44.8038 27.8467 46.3332 28.1031 48.1477 28.616C49.945 29.1288 51.1374 29.3853 51.7249 29.3853C52.5026 29.3853 53.7382 29.0946 55.4317 28.5134C57.1944 27.9322 58.6893 27.6416 59.9162 27.6416C61.9727 27.6416 63.8131 28.1972 65.4376 29.3083C66.3362 29.9238 67.2348 30.7785 68.1335 31.8726C66.7682 33.018 65.7832 34.0266 65.1784 34.8984C64.0551 36.5053 63.4934 38.2747 63.4934 40.2064C63.4934 42.3262 64.0896 44.2323 65.2821 45.9247C66.4745 47.6171 67.8397 48.6941 69.3777 49.1556ZM59.6311 19.077C59.6311 20.1198 59.3805 21.2822 58.8794 22.5644C58.3609 23.8465 57.5573 25.026 56.4686 26.103C55.5354 27.0262 54.6022 27.6416 53.6691 27.9493C53.0297 28.1373 52.131 28.2826 50.9732 28.3852C51.025 25.8381 51.699 23.6413 52.9951 21.7951C54.2739 19.9659 56.4341 18.7009 59.4756 18C59.4928 18.0513 59.5144 18.1453 59.5404 18.2821C59.5663 18.4188 59.5879 18.5128 59.6052 18.5641C59.6052 18.6325 59.6095 18.718 59.6181 18.8206C59.6268 18.9231 59.6311 19.0086 59.6311 19.077Z" fill="white"/>
<path d="M90.4468 33H87.7536V24.2727H90.5661C91.4127 24.2727 92.1371 24.4474 92.7394 24.7969C93.3417 25.1435 93.8033 25.642 94.1243 26.2926C94.4454 26.9403 94.6059 27.7159 94.6059 28.6193C94.6059 29.5284 94.4439 30.3111 94.1201 30.9673C93.7962 31.6207 93.3246 32.1236 92.7053 32.4759C92.086 32.8253 91.3331 33 90.4468 33ZM88.8104 32.0625H90.3786C91.1002 32.0625 91.6982 31.9233 92.1726 31.6449C92.6471 31.3665 93.0008 30.9702 93.2337 30.456C93.4667 29.9418 93.5831 29.3295 93.5831 28.6193C93.5831 27.9148 93.4681 27.3082 93.238 26.7997C93.0079 26.2884 92.6641 25.8963 92.2067 25.6236C91.7493 25.348 91.1797 25.2102 90.4979 25.2102H88.8104V32.0625ZM98.9013 33.1364C98.3104 33.1364 97.7919 32.9957 97.3459 32.7145C96.9027 32.4332 96.5562 32.0398 96.3062 31.5341C96.059 31.0284 95.9354 30.4375 95.9354 29.7614C95.9354 29.0795 96.059 28.4844 96.3062 27.9759C96.5562 27.4673 96.9027 27.0724 97.3459 26.7912C97.7919 26.5099 98.3104 26.3693 98.9013 26.3693C99.4922 26.3693 100.009 26.5099 100.452 26.7912C100.898 27.0724 101.245 27.4673 101.492 27.9759C101.742 28.4844 101.867 29.0795 101.867 29.7614C101.867 30.4375 101.742 31.0284 101.492 31.5341C101.245 32.0398 100.898 32.4332 100.452 32.7145C100.009 32.9957 99.4922 33.1364 98.9013 33.1364ZM98.9013 32.233C99.3502 32.233 99.7195 32.1179 100.009 31.8878C100.299 31.6577 100.514 31.3551 100.653 30.9801C100.792 30.6051 100.862 30.1989 100.862 29.7614C100.862 29.3239 100.792 28.9162 100.653 28.5384C100.514 28.1605 100.299 27.8551 100.009 27.6222C99.7195 27.3892 99.3502 27.2727 98.9013 27.2727C98.4525 27.2727 98.0831 27.3892 97.7934 27.6222C97.5036 27.8551 97.2891 28.1605 97.1499 28.5384C97.0107 28.9162 96.9411 29.3239 96.9411 29.7614C96.9411 30.1989 97.0107 30.6051 97.1499 30.9801C97.2891 31.3551 97.5036 31.6577 97.7934 31.8878C98.0831 32.1179 98.4525 32.233 98.9013 32.233ZM104.663 33L102.668 26.4545H103.725L105.14 31.4659H105.208L106.606 26.4545H107.68L109.06 31.4489H109.129L110.543 26.4545H111.6L109.606 33H108.617L107.185 27.9716H107.083L105.651 33H104.663ZM113.935 29.0625V33H112.93V26.4545H113.901V27.4773H113.987C114.14 27.1449 114.373 26.8778 114.685 26.6761C114.998 26.4716 115.401 26.3693 115.896 26.3693C116.339 26.3693 116.727 26.4602 117.059 26.642C117.391 26.821 117.65 27.0938 117.835 27.4602C118.019 27.8239 118.112 28.2841 118.112 28.8409V33H117.106V28.9091C117.106 28.3949 116.972 27.9943 116.705 27.7074C116.438 27.4176 116.072 27.2727 115.606 27.2727C115.285 27.2727 114.998 27.3423 114.745 27.4815C114.495 27.6207 114.298 27.8239 114.153 28.0909C114.008 28.358 113.935 28.6818 113.935 29.0625ZM120.955 24.2727V33H119.949V24.2727H120.955ZM125.456 33.1364C124.865 33.1364 124.347 32.9957 123.901 32.7145C123.457 32.4332 123.111 32.0398 122.861 31.5341C122.614 31.0284 122.49 30.4375 122.49 29.7614C122.49 29.0795 122.614 28.4844 122.861 27.9759C123.111 27.4673 123.457 27.0724 123.901 26.7912C124.347 26.5099 124.865 26.3693 125.456 26.3693C126.047 26.3693 126.564 26.5099 127.007 26.7912C127.453 27.0724 127.8 27.4673 128.047 27.9759C128.297 28.4844 128.422 29.0795 128.422 29.7614C128.422 30.4375 128.297 31.0284 128.047 31.5341C127.8 32.0398 127.453 32.4332 127.007 32.7145C126.564 32.9957 126.047 33.1364 125.456 33.1364ZM125.456 32.233C125.905 32.233 126.274 32.1179 126.564 31.8878C126.854 31.6577 127.068 31.3551 127.207 30.9801C127.347 30.6051 127.416 30.1989 127.416 29.7614C127.416 29.3239 127.347 28.9162 127.207 28.5384C127.068 28.1605 126.854 27.8551 126.564 27.6222C126.274 27.3892 125.905 27.2727 125.456 27.2727C125.007 27.2727 124.638 27.3892 124.348 27.6222C124.058 27.8551 123.844 28.1605 123.705 28.5384C123.565 28.9162 123.496 29.3239 123.496 29.7614C123.496 30.1989 123.565 30.6051 123.705 30.9801C123.844 31.3551 124.058 31.6577 124.348 31.8878C124.638 32.1179 125.007 32.233 125.456 32.233ZM131.883 33.1534C131.468 33.1534 131.092 33.0753 130.754 32.919C130.416 32.7599 130.147 32.5312 129.949 32.233C129.75 31.9318 129.65 31.5682 129.65 31.142C129.65 30.767 129.724 30.4631 129.872 30.2301C130.02 29.9943 130.217 29.8097 130.464 29.6761C130.711 29.5426 130.984 29.4432 131.282 29.3778C131.583 29.3097 131.886 29.2557 132.19 29.2159C132.588 29.1648 132.91 29.1264 133.157 29.1009C133.407 29.0724 133.589 29.0256 133.703 28.9602C133.819 28.8949 133.878 28.7812 133.878 28.6193V28.5852C133.878 28.1648 133.762 27.8381 133.532 27.6051C133.305 27.3722 132.96 27.2557 132.497 27.2557C132.017 27.2557 131.64 27.3608 131.368 27.571C131.095 27.7812 130.903 28.0057 130.792 28.2443L129.838 27.9034C130.008 27.5057 130.235 27.196 130.52 26.9744C130.807 26.75 131.119 26.5937 131.457 26.5057C131.798 26.4148 132.133 26.3693 132.463 26.3693C132.673 26.3693 132.914 26.3949 133.187 26.446C133.463 26.4943 133.728 26.5952 133.984 26.7486C134.243 26.902 134.457 27.1335 134.628 27.4432C134.798 27.7528 134.883 28.1676 134.883 28.6875V33H133.878V32.1136H133.826C133.758 32.2557 133.645 32.4077 133.485 32.5696C133.326 32.7315 133.115 32.8693 132.851 32.983C132.586 33.0966 132.264 33.1534 131.883 33.1534ZM132.037 32.25C132.434 32.25 132.77 32.1719 133.042 32.0156C133.318 31.8594 133.525 31.6577 133.664 31.4105C133.807 31.1634 133.878 30.9034 133.878 30.6307V29.7102C133.835 29.7614 133.741 29.8082 133.596 29.8509C133.454 29.8906 133.289 29.9261 133.102 29.9574C132.917 29.9858 132.737 30.0114 132.561 30.0341C132.387 30.054 132.247 30.071 132.139 30.0852C131.878 30.1193 131.633 30.1747 131.406 30.2514C131.182 30.3253 131 30.4375 130.86 30.5881C130.724 30.7358 130.656 30.9375 130.656 31.1932C130.656 31.5426 130.785 31.8068 131.044 31.9858C131.305 32.1619 131.636 32.25 132.037 32.25ZM139.19 33.1364C138.645 33.1364 138.163 32.9986 137.746 32.723C137.328 32.4446 137.001 32.0526 136.766 31.5469C136.53 31.0384 136.412 30.4375 136.412 29.7443C136.412 29.0568 136.53 28.4602 136.766 27.9545C137.001 27.4489 137.33 27.0582 137.75 26.7827C138.17 26.5071 138.656 26.3693 139.207 26.3693C139.634 26.3693 139.97 26.4403 140.217 26.5824C140.467 26.7216 140.658 26.8807 140.788 27.0597C140.922 27.2358 141.026 27.3807 141.099 27.4943H141.185V24.2727H142.19V33H141.219V31.9943H141.099C141.026 32.1136 140.92 32.2642 140.784 32.446C140.648 32.625 140.453 32.7855 140.2 32.9276C139.947 33.0668 139.611 33.1364 139.19 33.1364ZM139.327 32.233C139.73 32.233 140.071 32.1278 140.349 31.9176C140.628 31.7045 140.84 31.4105 140.984 31.0355C141.129 30.6577 141.202 30.2216 141.202 29.7273C141.202 29.2386 141.131 28.8111 140.989 28.4446C140.847 28.0753 140.636 27.7884 140.358 27.5838C140.08 27.3764 139.736 27.2727 139.327 27.2727C138.901 27.2727 138.545 27.3821 138.261 27.6009C137.98 27.8168 137.769 28.1108 137.626 28.483C137.487 28.8523 137.418 29.267 137.418 29.7273C137.418 30.1932 137.489 30.6165 137.631 30.9972C137.776 31.375 137.989 31.6761 138.27 31.9006C138.554 32.1222 138.906 32.233 139.327 32.233ZM150.206 33.1364C149.615 33.1364 149.097 32.9957 148.651 32.7145C148.207 32.4332 147.861 32.0398 147.611 31.5341C147.364 31.0284 147.24 30.4375 147.24 29.7614C147.24 29.0795 147.364 28.4844 147.611 27.9759C147.861 27.4673 148.207 27.0724 148.651 26.7912C149.097 26.5099 149.615 26.3693 150.206 26.3693C150.797 26.3693 151.314 26.5099 151.757 26.7912C152.203 27.0724 152.55 27.4673 152.797 27.9759C153.047 28.4844 153.172 29.0795 153.172 29.7614C153.172 30.4375 153.047 31.0284 152.797 31.5341C152.55 32.0398 152.203 32.4332 151.757 32.7145C151.314 32.9957 150.797 33.1364 150.206 33.1364ZM150.206 32.233C150.655 32.233 151.024 32.1179 151.314 31.8878C151.604 31.6577 151.818 31.3551 151.957 30.9801C152.097 30.6051 152.166 30.1989 152.166 29.7614C152.166 29.3239 152.097 28.9162 151.957 28.5384C151.818 28.1605 151.604 27.8551 151.314 27.6222C151.024 27.3892 150.655 27.2727 150.206 27.2727C149.757 27.2727 149.388 27.3892 149.098 27.6222C148.808 27.8551 148.594 28.1605 148.455 28.5384C148.315 28.9162 148.246 29.3239 148.246 29.7614C148.246 30.1989 148.315 30.6051 148.455 30.9801C148.594 31.3551 148.808 31.6577 149.098 31.8878C149.388 32.1179 149.757 32.233 150.206 32.233ZM155.713 29.0625V33H154.707V26.4545H155.679V27.4773H155.764C155.917 27.1449 156.15 26.8778 156.463 26.6761C156.775 26.4716 157.179 26.3693 157.673 26.3693C158.116 26.3693 158.504 26.4602 158.836 26.642C159.169 26.821 159.427 27.0938 159.612 27.4602C159.797 27.8239 159.889 28.2841 159.889 28.8409V33H158.883V28.9091C158.883 28.3949 158.75 27.9943 158.483 27.7074C158.216 27.4176 157.849 27.2727 157.383 27.2727C157.062 27.2727 156.775 27.3423 156.522 27.4815C156.272 27.6207 156.075 27.8239 155.93 28.0909C155.785 28.358 155.713 28.6818 155.713 29.0625ZM167.948 26.4545V27.3068H164.556V26.4545H167.948ZM165.545 24.8864H166.55V31.125C166.55 31.4091 166.592 31.6222 166.674 31.7642C166.759 31.9034 166.867 31.9972 166.998 32.0455C167.131 32.0909 167.272 32.1136 167.42 32.1136C167.531 32.1136 167.621 32.108 167.693 32.0966C167.764 32.0824 167.82 32.071 167.863 32.0625L168.068 32.9659C167.999 32.9915 167.904 33.017 167.782 33.0426C167.66 33.071 167.505 33.0852 167.318 33.0852C167.033 33.0852 166.755 33.0241 166.482 32.902C166.212 32.7798 165.988 32.5938 165.809 32.3438C165.633 32.0938 165.545 31.7784 165.545 31.3977V24.8864ZM170.607 29.0625V33H169.602V24.2727H170.607V27.4773H170.693C170.846 27.1392 171.076 26.8707 171.383 26.6719C171.693 26.4702 172.104 26.3693 172.619 26.3693C173.065 26.3693 173.455 26.4588 173.791 26.6378C174.126 26.8139 174.386 27.0852 174.57 27.4517C174.758 27.8153 174.852 28.2784 174.852 28.8409V33H173.846V28.9091C173.846 28.3892 173.711 27.9872 173.441 27.7031C173.174 27.4162 172.803 27.2727 172.329 27.2727C171.999 27.2727 171.704 27.3423 171.443 27.4815C171.184 27.6207 170.979 27.8239 170.829 28.0909C170.681 28.358 170.607 28.6818 170.607 29.0625ZM179.436 33.1364C178.805 33.1364 178.261 32.9972 177.804 32.7188C177.349 32.4375 176.998 32.0455 176.751 31.5426C176.507 31.0369 176.385 30.4489 176.385 29.7784C176.385 29.108 176.507 28.517 176.751 28.0057C176.998 27.4915 177.342 27.0909 177.782 26.804C178.226 26.5142 178.743 26.3693 179.333 26.3693C179.674 26.3693 180.011 26.4261 180.343 26.5398C180.676 26.6534 180.978 26.8381 181.251 27.0938C181.524 27.3466 181.741 27.6818 181.903 28.0994C182.065 28.517 182.146 29.0312 182.146 29.642V30.0682H177.101V29.1989H181.123C181.123 28.8295 181.049 28.5 180.902 28.2102C180.757 27.9205 180.549 27.6918 180.28 27.5241C180.012 27.3565 179.697 27.2727 179.333 27.2727C178.933 27.2727 178.586 27.3722 178.294 27.571C178.004 27.767 177.781 28.0227 177.625 28.3381C177.468 28.6534 177.39 28.9915 177.39 29.3523V29.9318C177.39 30.4261 177.476 30.8452 177.646 31.1889C177.819 31.5298 178.059 31.7898 178.366 31.9688C178.673 32.1449 179.03 32.233 179.436 32.233C179.7 32.233 179.939 32.196 180.152 32.1222C180.368 32.0455 180.554 31.9318 180.71 31.7812C180.866 31.6278 180.987 31.4375 181.072 31.2102L182.044 31.483C181.941 31.8125 181.77 32.1023 181.528 32.3523C181.287 32.5994 180.988 32.7926 180.633 32.9318C180.278 33.0682 179.879 33.1364 179.436 33.1364Z" fill="white"/>
<path d="M89.0547 56H87.2081L92.5491 41.4545H94.3672L99.7081 56H97.8615L93.515 43.7557H93.4013L89.0547 56ZM89.7366 50.3182H97.1797V51.8807H89.7366V50.3182ZM101.746 60.0909V45.0909H103.366V46.8239H103.565C103.688 46.6345 103.858 46.393 104.076 46.0994C104.299 45.8011 104.616 45.536 105.028 45.304C105.444 45.0672 106.008 44.9489 106.718 44.9489C107.637 44.9489 108.446 45.1785 109.147 45.6378C109.848 46.0971 110.395 46.7481 110.788 47.5909C111.181 48.4337 111.377 49.428 111.377 50.5739C111.377 51.7292 111.181 52.7306 110.788 53.5781C110.395 54.4209 109.85 55.0743 109.154 55.5384C108.458 55.9976 107.656 56.2273 106.746 56.2273C106.046 56.2273 105.485 56.1113 105.063 55.8793C104.642 55.6425 104.318 55.375 104.09 55.0767C103.863 54.7737 103.688 54.5227 103.565 54.3239H103.423V60.0909H101.746ZM103.394 50.5455C103.394 51.3693 103.515 52.0961 103.756 52.7259C103.998 53.3509 104.351 53.8409 104.815 54.196C105.279 54.5464 105.847 54.7216 106.519 54.7216C107.22 54.7216 107.805 54.5369 108.273 54.1676C108.747 53.7936 109.102 53.2917 109.339 52.6619C109.58 52.0275 109.701 51.322 109.701 50.5455C109.701 49.7784 109.583 49.0871 109.346 48.4716C109.114 47.8513 108.761 47.3613 108.288 47.0014C107.819 46.6368 107.229 46.4545 106.519 46.4545C105.837 46.4545 105.264 46.6274 104.8 46.973C104.336 47.3139 103.986 47.7921 103.749 48.4077C103.513 49.0185 103.394 49.7311 103.394 50.5455ZM113.934 60.0909V45.0909H115.553V46.8239H115.752C115.875 46.6345 116.046 46.393 116.264 46.0994C116.486 45.8011 116.803 45.536 117.215 45.304C117.632 45.0672 118.195 44.9489 118.906 44.9489C119.824 44.9489 120.634 45.1785 121.335 45.6378C122.035 46.0971 122.582 46.7481 122.975 47.5909C123.368 48.4337 123.565 49.428 123.565 50.5739C123.565 51.7292 123.368 52.7306 122.975 53.5781C122.582 54.4209 122.038 55.0743 121.342 55.5384C120.646 55.9976 119.843 56.2273 118.934 56.2273C118.233 56.2273 117.672 56.1113 117.251 55.8793C116.829 55.6425 116.505 55.375 116.278 55.0767C116.05 54.7737 115.875 54.5227 115.752 54.3239H115.61V60.0909H113.934ZM115.582 50.5455C115.582 51.3693 115.702 52.0961 115.944 52.7259C116.185 53.3509 116.538 53.8409 117.002 54.196C117.466 54.5464 118.034 54.7216 118.707 54.7216C119.407 54.7216 119.992 54.5369 120.461 54.1676C120.934 53.7936 121.29 53.2917 121.526 52.6619C121.768 52.0275 121.889 51.322 121.889 50.5455C121.889 49.7784 121.77 49.0871 121.533 48.4716C121.301 47.8513 120.949 47.3613 120.475 47.0014C120.006 46.6368 119.417 46.4545 118.707 46.4545C118.025 46.4545 117.452 46.6274 116.988 46.973C116.524 47.3139 116.174 47.7921 115.937 48.4077C115.7 49.0185 115.582 49.7311 115.582 50.5455ZM127.798 41.4545V56H126.121V41.4545H127.798ZM135.441 56.2273C134.39 56.2273 133.484 55.9953 132.721 55.5312C131.964 55.0625 131.379 54.4091 130.967 53.571C130.56 52.7282 130.356 51.7481 130.356 50.6307C130.356 49.5133 130.56 48.5284 130.967 47.6761C131.379 46.8191 131.952 46.1515 132.686 45.6733C133.424 45.1903 134.286 44.9489 135.271 44.9489C135.839 44.9489 136.4 45.0436 136.954 45.233C137.508 45.4223 138.012 45.7301 138.467 46.1562C138.922 46.5777 139.284 47.1364 139.554 47.8324C139.824 48.5284 139.958 49.3854 139.958 50.4034V51.1136H131.549V49.6648H138.254C138.254 49.0492 138.131 48.5 137.885 48.017C137.643 47.5341 137.298 47.1529 136.848 46.8736C136.403 46.5942 135.877 46.4545 135.271 46.4545C134.603 46.4545 134.026 46.6203 133.538 46.9517C133.055 47.2784 132.683 47.7045 132.423 48.2301C132.163 48.7557 132.032 49.3191 132.032 49.9205V50.8864C132.032 51.7102 132.174 52.4086 132.458 52.9815C132.747 53.5497 133.147 53.983 133.659 54.2812C134.17 54.5748 134.764 54.7216 135.441 54.7216C135.882 54.7216 136.28 54.66 136.635 54.5369C136.994 54.4091 137.305 54.2197 137.565 53.9688C137.825 53.7131 138.027 53.3958 138.169 53.017L139.788 53.4716C139.618 54.0208 139.331 54.5038 138.929 54.9205C138.526 55.3324 138.029 55.6544 137.437 55.8864C136.845 56.1136 136.18 56.2273 135.441 56.2273ZM156.315 45.0909C156.23 44.3712 155.884 43.8125 155.278 43.4148C154.672 43.017 153.929 42.8182 153.048 42.8182C152.404 42.8182 151.841 42.9223 151.358 43.1307C150.879 43.339 150.505 43.6255 150.235 43.9901C149.97 44.3546 149.838 44.7689 149.838 45.233C149.838 45.6212 149.93 45.955 150.115 46.2344C150.304 46.509 150.546 46.7386 150.839 46.9233C151.133 47.1032 151.441 47.2524 151.762 47.3707C152.084 47.4844 152.38 47.5767 152.65 47.6477L154.128 48.0455C154.506 48.1449 154.928 48.2822 155.392 48.4574C155.86 48.6326 156.308 48.8717 156.734 49.1747C157.165 49.473 157.52 49.8565 157.799 50.3253C158.079 50.794 158.218 51.3693 158.218 52.0511C158.218 52.8371 158.012 53.5473 157.601 54.1818C157.193 54.8163 156.597 55.3205 155.811 55.6946C155.03 56.0687 154.08 56.2557 152.963 56.2557C151.921 56.2557 151.019 56.0876 150.257 55.7514C149.499 55.4152 148.903 54.9465 148.467 54.3452C148.036 53.7438 147.792 53.0455 147.735 52.25H149.554C149.601 52.7992 149.786 53.2538 150.108 53.6136C150.434 53.9687 150.846 54.2339 151.343 54.4091C151.845 54.5795 152.385 54.6648 152.963 54.6648C153.635 54.6648 154.239 54.5559 154.774 54.3381C155.309 54.1155 155.733 53.8078 156.045 53.4148C156.358 53.017 156.514 52.553 156.514 52.0227C156.514 51.5398 156.379 51.1468 156.109 50.8438C155.839 50.5407 155.484 50.2945 155.044 50.1051C154.603 49.9157 154.128 49.75 153.616 49.608L151.826 49.0966C150.69 48.7699 149.79 48.3035 149.128 47.6974C148.465 47.0914 148.133 46.2983 148.133 45.3182C148.133 44.5038 148.353 43.7936 148.794 43.1875C149.239 42.5767 149.835 42.1032 150.583 41.767C151.336 41.4261 152.177 41.2557 153.105 41.2557C154.042 41.2557 154.876 41.4238 155.605 41.7599C156.334 42.0914 156.912 42.5459 157.338 43.1236C157.769 43.7012 157.996 44.357 158.02 45.0909H156.315ZM165.631 45.0909V46.5114H159.978V45.0909H165.631ZM161.626 42.4773H163.302V52.875C163.302 53.3485 163.371 53.7036 163.508 53.9403C163.65 54.1723 163.83 54.3286 164.048 54.4091C164.27 54.4848 164.505 54.5227 164.751 54.5227C164.935 54.5227 165.087 54.5133 165.205 54.4943C165.324 54.4706 165.418 54.4517 165.489 54.4375L165.83 55.9432C165.717 55.9858 165.558 56.0284 165.354 56.071C165.151 56.1184 164.893 56.142 164.58 56.142C164.107 56.142 163.643 56.0402 163.188 55.8366C162.738 55.633 162.364 55.3229 162.066 54.9062C161.773 54.4896 161.626 53.964 161.626 53.3295V42.4773ZM172.467 56.2273C171.483 56.2273 170.618 55.9929 169.875 55.5241C169.136 55.0554 168.559 54.3996 168.142 53.5568C167.73 52.714 167.524 51.7292 167.524 50.6023C167.524 49.4659 167.73 48.474 168.142 47.6264C168.559 46.7789 169.136 46.1207 169.875 45.652C170.618 45.1832 171.483 44.9489 172.467 44.9489C173.452 44.9489 174.314 45.1832 175.053 45.652C175.796 46.1207 176.374 46.7789 176.786 47.6264C177.202 48.474 177.411 49.4659 177.411 50.6023C177.411 51.7292 177.202 52.714 176.786 53.5568C176.374 54.3996 175.796 55.0554 175.053 55.5241C174.314 55.9929 173.452 56.2273 172.467 56.2273ZM172.467 54.7216C173.215 54.7216 173.831 54.5298 174.314 54.1463C174.797 53.7628 175.154 53.2585 175.386 52.6335C175.618 52.0085 175.734 51.3314 175.734 50.6023C175.734 49.8731 175.618 49.1937 175.386 48.5639C175.154 47.9342 174.797 47.4252 174.314 47.0369C173.831 46.6487 173.215 46.4545 172.467 46.4545C171.719 46.4545 171.104 46.6487 170.621 47.0369C170.138 47.4252 169.78 47.9342 169.548 48.5639C169.316 49.1937 169.2 49.8731 169.2 50.6023C169.2 51.3314 169.316 52.0085 169.548 52.6335C169.78 53.2585 170.138 53.7628 170.621 54.1463C171.104 54.5298 171.719 54.7216 172.467 54.7216ZM179.969 56V45.0909H181.588V46.7386H181.702C181.901 46.1989 182.261 45.7609 182.782 45.4247C183.302 45.0885 183.89 44.9205 184.543 44.9205C184.666 44.9205 184.82 44.9228 185.005 44.9276C185.189 44.9323 185.329 44.9394 185.424 44.9489V46.6534C185.367 46.6392 185.237 46.6179 185.033 46.5895C184.834 46.5563 184.624 46.5398 184.401 46.5398C183.871 46.5398 183.397 46.651 182.981 46.8736C182.569 47.0914 182.242 47.3944 182 47.7827C181.764 48.1662 181.645 48.6042 181.645 49.0966V56H179.969ZM191.652 56.2273C190.601 56.2273 189.695 55.9953 188.932 55.5312C188.175 55.0625 187.59 54.4091 187.178 53.571C186.771 52.7282 186.567 51.7481 186.567 50.6307C186.567 49.5133 186.771 48.5284 187.178 47.6761C187.59 46.8191 188.163 46.1515 188.897 45.6733C189.635 45.1903 190.497 44.9489 191.482 44.9489C192.05 44.9489 192.611 45.0436 193.165 45.233C193.719 45.4223 194.223 45.7301 194.678 46.1562C195.133 46.5777 195.495 47.1364 195.765 47.8324C196.034 48.5284 196.169 49.3854 196.169 50.4034V51.1136H187.76V49.6648H194.465C194.465 49.0492 194.342 48.5 194.096 48.017C193.854 47.5341 193.508 47.1529 193.059 46.8736C192.614 46.5942 192.088 46.4545 191.482 46.4545C190.814 46.4545 190.237 46.6203 189.749 46.9517C189.266 47.2784 188.894 47.7045 188.634 48.2301C188.374 48.7557 188.243 49.3191 188.243 49.9205V50.8864C188.243 51.7102 188.385 52.4086 188.669 52.9815C188.958 53.5497 189.358 53.983 189.87 54.2812C190.381 54.5748 190.975 54.7216 191.652 54.7216C192.093 54.7216 192.49 54.66 192.846 54.5369C193.205 54.4091 193.516 54.2197 193.776 53.9688C194.036 53.7131 194.238 53.3958 194.38 53.017L195.999 53.4716C195.829 54.0208 195.542 54.5038 195.14 54.9205C194.737 55.3324 194.24 55.6544 193.648 55.8864C193.056 56.1136 192.391 56.2273 191.652 56.2273Z" fill="white"/>
</svg>
