<svg width="37" height="42" viewBox="0 0 37 42" fill="none" xmlns="http://www.w3.org/2000/svg">
<path d="M14.6708 19.8618C13.8779 20.7317 13.8616 22.1543 14.6423 23.0378C15.4231 23.9213 16.6917 23.9394 17.4927 23.0695C17.5497 23.0061 17.6066 22.9336 17.6554 22.8702C18.3466 26.5309 18.6475 27.0202 19.0826 27.0202C19.1314 27.0202 19.1843 27.0111 19.2412 27.0021C19.843 26.9069 19.8552 26.9069 20.3269 18.0541C20.335 17.8729 20.3472 17.6871 20.3553 17.5059C20.3635 17.6237 20.3757 17.746 20.3838 17.8548C20.9571 24.4649 20.9571 24.4649 21.3841 24.6462C21.933 24.8863 22.2136 24.3335 22.8113 23.1239C22.9699 22.8113 23.2057 22.3265 23.3562 22.0909C24.0556 22.177 25.9707 22.3446 26.5441 21.5155C26.6579 21.3569 26.8084 21.0942 26.971 20.7906C27.1865 20.4146 27.6338 19.6217 27.9144 19.3182C28.0445 19.4949 28.2071 19.7893 28.3373 20.0204C28.8821 20.99 29.4961 22.0818 30.346 22.1045H30.3744L34.8066 22.1135H36.2419V22.8203C36.2419 25.6701 34.1682 27.9716 31.6187 27.9716H24.3768V36.0542C24.3768 38.8949 22.303 41.2055 19.7454 41.2055H16.5006C13.9511 41.2055 11.8773 38.8949 11.8773 36.0542V27.9762H4.62326C2.07376 27.9762 0 25.6746 0 22.8249V19.2094C0 16.3597 2.07376 14.0581 4.62326 14.0581H11.8773V5.97552C11.8773 3.13483 13.9511 0.824219 16.5006 0.824219H19.7454C22.303 0.824219 24.3768 3.13483 24.3768 5.97552V14.0581H31.6227C34.1722 14.0581 36.246 16.3597 36.246 19.2094V20.922H34.8106L30.4029 20.9129C30.4029 20.9129 30.3948 20.9129 30.3866 20.9129C30.1061 20.9129 29.488 19.8075 29.2522 19.3861C28.9431 18.8424 28.7032 18.4166 28.4227 18.19C28.2519 18.0451 28.0282 17.9998 27.8168 18.0451C27.2313 18.1719 26.7311 19.001 26.0724 20.1563C25.9301 20.4191 25.8 20.6502 25.7146 20.768C25.4503 21.0126 23.9336 20.99 23.2789 20.8722C22.7625 20.7861 22.5064 21.2844 21.8924 22.5213C21.7622 21.2709 21.5996 19.3771 21.4654 17.746C20.8799 10.9864 20.8799 10.9864 20.3635 10.8731C20.209 10.8414 20.0463 10.8822 19.9243 10.9909C19.6397 11.231 19.6234 11.2446 19.2615 17.9816C19.1599 19.8301 19.046 22.0728 18.9322 23.7536C18.8183 23.2054 18.6841 22.5258 18.5337 21.6831L18.5134 21.5971C18.4564 21.2799 18.2938 21.0942 18.0539 20.99C17.9807 20.5913 17.8058 20.2107 17.5253 19.8981C16.7446 19.0101 15.4718 18.9965 14.6708 19.8618Z" fill="url(#paint0_linear_4216_3664)"/>
<defs>
<linearGradient id="paint0_linear_4216_3664" x1="2.94197" y1="28.5965" x2="37.1316" y2="14.8483" gradientUnits="userSpaceOnUse">
<stop offset="4.1024e-07" stop-color="#68A4F4" stop-opacity="0.88"/>
<stop offset="0.0934" stop-color="#68A4F4" stop-opacity="0.92"/>
<stop offset="0.6815" stop-color="#68A4F4" stop-opacity="0.93"/>
<stop offset="1" stop-color="#68A4F4"/>
</linearGradient>
</defs>
</svg>
