<svg width="327" height="314" viewBox="0 0 327 314" fill="none" xmlns="http://www.w3.org/2000/svg">
<path d="M132.355 147.84C125.202 154.595 125.055 165.643 132.099 172.503C139.142 179.364 150.587 179.505 157.814 172.75C158.328 172.257 158.841 171.694 159.281 171.201C165.518 199.629 168.232 203.429 172.157 203.429C172.598 203.429 173.074 203.359 173.588 203.289C179.017 202.55 179.127 202.55 183.383 133.802C183.456 132.394 183.566 130.952 183.639 129.545C183.713 130.459 183.823 131.409 183.896 132.254C189.069 183.586 189.069 183.586 192.92 184.993C197.873 186.858 200.404 182.566 205.797 173.172C207.227 170.744 209.355 166.979 210.712 165.15C217.022 165.818 234.3 167.12 239.472 160.682C240.499 159.45 241.857 157.41 243.324 155.052C245.268 152.132 249.304 145.975 251.835 143.618C253.009 144.99 254.476 147.277 255.65 149.071C260.566 156.6 266.105 165.08 273.772 165.255H274.029L314.014 165.326H326.963V170.814C326.963 192.945 308.255 210.818 285.254 210.818H219.92V273.585C219.92 295.644 201.211 313.588 178.137 313.588H148.863C125.862 313.588 107.154 295.644 107.154 273.585V210.853H41.7096C18.7088 210.853 0 192.98 0 170.85V142.773C0 120.643 18.7088 102.77 41.7096 102.77H107.154V40.0033C107.154 17.9434 125.862 0 148.863 0H178.137C201.211 0 219.92 17.9434 219.92 40.0033V102.77H285.29C308.291 102.77 327 120.643 327 142.773V156.073H314.051L274.285 156.002C274.285 156.002 274.212 156.002 274.139 156.002C271.607 156.002 266.031 147.418 263.904 144.146C261.116 139.924 258.951 136.616 256.42 134.857C254.88 133.731 252.862 133.38 250.954 133.731C245.672 134.716 241.16 141.155 235.217 150.127C233.933 152.167 232.759 153.962 231.989 154.876C229.604 156.776 215.921 156.6 210.015 155.686C205.356 155.017 203.045 158.887 197.506 168.492C196.332 158.782 194.865 144.075 193.654 131.409C188.372 78.9159 188.372 78.9159 183.713 78.0363C182.319 77.7901 180.851 78.1067 179.751 78.9511C177.183 80.8158 177.036 80.9214 173.771 133.239C172.854 147.594 171.827 165.009 170.8 178.062C169.773 173.805 168.562 168.528 167.205 161.983L167.022 161.315C166.508 158.852 165.041 157.41 162.876 156.6C162.216 153.504 160.639 150.549 158.107 148.121C151.064 141.225 139.582 141.12 132.355 147.84Z" fill="url(#paint0_linear_3336_1044)"/>
<defs>
<linearGradient id="paint0_linear_3336_1044" x1="26.5415" y1="215.671" x2="320.675" y2="78.2641" gradientUnits="userSpaceOnUse">
<stop offset="4.1024e-07" stop-color="#68A4F4" stop-opacity="0.88"/>
<stop offset="0.0934" stop-color="#68A4F4" stop-opacity="0.92"/>
<stop offset="0.6815" stop-color="#68A4F4" stop-opacity="0.93"/>
<stop offset="1" stop-color="#68A4F4"/>
</linearGradient>
</defs>
</svg>
