<svg width="514" height="389" viewBox="0 0 514 389" fill="none" xmlns="http://www.w3.org/2000/svg">
<g clip-path="url(#clip0_4216_3468)">
<path opacity="0.1" d="M170.883 388.782C195.915 388.782 216.207 385.3 216.207 381.004C216.207 376.709 195.915 373.227 170.883 373.227C145.852 373.227 125.56 376.709 125.56 381.004C125.56 385.3 145.852 388.782 170.883 388.782Z" fill="#68A4F4"/>
<path opacity="0.1" d="M417.255 389.001C448.491 389.001 473.812 385.518 473.812 381.223C473.812 376.927 448.491 373.445 417.255 373.445C386.02 373.445 360.699 376.927 360.699 381.223C360.699 385.518 386.02 389.001 417.255 389.001Z" fill="#68A4F4"/>
<path opacity="0.1" d="M6.43771 168.076H53.6449V236.822H9.89371C9.77743 237.528 9.66579 238.239 9.54486 238.949H53.6449V294.392C53.5659 294.367 53.4961 294.337 53.4217 294.307C52.1751 293.78 50.9378 293.224 49.7005 292.627L48.9098 292.245C47.6694 291.619 46.429 290.956 45.1887 290.257C44.7561 290.013 44.3235 289.76 43.8956 289.501C37.0095 285.38 30.7539 280.158 25.3457 274.016C25.1876 273.852 25.0387 273.678 24.8806 273.519C24.127 272.644 23.3875 271.76 22.6712 270.855L21.8804 269.861C21.0338 268.753 20.2152 267.615 19.4198 266.462C19.3035 266.293 19.1919 266.124 19.071 265.965C15.8361 261.173 13.1502 255.984 11.0705 250.509C11.0054 250.345 10.9496 250.166 10.8891 250.012C10.2503 248.256 9.6844 246.483 9.19135 244.694C8.97738 243.944 8.77272 243.203 8.59597 242.423C8.53085 242.195 8.47503 241.971 8.42386 241.747C5.78186 230.729 5.47021 219.284 5.47021 207.918C5.47021 206.592 5.47021 205.26 5.47021 203.943C5.47021 199.346 5.52138 194.719 5.5958 190.097C5.5958 188.899 5.64232 187.707 5.66557 186.504C5.73069 183.453 5.82372 180.401 5.94466 177.35C5.97257 176.5 6.00978 175.655 6.05164 174.81C6.05164 174.323 6.0749 173.836 6.12141 173.349C6.23305 171.58 6.32608 169.826 6.43771 168.076Z" fill="#68A4F4"/>
<path opacity="0.1" d="M53.6449 91.5314H27.7505C31.9598 84.4922 36.5589 77.7279 41.5233 71.2748C45.3701 66.2256 49.4308 61.3056 53.6449 56.5645V91.5314Z" fill="#68A4F4"/>
<path opacity="0.1" d="M53.6448 93.6602V165.95H6.58643C6.58643 165.741 6.61898 165.527 6.63294 165.319C6.6748 164.747 6.71666 164.176 6.76318 163.609C6.81434 162.943 6.87016 162.272 6.93063 161.621C6.9911 160.97 7.05622 160.175 7.12599 159.454C7.19576 158.734 7.26088 158.003 7.33995 157.283C7.41903 156.562 7.4888 155.841 7.57253 155.126C7.65625 154.41 7.73068 153.684 7.81905 152.969C7.88882 152.372 7.96324 151.781 8.03767 151.185C8.14465 150.345 8.25628 149.5 8.37722 148.665C8.37722 148.541 8.40978 148.412 8.42839 148.292C9.27736 142.18 10.4341 136.122 11.8937 130.143C13.4215 123.871 15.3724 117.726 17.7312 111.755C20.2382 105.509 23.1734 99.4691 26.5131 93.685L53.6448 93.6602Z" fill="#68A4F4"/>
<path opacity="0.1" d="M64.915 168.072V236.823H165.744V168.072H64.915ZM64.915 238.945V297.986C65.4918 298.115 66.0639 298.239 66.6314 298.344C67.4035 298.503 68.171 298.647 68.9571 298.771C69.106 298.796 69.2595 298.821 69.4223 298.836C69.7293 298.89 70.0456 298.935 70.3525 298.98C71.1293 299.094 71.9015 299.188 72.6783 299.263C73.0457 299.303 73.4178 299.338 73.7899 299.367L74.6877 299.442C75.1761 299.482 75.6598 299.511 76.1389 299.526C76.4366 299.526 76.7343 299.556 77.0413 299.566C77.2738 299.566 77.5064 299.566 77.7483 299.566C77.9902 299.566 78.3344 299.566 78.6274 299.566C79.0274 299.566 79.4275 299.566 79.8228 299.566H80.3577C80.7578 299.566 81.1578 299.566 81.5532 299.526H81.5811C81.8555 299.526 82.1346 299.526 82.4137 299.487C82.4911 299.492 82.5688 299.492 82.6462 299.487C82.8788 299.487 83.1114 299.487 83.3346 299.452H83.4974L85.0557 299.323C85.5673 299.273 86.0836 299.208 86.6046 299.149L87.6651 299.014C91.9797 298.369 96.2463 297.399 100.433 296.112C109.838 293.309 119.039 289.388 128.439 286.516C140.594 282.813 154.022 280.994 165.767 285.522V238.945H64.915ZM165.744 91.5335V0.00617428C154.705 -0.121609 143.696 1.25789 132.984 4.11117C107.452 10.9644 84.544 25.8289 64.915 44.8132V91.5286H69.9758V93.6507H64.915V165.95H165.744V93.6556H90.7537V91.5335H165.744ZM295.253 60.6169C288.937 60.3784 282.657 58.2414 276.978 54.9415C266.117 48.6299 257.442 38.8843 247.748 30.6594C227.608 13.5288 202.63 3.19177 177.005 0.62739V91.5335H320.943L321.301 91.131L295.253 60.6169ZM308.366 58.132L322.269 74.4327V53.8581C317.613 54.4743 313.533 55.9404 308.384 58.1122L308.366 58.132ZM322.269 312.646V238.945H292.644C292.565 238.632 292.486 238.314 292.393 237.996C292.481 238.314 292.555 238.632 292.639 238.945H177.023V292.246C178.121 293.115 179.205 294.03 180.279 294.959C181.438 295.953 182.582 297.002 183.731 298.03L184.889 299.054C185.443 299.551 186.001 300.048 186.563 300.515C187.68 301.483 188.807 302.437 189.945 303.378C190.508 303.875 191.085 304.322 191.657 304.789C200.74 312.209 210.321 318.905 220.323 324.822C222.565 326.147 224.828 327.441 227.11 328.704C228.631 329.534 230.161 330.359 231.696 331.159C234.003 332.361 236.329 333.521 238.673 334.637C260.287 345.004 283.141 352.117 306.584 355.774C311.79 356.595 317.017 357.241 322.264 357.712V312.641H322.729L322.269 312.646ZM177.023 93.6556V165.95H322.287V93.6556H177.023ZM177.023 168.072V236.823H322.287V168.072H177.023ZM333.562 53.7686V76.7188L351.307 55.9156C345.428 54.9017 339.513 54.1778 333.562 53.7438V53.7686ZM333.562 168.097V236.823H474.849V168.072L333.562 168.097ZM474.333 318.103L474.83 238.945H333.562V358.502C342.663 358.911 351.777 358.794 360.866 358.154H361.024C365.366 357.863 369.687 357.439 373.988 356.882H374.085C397.031 354.029 419.468 347.632 440.694 337.893L474.333 318.103ZM502.092 179.393C501.562 178.056 501.009 176.73 500.446 175.417C499.395 172.933 498.283 170.517 497.139 168.102H486.115V236.823H513.986C513.972 217.362 509.362 197.483 502.106 179.368L502.092 179.393ZM486.115 238.97V307.055C493.966 299.014 500.599 289.816 505.376 279.3C511.121 266.637 513.749 252.925 513.963 238.96L486.115 238.97ZM486.115 148.064V165.955H496.106C493.083 159.796 489.753 153.816 486.129 148.039L486.115 148.064ZM390.296 67.2565C389.561 66.9583 388.826 66.6551 388.086 66.3619C380.286 63.2843 372.315 60.725 364.22 58.6986L337.065 90.5396L336.544 91.131L336.893 91.5385H433.54C420.08 81.6391 405.568 73.4798 390.309 67.2316L390.296 67.2565ZM436.372 93.6805H335.544L333.562 95.6187V165.95H350.931H350.959H474.868V131.883C463.659 117.399 450.721 104.547 436.386 93.6556L436.372 93.6805Z" fill="#68A4F4"/>
<path opacity="0.1" d="M53.6448 130.123V165.95H6.58643C6.58643 165.741 6.61898 165.527 6.63294 165.319C6.6748 164.747 6.71666 164.176 6.76318 163.609C6.81434 162.943 6.87016 162.272 6.93063 161.621C6.9911 160.97 7.05622 160.175 7.12599 159.454C7.19576 158.734 7.26088 158.003 7.33995 157.283C7.41903 156.562 7.4888 155.841 7.57253 155.126C7.65625 154.41 7.73068 153.685 7.81905 152.969C7.88882 152.372 7.96324 151.781 8.03767 151.185C8.14465 150.345 8.25628 149.5 8.37722 148.665C8.37722 148.541 8.40978 148.412 8.42839 148.292C9.27736 142.18 10.4341 136.122 11.8937 130.143L53.6448 130.123Z" fill="#68A4F4"/>
<path opacity="0.1" d="M6.43771 168.076H53.6449V236.822H9.89371C9.77743 237.528 9.66579 238.239 9.54486 238.949H53.6449V294.392C53.5659 294.367 53.4961 294.337 53.4217 294.307C52.1751 293.78 50.9378 293.224 49.7005 292.627L48.9098 292.245C47.6694 291.619 46.429 290.956 45.1887 290.257C44.7561 290.013 44.3235 289.76 43.8956 289.501C37.0095 285.38 30.7539 280.158 25.3457 274.016C25.1876 273.852 25.0387 273.678 24.8806 273.519C24.127 272.644 23.3875 271.76 22.6712 270.855L21.8804 269.861C21.0338 268.753 20.2152 267.615 19.4198 266.462C19.3035 266.293 19.1919 266.124 19.071 265.965C15.8361 261.173 13.1502 255.984 11.0705 250.509C11.0054 250.345 10.9496 250.166 10.8891 250.012C10.2503 248.256 9.6844 246.483 9.19135 244.694C8.97738 243.944 8.77272 243.203 8.59597 242.423C8.53085 242.195 8.47503 241.971 8.42386 241.747C5.78186 230.729 5.47021 219.284 5.47021 207.918C5.47021 206.592 5.47021 205.26 5.47021 203.943C5.47021 199.346 5.52138 194.719 5.5958 190.097C5.5958 188.899 5.64232 187.707 5.66557 186.504C5.73069 183.453 5.82372 180.401 5.94466 177.35C5.97257 176.5 6.00978 175.655 6.05164 174.81C6.05164 174.323 6.0749 173.836 6.12141 173.349C6.23305 171.58 6.32608 169.826 6.43771 168.076Z" fill="#68A4F4"/>
<path opacity="0.1" d="M100.41 104.005V165.948H64.915V104.005H69.9758V83.0332H90.749V104.005H100.41Z" fill="#68A4F4"/>
<path opacity="0.1" d="M100.41 168.07H64.9199V236.816H100.41V168.07Z" fill="#68A4F4"/>
<path opacity="0.1" d="M64.915 238.949H100.41V296.101C96.223 297.386 91.9564 298.355 87.6419 298.998L86.5813 299.138C86.0604 299.202 85.5441 299.257 85.0324 299.311C84.5208 299.366 83.9905 299.406 83.4742 299.441H83.3114C83.0881 299.441 82.8463 299.47 82.6276 299.475H82.3904C82.1113 299.475 81.8322 299.505 81.5532 299.515C81.1578 299.54 80.7624 299.545 80.3577 299.55C80.1856 299.55 80.0228 299.55 79.8507 299.55C79.4507 299.55 79.0553 299.55 78.6553 299.55H77.7762C77.539 299.55 77.3111 299.55 77.0645 299.55L76.1668 299.515C75.7017 299.515 75.1993 299.461 74.7156 299.426L73.8225 299.356L72.7108 299.247C71.9294 299.172 71.1526 299.078 70.3851 298.964L69.4548 298.824L68.9897 298.755C68.2129 298.626 67.4454 298.486 66.664 298.327C66.0918 298.223 65.5244 298.094 64.9476 297.97L64.915 238.949Z" fill="#68A4F4"/>
<path opacity="0.1" d="M322.287 96.6914H293.021V165.944H322.287V96.6914Z" fill="#68A4F4"/>
<path opacity="0.1" d="M322.292 168.07V236.821H177.023V207.167H254.4V224.661H293.02V168.07H322.292Z" fill="#68A4F4"/>
<path opacity="0.1" d="M322.752 312.66H322.287V357.76C317.047 357.287 311.821 356.642 306.612 355.827C283.158 352.158 260.293 345.03 238.673 334.646C232.431 331.644 226.316 328.368 220.328 324.816C210.326 318.896 200.743 312.2 191.657 304.783C189.374 302.914 187.122 301.003 184.898 299.048C183.359 297.691 181.828 296.3 180.279 294.948C179.205 294.019 178.121 293.104 177.023 292.23V238.949H292.634C292.555 238.631 292.476 238.313 292.393 238C292.481 238.313 292.565 238.631 292.644 238.949H322.287V312.63C322.445 312.635 322.599 312.65 322.752 312.66Z" fill="#68A4F4"/>
<path opacity="0.1" d="M398.617 91.5314H379.546V85.1999H388.095V66.3398C388.836 66.6281 389.574 66.9246 390.309 67.2294V85.1999H398.617V91.5314Z" fill="#68A4F4"/>
<path opacity="0.1" d="M444.564 165.95H350.94C350.94 165.95 350.94 165.95 350.973 165.975L350.931 165.95H333.562V96.6967H338.484V147.885H360.973V117.569H379.551V93.6602H398.622V117.589H417.2V147.905H444.564V165.95Z" fill="#68A4F4"/>
<path opacity="0.1" d="M333.562 168.07V236.821H444.564V168.07H333.562ZM474.696 317.748L474.849 263.33H444.564V238.978H333.562V358.5C342.663 358.909 351.778 358.792 360.866 358.152H361.024C365.366 357.861 369.687 357.437 373.988 356.88H374.086C397.031 354.027 419.468 347.63 440.694 337.891" fill="#68A4F4"/>
<path opacity="0.1" d="M488.087 238.949H513.981C513.753 252.909 511.13 266.621 505.39 279.283C500.613 289.804 493.976 299.003 486.133 307.039V263.306H488.087V238.949Z" fill="#68A4F4"/>
<path opacity="0.1" d="M513.995 236.822H488.087V179.367H502.106C509.362 197.482 513.972 217.361 513.995 236.822Z" fill="#68A4F4"/>
<path opacity="0.1" d="M322.292 115.943H306.612V137.656H322.292V115.943Z" fill="#68A4F4"/>
<path opacity="0.1" d="M322.292 160.949H306.612V165.949H322.292V160.949Z" fill="#68A4F4"/>
<path opacity="0.1" d="M322.292 168.07H306.612V182.656H322.292V168.07Z" fill="#68A4F4"/>
<path opacity="0.1" d="M322.292 205.955H306.612V227.668H322.292V205.955Z" fill="#68A4F4"/>
<path opacity="0.1" d="M322.292 250.961H306.612V272.674H322.292V250.961Z" fill="#68A4F4"/>
<path opacity="0.1" d="M322.287 312.63C322.445 312.63 322.599 312.63 322.752 312.66H322.287V317.704H306.612V295.967H322.287V312.63Z" fill="#68A4F4"/>
<path opacity="0.1" d="M322.287 340.963V357.736C317.046 357.262 311.821 356.618 306.612 355.802V340.963H322.287Z" fill="#68A4F4"/>
<path opacity="0.1" d="M244.222 235.227H177.023V236.822H244.222V235.227Z" fill="#68A4F4"/>
<path opacity="0.1" d="M244.222 238.943H177.023V245.056H244.222V238.943Z" fill="#68A4F4"/>
<path opacity="0.1" d="M244.222 265.096H177.023V274.926H244.222V265.096Z" fill="#68A4F4"/>
<path opacity="0.1" d="M244.218 294.963V304.793H191.657C189.375 302.931 187.12 301.019 184.894 299.058C183.354 297.701 181.828 296.31 180.275 294.963H244.218Z" fill="#68A4F4"/>
<path opacity="0.1" d="M244.218 324.825V334.646H238.669C232.433 331.641 226.319 328.362 220.328 324.811L244.218 324.825Z" fill="#68A4F4"/>
<path opacity="0.1" d="M374.099 174.736H360.871V188.87H374.099V174.736Z" fill="#68A4F4"/>
<path opacity="0.1" d="M87.6744 108.881H74.4458V123.015H87.6744V108.881Z" fill="#68A4F4"/>
<path opacity="0.1" d="M87.6744 141.711H74.4458V155.845H87.6744V141.711Z" fill="#68A4F4"/>
<path opacity="0.1" d="M87.6744 174.541H74.4458V188.675H87.6744V174.541Z" fill="#68A4F4"/>
<path opacity="0.1" d="M87.6744 207.367H74.4458V221.501H87.6744V207.367Z" fill="#68A4F4"/>
<path opacity="0.1" d="M87.6744 240.197H74.4458V254.331H87.6744V240.197Z" fill="#68A4F4"/>
<path opacity="0.1" d="M87.6744 273.027H74.4458V287.161H87.6744V273.027Z" fill="#68A4F4"/>
<path opacity="0.1" d="M424.6 174.736H411.371V188.87H424.6V174.736Z" fill="#68A4F4"/>
<path opacity="0.1" d="M374.099 209.598H360.871V223.731H374.099V209.598Z" fill="#68A4F4"/>
<path opacity="0.1" d="M424.6 209.598H411.371V223.731H424.6V209.598Z" fill="#68A4F4"/>
<path opacity="0.1" d="M374.099 244.455H360.871V258.589H374.099V244.455Z" fill="#68A4F4"/>
<path opacity="0.1" d="M424.6 244.455H411.371V258.589H424.6V244.455Z" fill="#68A4F4"/>
<path opacity="0.1" d="M374.099 279.318H360.871V293.452H374.099V279.318Z" fill="#68A4F4"/>
<path opacity="0.1" d="M424.6 279.318H411.371V293.452H424.6V279.318Z" fill="#68A4F4"/>
<path opacity="0.1" d="M374.099 314.182H360.871V328.316H374.099V314.182Z" fill="#68A4F4"/>
<path opacity="0.1" d="M424.6 314.182H411.371V328.316H424.6V314.182Z" fill="#68A4F4"/>
<path opacity="0.1" d="M360.871 358.153V349.039H374.095V356.856L360.871 358.153Z" fill="#68A4F4"/>
<path opacity="0.1" d="M8.37256 148.281V156.367H53.6448V148.281H8.37256ZM12.8844 155.86H9.19121V148.778H12.9123L12.8844 155.86ZM17.3917 155.86H13.6705V148.778H17.3917V155.86ZM21.8896 155.86H18.1684V148.778H21.8896V155.86ZM26.3968 155.86H22.6803V148.778H26.4015L26.3968 155.86ZM30.8994 155.86H27.1782V148.778H30.8994V155.86ZM35.4066 155.86H31.6855V148.778H35.4066V155.86ZM39.9138 155.86H36.1927V148.778H39.9138V155.86ZM44.4164 155.86H40.6953V148.778H44.4164V155.86ZM48.919 155.86H45.1978V148.778H48.919V155.86ZM53.4216 155.86H49.7004V148.778H53.4216V155.86Z" fill="#68A4F4"/>
<path opacity="0.1" d="M8.37256 171.809V179.894H53.6448V171.809H8.37256ZM12.8844 179.382H9.19121V172.32H12.9123L12.8844 179.382ZM17.3917 179.382H13.6705V172.32H17.3917V179.382ZM21.8896 179.382H18.1684V172.32H21.8896V179.382ZM26.3968 179.382H22.6803V172.32H26.4015L26.3968 179.382ZM30.8994 179.382H27.1782V172.32H30.8994V179.382ZM35.4066 179.382H31.6855V172.32H35.4066V179.382ZM39.9138 179.382H36.1927V172.32H39.9138V179.382ZM44.4164 179.382H40.6953V172.32H44.4164V179.382ZM48.919 179.382H45.1978V172.32H48.919V179.382ZM53.4216 179.382H49.7004V172.32H53.4216V179.382Z" fill="#68A4F4"/>
<path opacity="0.1" d="M8.37256 195.346V203.446H53.6448V195.346H8.37256ZM12.8844 202.92H9.19121V195.853H12.9123L12.8844 202.92ZM17.3917 202.92H13.6705V195.853H17.3917V202.92ZM21.8896 202.92H18.1684V195.853H21.8896V202.92ZM26.3968 202.92H22.6803V195.853H26.4015L26.3968 202.92ZM30.8994 202.92H27.1782V195.853H30.8994V202.92ZM35.4066 202.92H31.6855V195.853H35.4066V202.92ZM39.9138 202.92H36.1927V195.853H39.9138V202.92ZM44.4164 202.92H40.6953V195.853H44.4164V202.92ZM48.919 202.92H45.1978V195.853H48.919V202.92ZM53.4216 202.92H49.7004V195.853H53.4216V202.92Z" fill="#68A4F4"/>
<path opacity="0.1" d="M8.37256 218.881V226.957H53.6448V218.881H8.37256ZM12.8844 226.455H9.19121V219.383H12.9123L12.8844 226.455ZM17.3917 226.455H13.6705V219.383H17.3917V226.455ZM21.8896 226.455H18.1684V219.383H21.8896V226.455ZM26.3968 226.455H22.6803V219.383H26.4015L26.3968 226.455ZM30.8994 226.455H27.1782V219.383H30.8994V226.455ZM35.4066 226.455H31.6855V219.383H35.4066V226.455ZM39.9138 226.455H36.1927V219.383H39.9138V226.455ZM44.4164 226.455H40.6953V219.383H44.4164V226.455ZM48.919 226.455H45.1978V219.383H48.919V226.455ZM53.4216 226.455H49.7004V219.383H53.4216V226.455Z" fill="#68A4F4"/>
<path opacity="0.1" d="M8.56787 242.414C8.74928 243.174 8.95394 243.935 9.1679 244.685V242.921H12.889V249.988H10.8982C10.9587 250.152 11.0192 250.331 11.0796 250.485H53.6448V242.414H8.56787ZM17.4056 249.988H13.6844V242.921H17.4056V249.988ZM21.9035 249.988H18.1824V242.921H21.9035V249.988ZM26.4107 249.988H22.6803V242.921H26.4014L26.4107 249.988ZM30.9133 249.988H27.1921V242.921H30.9133V249.988ZM35.4205 249.988H31.6994V242.921H35.4205V249.988ZM39.9277 249.988H36.2066V242.921H39.9277V249.988ZM44.4303 249.988H40.7092V242.921H44.4303V249.988ZM48.9329 249.988H45.2117V242.921H48.9329V249.988ZM53.4354 249.988H49.7143V242.921H53.4354V249.988Z" fill="#68A4F4"/>
<path opacity="0.1" d="M19.0801 265.949C19.1964 266.108 19.308 266.287 19.4289 266.446H21.8895V269.84C22.1547 270.178 22.4151 270.516 22.6849 270.834V266.426H26.4061V273.518H24.899C25.0478 273.682 25.192 273.856 25.3641 274.015H53.6587V265.949H19.0801ZM30.8993 273.518H27.1782V266.456H30.8993V273.518ZM35.4065 273.518H31.6854V266.456H35.4065V273.518ZM39.9138 273.518H36.1926V266.456H39.9138V273.518ZM44.4163 273.518H40.6952V266.456H44.4163V273.518ZM48.9189 273.518H45.1978V266.456H48.9189V273.518ZM53.4215 273.518H49.7003V266.456H53.4215V273.518Z" fill="#68A4F4"/>
<path opacity="0.1" d="M43.9141 289.48C44.3373 289.739 44.7699 289.977 45.2072 290.236V289.987H48.9283V292.224L49.719 292.616V289.987H53.4402V294.286C53.5115 294.324 53.5863 294.354 53.6634 294.376V289.48H43.9141Z" fill="#68A4F4"/>
<path opacity="0.1" d="M350.94 165.949H350.968H350.94ZM322.287 312.626H322.753H322.287ZM292.393 237.995C292.481 238.313 292.556 238.631 292.639 238.944C292.565 238.631 292.486 238.313 292.393 237.995ZM350.94 165.934H350.968H350.94ZM69.9946 91.5176V93.6397H90.7725V91.5176H69.9946ZM322.287 312.626H322.753H322.287ZM292.393 237.995C292.481 238.313 292.556 238.631 292.639 238.944C292.565 238.631 292.486 238.313 292.393 237.995ZM350.94 165.934H350.968H350.94ZM322.287 312.611H322.753H322.287ZM292.393 237.995C292.481 238.313 292.556 238.631 292.639 238.944C292.565 238.631 292.486 238.313 292.393 237.995Z" fill="#68A4F4"/>
<path d="M214.709 188.685C214.709 188.685 212.877 188.412 212.877 185.559C212.877 182.707 211.565 177.379 211.565 177.379C211.565 177.354 210.43 168.101 208.862 166.63C207.295 165.159 205.281 156.521 205.281 156.521C205.281 156.521 204.937 151.835 204.234 150.826C203.532 149.817 202.583 147.347 201.183 143.824C199.783 140.3 193.945 137.86 193.945 137.86C193.945 137.86 183.391 131.32 180.4 129.188C180.129 129.013 179.874 128.808 179.642 128.576C179.121 127.846 176.851 127.831 176.851 127.831C176.614 126.231 176.386 124.392 176.312 122.727C176.312 122.548 176.312 122.369 176.289 122.19C179.624 120.084 182.136 116.763 183.363 112.837C183.419 112.649 183.466 112.45 183.517 112.261C183.717 112.191 183.901 112.076 184.057 111.926C184.213 111.775 184.338 111.591 184.424 111.386C184.694 110.745 184.698 109.995 185.033 109.398C185.424 108.693 186.168 108.315 186.754 107.783C188.233 106.441 188.615 104.18 188.545 102.123C188.498 100.458 188.247 98.778 188.345 97.1231L188.373 96.7056C188.401 96.4572 188.433 96.2087 188.475 95.9701C188.703 94.7376 189.201 93.5747 189.48 92.3522C189.759 91.1296 189.787 89.753 189.136 88.6994C188.182 87.1538 186.196 86.8457 184.452 86.6867C182.475 86.5078 180.707 86.7414 179.442 84.987C178.85 84.0701 178.184 83.2104 177.451 82.4177C177.191 82.1593 174.661 80.5093 174.661 80.4C172.191 79.1779 169.392 78.9485 166.776 79.7539C165.465 80.1614 164.227 80.8274 162.897 81.1604C160.027 81.8859 156.725 81.1007 154.287 82.855C152.929 83.849 152.115 85.4293 151.352 86.97C150.732 88.2389 150.103 89.5062 149.464 90.7718C148.436 92.8541 147.389 94.9712 146.957 97.2772C146.866 97.7789 146.81 98.2873 146.789 98.7979V98.8227C146.789 99.0066 146.789 99.1905 146.789 99.3744V99.608C146.789 99.7819 146.789 99.9509 146.817 100.105C146.845 100.259 146.84 100.309 146.854 100.413C146.868 100.517 146.892 100.751 146.919 100.91C146.947 101.069 147.003 101.347 147.059 101.566C147.082 101.66 147.115 101.75 147.143 101.839C147.189 102.008 147.245 102.172 147.306 102.336C147.338 102.421 147.371 102.51 147.408 102.595C147.478 102.769 147.561 102.938 147.645 103.092C147.682 103.161 147.71 103.226 147.747 103.291C147.877 103.522 148.02 103.744 148.175 103.956C149.171 105.283 150.636 106.128 151.72 107.371C151.72 107.42 151.72 107.47 151.72 107.515C151.72 107.654 151.72 107.788 151.72 107.927C151.777 110.698 152.468 113.412 153.731 115.833C154.994 118.254 156.791 120.308 158.967 121.818C158.967 122.006 158.99 122.2 158.999 122.389C159.09 123.864 159.073 125.345 158.948 126.817C158.759 126.579 158.522 126.389 158.254 126.262C157.987 126.134 157.696 126.073 157.404 126.082C157.204 126.071 157.004 126.09 156.808 126.136L156.767 126.102V126.146C155.743 126.415 154.483 127.553 153.278 130.788C153.278 130.788 149.613 135.201 146.822 135.017C144.031 134.833 136.965 139.609 136.965 139.609C136.965 139.609 130.072 144.39 128.593 149.26C127.766 152.022 126.775 154.725 125.625 157.351L117.104 176.112L115.532 190.996C115.532 190.996 116.402 197.616 116.229 198.625C116.057 199.634 119.806 208.733 119.806 208.733C119.806 208.733 132.193 231.986 137.254 233.179L137.617 232.906C137.833 233.027 138.063 233.118 138.3 233.179L139.342 232.394C139.405 233.269 139.378 234.149 139.263 235.018C138.566 237.314 139.524 252.298 140.742 255.235C141.961 258.172 141.529 296.682 141.529 296.682L141.356 300.082C141.356 300.082 141.356 300.191 141.398 300.38L141.356 301.185L141.482 301.254C141.612 302.333 141.57 303.427 141.356 304.49C140.919 305.981 140.742 310.195 140.742 310.195C140.742 310.195 137.259 333.99 138.91 338.771C140.561 343.552 141.966 348.79 141.966 348.79C141.966 348.79 143.71 354.753 142.049 355.772C140.389 356.791 135.668 358.501 136.64 360.986C137.524 363.281 140.877 369.434 141.375 370.334L141.333 370.806L140.649 378.722C140.76 379.768 141.025 380.788 141.435 381.744C142.184 383.469 143.64 385.258 146.408 385.064C146.873 385.029 147.413 384.969 147.934 384.895C152.999 384.169 159.236 381.754 159.236 381.754C158.913 381.534 158.616 381.272 158.353 380.974C158.104 380.716 157.906 380.407 157.773 380.065C157.639 379.723 157.572 379.356 157.576 378.986C157.65 377.545 155.125 370.676 154.497 368.987C154.399 368.743 154.348 368.604 154.348 368.604C154.348 368.604 160.106 362.173 159.148 356.473C159.148 356.473 152.776 352.497 154.873 350.316C156.971 348.134 160.72 341.867 160.72 341.867C160.72 341.867 160.892 318.435 160.72 314.936C160.541 312.508 160.649 310.065 161.041 307.665C161.111 307.303 161.195 306.95 161.283 306.602C164.184 307.065 167.113 307.302 170.046 307.312C171.116 307.312 172.205 307.312 173.302 307.243C173.302 307.574 173.316 307.932 173.344 308.316C173.586 314.121 174.037 324.299 174.405 328.081C174.926 333.503 177.805 348.114 177.805 348.114C177.805 348.114 172.312 351.881 178.763 361.164C178.763 361.164 178.763 364.529 178.335 365.016C177.878 366.608 177.51 368.228 177.233 369.866C176.963 371.616 176.851 373.385 177.289 374.304C178.335 376.501 184.615 376.322 184.615 376.322L184.768 376.292C185.954 376.161 187.152 376.283 188.293 376.651C189.434 377.019 190.495 377.625 191.415 378.434C193.801 380.482 202.857 379.582 207.76 378.931C209.681 378.673 210.965 378.434 210.965 378.434C211.027 378.202 211.049 377.959 211.03 377.719C210.979 376.431 210.035 373.609 203.634 371.089C203.634 371.089 197.615 366.765 197.699 362.998H197.573H196.876C197.383 362.968 197.708 362.998 197.708 362.998C197.708 362.998 195.35 353.804 196.313 353.059C197.276 352.313 194.392 342.125 194.392 342.125C194.392 342.125 192.741 325.03 192.652 323.832C192.656 322.804 192.802 321.783 193.085 320.8L192.652 311.427C192.652 311.427 192.568 308.311 192.652 307.298C192.638 306.418 192.571 305.539 192.452 304.669C192.41 304.321 192.368 303.958 192.322 303.6C194.578 302.989 196.043 302.422 196.043 302.422L195.783 269.796C197.699 265.82 198.053 257.098 198.043 250.911C198.043 246.935 197.876 243.993 197.876 243.993L200.495 239.426C200.495 239.426 201.099 233.959 200.141 232.762C199.718 232.22 199.908 231.658 200.257 231.196C200.438 231.043 200.63 230.903 200.829 230.779C200.829 230.779 200.801 230.734 200.769 230.669C200.952 230.506 201.146 230.358 201.35 230.227C201.35 230.227 200.42 228.687 201.253 228.035C202.034 228.602 202.732 229.029 203.262 229.377C203.225 229.74 203.188 229.949 203.188 229.949L203.411 229.452C203.923 229.76 204.234 229.949 204.234 229.949C204.234 229.949 208.337 221.217 208.248 219.93C208.16 218.643 211.039 213.221 211.039 213.221C211.039 213.221 211.388 210.373 212.96 209.18C214.532 207.988 214.179 199.345 214.179 199.345C214.179 199.345 214.616 194.843 215.663 193.004C216.709 191.165 214.709 188.685 214.709 188.685ZM136.212 184.854L136.291 186.936C135.826 186.136 135.491 185.559 135.491 185.559L136.212 184.854Z" fill="url(#paint0_linear_4216_3468)"/>
<path d="M204.458 226.177L203.453 230.749C203.453 230.749 195.406 226.361 193.955 220.785C192.504 215.209 196.383 213.092 196.383 213.092L203.881 216.486L204.458 226.177Z" fill="white"/>
<path opacity="0.1" d="M204.458 226.177L203.453 230.749C203.453 230.749 195.406 226.361 193.955 220.785C192.504 215.209 196.383 213.092 196.383 213.092L203.881 216.486L204.458 226.177Z" fill="black"/>
<path d="M159.297 381.784C159.297 381.784 151.855 384.707 146.738 385.074C144.022 385.268 142.594 383.489 141.859 381.774C141.457 380.821 141.198 379.807 141.091 378.768L141.756 370.891L142.11 366.696L152.98 363.68L154.52 368.709L154.664 369.092C155.283 370.771 157.762 377.605 157.688 379.031C157.685 379.396 157.751 379.758 157.882 380.096C158.013 380.433 158.206 380.739 158.45 380.994C158.7 381.295 158.984 381.561 159.297 381.784Z" fill="white"/>
<path d="M210.132 377.779C210.151 378.018 210.129 378.259 210.067 378.49C210.067 378.49 194.15 381.328 190.894 378.49C189.976 377.661 188.906 377.046 187.753 376.685C186.599 376.324 185.388 376.224 184.196 376.393C184.196 376.393 178.038 376.571 177.01 374.405C176.582 373.495 176.693 371.731 176.958 369.992C177.229 368.362 177.589 366.75 178.038 365.166L178.284 364.957L179.749 363.7L196.904 363.158H197.034C196.95 366.905 202.858 371.204 202.858 371.204C209.132 373.689 210.058 376.497 210.132 377.779Z" fill="white"/>
<path opacity="0.1" d="M210.132 377.778C210.149 378.017 210.125 378.258 210.062 378.488C210.062 378.488 194.15 381.326 190.894 378.488C189.977 377.66 188.907 377.046 187.755 376.685C186.602 376.323 185.392 376.224 184.201 376.391C184.201 376.391 178.038 376.57 177.014 374.403C176.586 373.489 176.693 371.73 176.958 369.99C179.331 370.244 183.075 370.875 184.545 372.381C186.768 374.672 190.536 376.958 192.848 377.137C194.657 377.261 205.481 377.629 210.132 377.778Z" fill="black"/>
<path opacity="0.1" d="M159.297 381.785C159.297 381.785 151.855 384.707 146.738 385.075C144.022 385.269 142.594 383.49 141.863 381.77C143.756 382.451 146.384 383.166 147.766 382.51C149.403 381.735 155.208 381.233 158.464 381.02C158.712 381.309 158.992 381.566 159.297 381.785Z" fill="black"/>
<path d="M170.339 146.293C164.2 143.743 156.301 135.32 158.274 131.384C158.712 130.391 158.972 129.319 159.041 128.223C159.168 126.736 159.187 125.24 159.097 123.75C158.959 121.31 158.684 118.88 158.274 116.475C158.274 116.475 177.442 116.937 176.326 119.953C176 120.838 175.949 122.374 176.037 124.093C176.126 125.813 176.358 127.756 176.6 129.401C176.935 131.657 177.27 133.377 177.27 133.377C177.27 133.377 176.098 135.131 175.409 135.225C174.721 135.32 179.149 149.926 170.339 146.293Z" fill="#CF6F80"/>
<path opacity="0.1" d="M154.65 369.092L154.506 369.261C148.776 361.856 141.845 371.085 141.845 371.085L141.743 370.891L142.096 366.696L152.967 363.68L154.506 368.709L154.65 369.092Z" fill="black"/>
<path opacity="0.1" d="M197.039 363.678C197.039 363.678 192.852 363.584 190.62 365.691C188.387 367.798 177.596 366.148 178.061 365.691C178.199 365.465 178.282 365.205 178.303 364.936L179.768 363.678L196.922 363.137C196.988 363.47 197.039 363.678 197.039 363.678Z" fill="black"/>
<path d="M161.781 305.528C161.469 306.352 161.232 307.205 161.074 308.078C160.686 310.466 160.578 312.897 160.753 315.313C160.925 318.792 160.753 342.105 160.753 342.105C160.753 342.105 157.074 348.322 155.023 350.514C152.971 352.706 159.209 356.642 159.209 356.642C160.139 362.307 154.502 368.708 154.502 368.708C148.771 361.303 141.84 370.537 141.84 370.537C141.84 370.537 138.073 363.579 137.133 361.095C136.194 358.61 140.812 356.89 142.436 355.881C144.059 354.873 142.357 348.924 142.357 348.924C142.357 348.924 140.985 343.71 139.357 338.954C137.729 334.198 141.152 310.523 141.152 310.523C141.152 310.523 141.329 306.318 141.752 304.852C141.966 303.794 142.008 302.705 141.878 301.632C141.85 301.269 141.817 300.966 141.794 300.762C141.771 300.558 141.752 300.464 141.752 300.464L141.817 300.345L144.143 295.713C144.143 295.713 162.897 302.611 161.781 305.528Z" fill="#68A4F4"/>
<path d="M197.038 363.133C197.038 363.133 192.852 363.039 190.619 365.121C188.387 367.203 177.596 365.578 178.061 365.121C178.526 364.664 178.489 361.279 178.489 361.279C172.158 352.046 177.558 348.298 177.558 348.298C177.558 348.298 174.73 333.762 174.219 328.37C173.86 324.603 173.419 314.479 173.181 308.7C173.079 306.215 173.019 304.505 173.019 304.505L178.191 303.392L178.856 303.248L191.331 300.574C191.331 300.574 191.675 303.059 191.908 305.092C192.024 305.96 192.089 306.834 192.103 307.711C192.02 308.705 192.103 311.816 192.103 311.816L192.527 321.144C192.25 322.122 192.107 323.138 192.103 324.161C192.187 325.348 193.81 342.355 193.81 342.355C193.81 342.355 196.634 352.503 195.671 353.233C194.708 353.964 197.038 363.133 197.038 363.133Z" fill="#68A4F4"/>
<path opacity="0.1" d="M176.326 119.953C176 120.838 175.949 122.374 176.038 124.093C173.47 125.745 170.519 126.59 167.522 126.53C164.525 126.47 161.605 125.508 159.097 123.755C158.959 121.313 158.684 118.882 158.274 116.475C158.274 116.475 177.442 116.927 176.326 119.953Z" fill="black"/>
<path d="M183.736 108.971C183.739 110.762 183.475 112.542 182.954 114.244C181.789 118.057 179.399 121.308 176.207 123.421C173.016 125.534 169.228 126.374 165.513 125.792C161.798 125.21 158.395 123.243 155.906 120.239C153.417 117.236 152.002 113.389 151.911 109.378C151.911 109.239 151.911 109.11 151.911 108.971C151.874 106.713 152.259 104.471 153.043 102.374C153.827 100.277 154.993 98.3682 156.474 96.7581C157.956 95.148 159.722 93.8692 161.671 92.9963C163.62 92.1234 165.712 91.6738 167.825 91.6738C169.939 91.6738 172.031 92.1234 173.979 92.9963C175.928 93.8692 177.695 95.148 179.176 96.7581C180.658 98.3682 181.824 100.277 182.608 102.374C183.391 104.471 183.776 106.713 183.74 108.971H183.736Z" fill="#CF6F80"/>
<path opacity="0.1" d="M170.339 146.295C164.2 143.745 156.301 135.321 158.274 131.385C158.712 130.392 158.972 129.32 159.041 128.225L167.446 135.605L172.647 140.162L176.6 129.407C176.935 131.664 177.27 133.383 177.27 133.383C177.27 133.383 176.098 135.137 175.409 135.232C174.721 135.326 179.149 149.927 170.339 146.295Z" fill="black"/>
<path d="M192.075 178.91L185.056 304.892L175.902 305.533L152.199 232.484L156.087 145.757L156.906 127.434L167.446 136.682L172.651 141.239L176.721 130.172L184.289 137.219L192.075 178.91Z" fill="#68A4F4"/>
<path opacity="0.1" d="M161.781 305.529C161.469 306.353 161.232 307.207 161.074 308.079C154.413 306.98 147.944 304.821 141.882 301.673L141.756 301.603L141.798 300.803L141.821 300.386L144.147 295.754C144.147 295.754 162.897 302.612 161.781 305.529Z" fill="black"/>
<path opacity="0.1" d="M178.298 308.097C176.595 308.407 174.878 308.616 173.154 308.724C173.051 306.239 172.991 304.529 172.991 304.529L178.163 303.416L178.298 308.097Z" fill="black"/>
<path opacity="0.1" d="M191.88 305.115C188.573 306.035 183.466 307.068 178.893 306.422L178.828 303.271L191.303 300.598C191.303 300.598 191.647 303.058 191.88 305.115Z" fill="black"/>
<path opacity="0.1" d="M178.81 306.999C159.739 310.478 142.273 300.504 142.273 300.504L142.44 297.124C142.44 297.124 142.873 258.813 141.673 255.876C140.473 252.938 139.538 238.044 140.217 235.758C140.896 233.472 137.738 199.191 137.738 199.191L137.226 185.276L118.5 177.17L126.872 158.524C128.003 155.909 128.976 153.22 129.784 150.473C131.24 145.632 137.998 140.876 137.998 140.876C137.998 140.876 144.929 136.125 147.669 136.304C150.408 136.483 153.999 132.1 153.999 132.1C156.65 124.879 159.051 128.149 159.051 128.149C159.051 128.492 159.051 128.149 158.92 129.217C157.99 137.144 173.963 162.191 174.191 162.634L175.712 202.222L177.252 252.322L178.81 306.999Z" fill="black"/>
<path d="M178.298 307C159.227 310.478 141.756 300.504 141.756 300.504L141.928 297.125C141.928 297.125 142.361 258.813 141.156 255.876C139.952 252.939 139.021 238.045 139.705 235.759C140.389 233.473 137.226 199.191 137.226 199.191L136.71 185.276L117.974 177.141L126.346 158.494C127.475 155.879 128.447 153.19 129.258 150.443C130.709 145.603 137.472 140.847 137.472 140.847C137.472 140.847 144.403 136.096 147.138 136.275C149.873 136.454 153.469 132.07 153.469 132.07C156.125 124.849 159.05 128.119 159.05 128.119C159.05 128.462 158.771 128.616 158.92 129.188C160.967 136.876 173.451 162.162 173.679 162.604L175.219 202.193L176.758 252.293L178.298 307Z" fill="white"/>
<path opacity="0.1" d="M173.158 163.732C171.107 162.817 160.241 149.563 160.241 149.563V146.546C159.846 145.553 157.497 146.159 155.59 146.855L156.408 128.531L157.339 129.356C159.376 137.039 172.921 163.289 173.158 163.732Z" fill="black"/>
<path d="M173.675 162.634C171.619 161.72 160.753 148.465 160.753 148.465V145.449C160.358 144.455 158.009 145.061 156.102 145.757L156.925 127.434L157.855 128.259C159.897 135.942 173.447 162.197 173.675 162.634Z" fill="white"/>
<path opacity="0.1" d="M142.273 228.736C142.528 228.736 155.534 227.275 155.534 227.275C155.534 227.275 163.409 243.82 162.892 247.845C162.376 251.871 161.441 255.434 158.274 254.803C155.106 254.172 141.226 255.3 141.226 255.3L142.273 228.736Z" fill="black"/>
<path d="M141.757 227.639C142.012 227.639 155.018 226.178 155.018 226.178C155.018 226.178 162.888 242.727 162.376 246.747C161.865 250.768 160.92 254.336 157.757 253.705C154.594 253.074 140.71 254.202 140.71 254.202L141.757 227.639Z" fill="white"/>
<path d="M151.557 219.871C151.557 219.871 163.493 226.724 163.749 228.817C164.005 230.909 157.674 227.902 156.306 227.539C155.406 227.308 154.49 227.155 153.567 227.082L144.445 227.346L151.557 219.871Z" fill="#CF6F80"/>
<path opacity="0.1" d="M169.828 164.588C170.521 164.588 171.084 163.987 171.084 163.246C171.084 162.505 170.521 161.904 169.828 161.904C169.134 161.904 168.572 162.505 168.572 163.246C168.572 163.987 169.134 164.588 169.828 164.588Z" fill="black"/>
<path d="M169.828 164.041C170.521 164.041 171.084 163.44 171.084 162.699C171.084 161.958 170.521 161.357 169.828 161.357C169.134 161.357 168.572 161.958 168.572 162.699C168.572 163.44 169.134 164.041 169.828 164.041Z" fill="#3F3D56"/>
<path opacity="0.1" d="M172.14 222.674C172.833 222.674 173.396 222.073 173.396 221.332C173.396 220.591 172.833 219.99 172.14 219.99C171.446 219.99 170.884 220.591 170.884 221.332C170.884 222.073 171.446 222.674 172.14 222.674Z" fill="black"/>
<path d="M172.14 222.121C172.833 222.121 173.396 221.52 173.396 220.779C173.396 220.038 172.833 219.438 172.14 219.438C171.446 219.438 170.884 220.038 170.884 220.779C170.884 221.52 171.446 222.121 172.14 222.121Z" fill="#3F3D56"/>
<path opacity="0.1" d="M171.079 193.631C171.773 193.631 172.335 193.03 172.335 192.289C172.335 191.548 171.773 190.947 171.079 190.947C170.386 190.947 169.823 191.548 169.823 192.289C169.823 193.03 170.386 193.631 171.079 193.631Z" fill="black"/>
<path d="M171.079 193.084C171.773 193.084 172.335 192.483 172.335 191.742C172.335 191.001 171.773 190.4 171.079 190.4C170.386 190.4 169.823 191.001 169.823 191.742C169.823 192.483 170.386 193.084 171.079 193.084Z" fill="#3F3D56"/>
<path d="M200.03 226.803C200.03 226.803 200.885 228.175 200.03 228.816C199.174 229.457 200.113 231.007 200.113 231.007C200.113 231.007 197.978 232.344 198.918 233.547C199.857 234.75 199.262 240.182 199.262 240.182L196.694 244.724C196.694 244.724 196.848 247.651 196.857 251.607C196.857 257.779 196.518 266.456 194.639 270.412L194.899 302.87C194.899 302.87 185.908 306.378 178.382 305.31L177.266 253.227C177.266 253.227 178.894 223.692 179.494 218.027C179.845 215.085 179.988 212.12 179.921 209.156C179.921 209.156 179.666 200.29 178.805 196.175C178.805 196.175 177.875 178.348 177.782 173.413C177.74 171.053 177.856 164.165 177.986 157.615C178.131 150.453 178.293 143.699 178.293 143.699L176.596 129.347C176.596 129.347 178.293 129.163 178.805 129.893C179.034 130.122 179.284 130.327 179.549 130.505C182.48 132.622 192.834 139.132 192.834 139.132C192.834 139.132 198.564 141.567 199.936 145.056C201.309 148.545 202.262 151.02 202.927 152.014C203.593 153.008 203.955 157.679 203.955 157.679C203.955 157.679 205.928 166.277 207.467 167.733C209.007 169.189 210.132 178.453 210.132 178.453L196.527 189.883C196.527 189.883 195.332 208.897 195.076 209.633C194.82 210.368 200.03 226.803 200.03 226.803Z" fill="white"/>
<path d="M200.546 226.803C200.546 226.803 201.397 228.175 200.546 228.816C199.695 229.457 200.625 231.008 200.625 231.008C200.625 231.008 198.504 232.359 199.434 233.562C200.364 234.765 199.778 240.197 199.778 240.197L197.211 244.739C197.211 244.739 197.364 247.666 197.378 251.622C197.378 257.794 197.039 266.471 195.159 270.427L195.415 302.885C195.415 302.885 186.41 306.393 178.893 305.325L177.782 253.242C177.782 253.242 179.41 223.707 180.01 218.041C180.361 215.1 180.503 212.135 180.433 209.171C180.433 209.171 180.177 200.305 179.321 196.19C179.321 196.19 178.391 178.363 178.293 173.428C178.251 171.068 178.372 164.18 178.498 157.63C178.642 150.468 178.805 143.714 178.805 143.714L176.563 129.168C176.563 129.168 178.805 129.168 179.321 129.908C179.548 130.14 179.798 130.345 180.066 130.52C182.996 132.637 193.355 139.147 193.355 139.147C193.355 139.147 199.081 141.582 200.453 145.071C201.825 148.56 202.778 151.035 203.448 152.029C204.118 153.023 204.472 157.694 204.472 157.694C204.472 157.694 206.444 166.292 207.983 167.748C209.523 169.204 210.635 178.448 210.635 178.448L197.029 189.878C197.029 189.878 195.834 208.892 195.573 209.628C195.313 210.363 200.546 226.803 200.546 226.803Z" fill="white"/>
<path opacity="0.1" d="M184.252 147.933L185.48 151.76L179.014 158.717C179.158 151.561 179.321 144.802 179.321 144.802L177.079 130.256C177.079 130.256 179.321 130.256 179.837 130.996C180.064 131.227 180.313 131.43 180.582 131.603L186.08 148.549L184.252 147.933Z" fill="black"/>
<path d="M183.735 146.836L184.968 150.662L178.503 157.62C178.647 150.458 178.81 143.705 178.81 143.705L176.563 129.158C176.563 129.158 178.81 129.158 179.321 129.899C179.549 130.129 179.799 130.334 180.066 130.51L185.568 147.452L183.735 146.836Z" fill="white"/>
<path opacity="0.1" d="M183.736 108.971C183.739 110.762 183.475 112.542 182.954 114.244C182.866 114.258 182.776 114.254 182.69 114.231C182.604 114.208 182.523 114.167 182.452 114.11C182.331 109.637 180.27 105.437 177.735 101.864C177.023 100.785 176.161 99.8299 175.177 99.0315C174.182 98.2334 172.945 97.8596 171.707 97.9829C170.312 98.1866 169.079 99.2005 167.67 99.3297C165.809 99.4937 164.144 98.1171 162.297 98.0475C161.546 98.0551 160.806 98.2337 160.125 98.5713C159.444 98.909 158.838 99.3979 158.348 100.006C157.378 101.232 156.657 102.66 156.232 104.2C155.5 106.535 155.102 108.974 155.05 111.436C155.027 112.827 154.901 114.572 153.692 115.079C153.783 114.055 153.674 113.023 153.372 112.047C153.071 111.071 152.582 110.172 151.938 109.408L151.911 109.378C151.911 109.239 151.911 109.11 151.911 108.971C151.874 106.713 152.259 104.471 153.043 102.374C153.827 100.277 154.993 98.3682 156.474 96.7581C157.956 95.148 159.722 93.8692 161.671 92.9963C163.62 92.1234 165.712 91.6738 167.825 91.6738C169.939 91.6738 172.031 92.1234 173.979 92.9963C175.928 93.8692 177.695 95.148 179.176 96.7581C180.658 98.3682 181.824 100.277 182.608 102.374C183.391 104.471 183.776 106.713 183.74 108.971H183.736Z" fill="black"/>
<path d="M174.414 81.9711C171.997 80.7563 169.248 80.5266 166.684 81.325C165.395 81.7325 164.181 82.3935 162.874 82.7265C160.083 83.4471 156.827 82.6668 154.432 84.4112C153.101 85.4052 152.301 86.9756 151.557 88.5013L149.697 92.2882C148.683 94.3606 147.659 96.4678 147.236 98.7489C146.813 101.03 147.069 103.584 148.422 105.418C149.408 106.755 150.864 107.595 151.934 108.852C152.575 109.617 153.061 110.515 153.362 111.49C153.663 112.465 153.772 113.496 153.683 114.518C154.897 114.021 155.013 112.271 155.041 110.88C155.093 108.418 155.491 105.979 156.223 103.644C156.647 102.104 157.368 100.675 158.339 99.4496C158.829 98.8425 159.435 98.3539 160.116 98.0163C160.797 97.6787 161.537 97.4998 162.288 97.4915C164.149 97.5611 165.818 98.9327 167.66 98.7687C169.056 98.6445 170.293 97.6257 171.698 97.4269C172.936 97.3017 174.174 97.6757 175.168 98.4755C176.151 99.2728 177.013 100.228 177.721 101.308C180.261 104.882 182.322 109.071 182.443 113.554C182.968 113.966 183.726 113.429 183.987 112.793C184.247 112.157 184.257 111.412 184.587 110.805C184.968 110.105 185.699 109.732 186.271 109.205C187.722 107.868 188.085 105.617 188.029 103.574C187.973 101.532 187.601 99.4595 187.964 97.4518C188.183 96.2193 188.676 95.0663 188.945 93.8487C189.215 92.6311 189.248 91.2645 188.61 90.2159C187.68 88.6752 185.722 88.3721 184.015 88.228C182.075 88.0491 180.34 88.2777 179.103 86.5333C178.522 85.623 177.869 84.7683 177.149 83.9789C176.903 83.7204 174.414 82.0804 174.414 81.9711Z" fill="#072144"/>
<path opacity="0.1" d="M123.858 186.771L118.997 177.17L117.458 191.985C117.458 191.985 118.313 198.565 118.141 199.573C117.969 200.582 121.648 209.627 121.648 209.627C121.648 209.627 133.803 232.756 138.766 233.949L155.534 221.147L151.087 215.114C151.087 215.114 149.548 214.473 149.162 215.114C149.162 215.114 140.905 199.936 140.049 198.838C139.194 197.74 139.361 195.548 139.361 195.548C139.361 195.548 138.077 194.087 138.505 192.715C138.933 191.344 136.026 186.588 136.026 186.588L138.677 183.939L123.858 186.771Z" fill="black"/>
<path d="M119.253 176.078L117.969 177.171L116.43 191.986C116.43 191.986 117.286 198.566 117.113 199.575C116.941 200.584 120.625 209.629 120.625 209.629C120.625 209.629 132.775 232.758 137.738 233.951L154.511 221.149L150.059 215.115C150.059 215.115 148.52 214.474 148.134 215.115C148.134 215.115 139.877 199.938 139.022 198.839C138.166 197.741 138.338 195.55 138.338 195.55C138.338 195.55 137.054 194.088 137.482 192.717C137.91 191.345 134.998 186.589 134.998 186.589L137.649 183.94L119.253 176.078Z" fill="white"/>
<path opacity="0.1" d="M198.918 234.113C199.848 235.32 199.262 240.742 199.262 240.742L196.695 245.285C196.695 245.285 196.848 248.217 196.857 252.168L192.541 253.609C192.151 253.739 191.737 253.768 191.335 253.692C190.932 253.617 190.552 253.44 190.227 253.176C189.901 252.912 189.64 252.568 189.464 252.174C189.288 251.78 189.202 251.347 189.215 250.91L189.959 225.262L200.03 229.377C199.174 230.013 200.113 231.573 200.113 231.573C200.113 231.573 197.978 232.905 198.918 234.113Z" fill="black"/>
<path d="M199.434 233.563C200.365 234.771 199.778 240.198 199.778 240.198L197.211 244.74C197.211 244.74 197.364 247.667 197.378 251.623L192.983 253.089C192.601 253.216 192.196 253.243 191.802 253.169C191.408 253.095 191.036 252.921 190.718 252.663C190.399 252.404 190.143 252.068 189.971 251.682C189.798 251.296 189.715 250.872 189.727 250.445L190.476 224.717L200.551 228.832C199.69 229.468 200.63 231.023 200.63 231.023C200.63 231.023 198.504 232.36 199.434 233.563Z" fill="white"/>
<path d="M202.769 221.336C202.769 221.336 202.085 226.002 200.374 226.276C198.662 226.549 197.894 233.825 196.187 233.566C194.48 233.308 195.611 226.802 195.671 225.54C195.732 224.278 193.811 219.05 195.248 217.862C196.685 216.674 201.234 217.862 201.234 217.862L202.769 221.336Z" fill="#CF6F80"/>
<path opacity="0.1" d="M206.411 185.401L209.639 178.443C209.639 178.443 210.923 183.746 210.923 186.579C210.923 189.412 212.718 189.69 212.718 189.69C212.718 189.69 214.686 192.175 213.649 193.984C212.611 195.793 212.193 200.295 212.193 200.295C212.193 200.295 212.532 208.888 210.993 210.076C209.453 211.263 209.132 214.101 209.132 214.101C209.132 214.101 206.304 219.493 206.392 220.775C206.481 222.058 202.457 230.74 202.457 230.74C202.457 230.74 204.425 219.95 192.959 215.289C192.959 215.289 192.871 211.626 193.727 210.622C194.582 209.618 195.917 209.161 195.08 204.087C194.243 199.013 194.838 192.95 194.838 191.732C194.838 190.515 197.406 182.921 197.406 182.921L206.411 185.401Z" fill="black"/>
<path d="M207.807 177.449L210.625 178.443C210.625 178.443 211.914 183.746 211.914 186.579C211.914 189.411 213.709 189.69 213.709 189.69C213.709 189.69 215.677 192.174 214.639 193.983C213.602 195.792 213.188 200.295 213.188 200.295C213.188 200.295 213.528 208.888 211.988 210.075C210.449 211.263 210.104 214.101 210.104 214.101C210.104 214.101 207.281 219.493 207.369 220.775C207.458 222.057 203.43 230.74 203.43 230.74C203.43 230.74 205.402 219.95 193.931 215.289C193.931 215.289 193.848 211.626 194.704 210.622C195.559 209.618 196.894 209.161 196.057 204.087C195.22 199.013 195.815 192.95 195.815 191.732C195.815 190.515 198.383 182.921 198.383 182.921L207.807 177.449Z" fill="white"/>
<path opacity="0.1" d="M145.547 357.785C145.547 357.785 150.041 354.769 152.99 356.96C155.939 359.152 145.547 357.785 145.547 357.785Z" fill="black"/>
<path opacity="0.1" d="M180.461 348.457C180.461 348.457 184.438 347.91 187.778 351.751C191.117 355.593 180.461 348.457 180.461 348.457Z" fill="black"/>
<g opacity="0.1">
<path opacity="0.1" d="M186.28 108.115C185.707 108.642 184.973 109.02 184.591 109.72C184.266 110.322 184.256 111.062 183.996 111.708C183.735 112.354 182.977 112.881 182.451 112.474C182.331 108.001 180.265 103.802 177.73 100.223C177.022 99.1435 176.16 98.1878 175.177 97.3906C174.181 96.5909 172.942 96.217 171.702 96.342C170.307 96.5458 169.079 97.5596 167.669 97.6838C165.809 97.8528 164.139 96.4762 162.292 96.4066C161.542 96.4146 160.802 96.5939 160.121 96.9324C159.441 97.271 158.836 97.761 158.348 98.3696C157.377 99.5933 156.656 101.02 156.232 102.559C155.501 104.894 155.102 107.333 155.05 109.795C155.022 111.182 154.901 112.911 153.701 113.428C153.729 113.795 153.729 114.164 153.701 114.531C154.911 114.034 155.031 112.285 155.059 110.893C155.111 108.432 155.51 105.992 156.241 103.657C156.665 102.117 157.386 100.688 158.357 99.463C158.847 98.856 159.452 98.3674 160.132 98.0298C160.812 97.6922 161.552 97.5132 162.302 97.5049C164.162 97.5745 165.837 98.9461 167.679 98.7821C169.074 98.6579 170.311 97.6391 171.711 97.4403C172.951 97.3153 174.19 97.6892 175.186 98.4889C176.169 99.2861 177.031 100.242 177.74 101.322C180.275 104.895 182.34 109.084 182.461 113.567C182.986 113.98 183.745 113.443 184.005 112.807C184.266 112.171 184.275 111.425 184.6 110.819C184.982 110.118 185.717 109.745 186.289 109.219C187.74 107.882 188.103 105.63 188.047 103.588C188.047 103.523 188.047 103.459 188.047 103.399C187.959 105.168 187.517 106.972 186.28 108.115Z" fill="black"/>
<path opacity="0.1" d="M151.943 107.763C150.873 106.506 149.413 105.666 148.431 104.334C147.605 103.155 147.133 101.736 147.078 100.264C146.931 102.103 147.412 103.937 148.431 105.427C149.413 106.764 150.873 107.604 151.943 108.861C152.97 110.091 153.587 111.65 153.696 113.294C153.768 112.294 153.649 111.288 153.348 110.338C153.046 109.387 152.569 108.511 151.943 107.763Z" fill="black"/>
<path opacity="0.1" d="M188.954 92.7594C188.68 93.977 188.191 95.1349 187.968 96.3624C187.836 97.1827 187.787 98.0159 187.824 98.8473C187.839 98.3737 187.888 97.902 187.968 97.4359C188.191 96.2034 188.68 95.0504 188.954 93.8329C189.114 93.1613 189.166 92.4656 189.108 91.7754C189.079 92.1069 189.027 92.4358 188.954 92.7594Z" fill="black"/>
</g>
<path opacity="0.1" d="M61.7384 377.993C86.7699 377.993 107.062 374.511 107.062 370.215C107.062 365.92 86.7699 362.438 61.7384 362.438C36.707 362.438 16.415 365.92 16.415 370.215C16.415 374.511 36.707 377.993 61.7384 377.993Z" fill="#68A4F4"/>
<path d="M63.1987 221.223H60.2822V291.38H63.1987V221.223Z" fill="#535461"/>
<path d="M81.5255 291.165L81.3441 294.326L81.0836 298.799L80.9767 300.657L80.7208 305.13L80.6092 306.989L80.3487 311.462L77.409 362.188C77.2812 364.37 76.3799 366.419 74.8884 367.916C73.3969 369.414 71.4274 370.248 69.3807 370.248H54.0961C52.0499 370.248 50.0809 369.413 48.5901 367.916C47.0994 366.418 46.1991 364.37 46.0724 362.188L43.1467 311.427L42.8862 306.954L42.7792 305.095L42.5187 300.623L42.4118 298.764L42.1513 294.291L41.9652 291.131C41.9329 290.522 42.0173 289.913 42.2131 289.341C42.409 288.769 42.7122 288.245 43.1042 287.803C43.4962 287.36 43.9687 287.008 44.4927 286.767C45.0167 286.527 45.5812 286.403 46.1515 286.404H77.4137C77.9818 286.41 78.5429 286.539 79.0624 286.785C79.5818 287.031 80.0486 287.388 80.4339 287.834C80.8192 288.28 81.1148 288.806 81.3026 289.379C81.4903 289.952 81.5662 290.56 81.5255 291.165Z" fill="#3F3D56"/>
<path d="M81.3438 294.326L81.0833 298.784H42.3928L42.1323 294.326H81.3438Z" fill="#9D9CB5"/>
<path d="M80.9765 300.643L80.7207 305.105H42.7605L42.5 300.643H80.9765Z" fill="#9D9CB5"/>
<path d="M80.6093 306.971L80.3534 311.429H43.1282L42.8677 306.971H80.6093Z" fill="#9D9CB5"/>
<path d="M37.6812 247.516C54.6635 260.646 61.7523 281.181 61.7523 281.181C61.7523 281.181 41.286 280.431 24.2991 267.301C7.31211 254.171 0.237305 233.641 0.237305 233.641C0.237305 233.641 20.6942 234.386 37.6812 247.516Z" fill="#68A4F4"/>
<path fill-rule="evenodd" clip-rule="evenodd" d="M-0.453613 235.13C-0.453643 235.13 -0.453591 235.13 0.223237 233.642C0.900064 232.154 0.900278 232.154 0.900572 232.154L0.917629 232.164L0.965552 232.193L1.14922 232.303C1.3096 232.4 1.54445 232.542 1.84503 232.727C2.44613 233.096 3.31047 233.634 4.36818 234.311C6.48257 235.665 9.37479 237.582 12.4842 239.828C18.634 244.272 25.8728 250.174 29.4624 255.669C31.0219 258.056 33.8072 260.768 37.2363 263.533C40.6368 266.274 44.5598 268.981 48.2938 271.377C52.0242 273.772 55.5461 275.844 58.1365 277.319C59.4311 278.056 60.4916 278.643 61.2274 279.045C61.5953 279.245 61.8819 279.4 62.0759 279.504C62.1165 279.526 62.1529 279.546 62.1853 279.563C62.2304 279.587 62.2674 279.607 62.2961 279.622L62.3514 279.651L62.3681 279.66L61.7522 281.182C61.1355 282.704 61.1353 282.704 61.135 282.704L61.1297 282.701L61.1142 282.693L61.0549 282.661C61.0029 282.634 60.9263 282.593 60.8264 282.539C60.6267 282.432 60.334 282.274 59.9598 282.07C59.2115 281.661 58.1365 281.066 56.826 280.32C54.206 278.829 50.6389 276.73 46.8544 274.3C43.0733 271.873 39.0555 269.104 35.5422 266.272C32.0574 263.463 28.9557 260.503 27.108 257.674C23.8833 252.738 17.0912 247.125 10.9135 242.662C7.85922 240.455 5.01363 238.57 2.93114 237.236C1.8904 236.569 1.04153 236.041 0.454033 235.681C0.160313 235.5 -0.0679889 235.362 -0.222178 235.269L-0.396759 235.164L-0.440303 235.138L-0.453613 235.13Z" fill="#535461"/>
<path d="M48.6447 221.068C57.8871 228.209 61.7524 239.386 61.7524 239.386C61.7524 239.386 50.6123 238.978 41.3652 231.837C32.1182 224.696 28.2622 213.514 28.2622 213.514C28.2622 213.514 39.3977 213.921 48.6447 221.068Z" fill="#68A4F4"/>
<path fill-rule="evenodd" clip-rule="evenodd" d="M27.585 215.003C27.585 215.003 27.5851 215.003 28.2621 213.515C28.9391 212.027 28.9392 212.027 28.9395 212.027L28.9496 212.033L28.9767 212.05L29.0787 212.111C29.1674 212.164 29.2967 212.243 29.4618 212.344C29.792 212.547 30.266 212.842 30.8454 213.213C32.0034 213.955 33.588 215.005 35.2926 216.237C38.6329 218.651 42.6739 221.929 44.7099 225.046C45.4925 226.244 46.9363 227.663 48.7903 229.157C50.6157 230.628 52.7299 232.087 54.7521 233.385C56.7708 234.68 58.6781 235.802 60.0818 236.601C60.7831 237 61.3572 237.317 61.755 237.534C61.9539 237.643 62.1086 237.726 62.213 237.782L62.3309 237.845L62.3671 237.865L62.3686 237.865C62.3685 237.865 62.3687 237.866 61.7523 239.387C61.1358 240.909 61.1356 240.909 61.1354 240.909L61.1233 240.903L61.0901 240.885L60.9638 240.817C60.8538 240.758 60.693 240.672 60.4878 240.56C60.0775 240.336 59.4889 240.01 58.7717 239.602C57.3385 238.786 55.386 237.638 53.3132 236.308C51.2439 234.98 49.0349 233.459 47.0966 231.897C45.1869 230.358 43.4265 228.691 42.3554 227.051C40.6843 224.493 37.09 221.504 33.7218 219.07C32.0722 217.878 30.5342 216.859 29.4081 216.138C28.8456 215.777 28.3872 215.492 28.0705 215.298C27.9123 215.2 27.7895 215.126 27.707 215.076L27.6141 215.02L27.5914 215.007L27.585 215.003Z" fill="#535461"/>
<path d="M75.1715 238.82C64.5523 251.289 62.3057 267.585 62.3057 267.585C62.3057 267.585 77.2786 263.659 87.8884 251.185C98.4983 238.711 100.754 222.42 100.754 222.42C100.754 222.42 85.7907 226.351 75.1715 238.82Z" fill="#68A4F4"/>
<path fill-rule="evenodd" clip-rule="evenodd" d="M99.8395 221.121C99.8398 221.121 99.8399 221.121 100.764 222.424L101.688 223.727L101.68 223.735L101.652 223.761L101.539 223.866C101.44 223.959 101.293 224.098 101.103 224.278C100.724 224.639 100.177 225.166 99.5085 225.827C98.1709 227.149 96.3525 229.001 94.4276 231.122C90.5176 235.432 86.3786 240.63 84.7503 244.708C83.7686 247.166 81.8738 249.903 79.706 252.555C77.5139 255.237 74.9434 257.95 72.5037 260.367C70.0609 262.787 67.7318 264.926 66.0143 266.46C65.155 267.227 64.4476 267.844 63.954 268.27C63.7072 268.483 63.5138 268.648 63.3815 268.761L63.2299 268.889L63.1903 268.923L63.177 268.934C63.1767 268.934 63.1757 268.935 62.3059 267.584C61.4361 266.233 61.436 266.233 61.436 266.233L61.447 266.224L61.483 266.193L61.6271 266.071C61.7542 265.963 61.9422 265.803 62.1833 265.595C62.6655 265.179 63.3599 264.573 64.2048 263.819C65.8956 262.309 68.1841 260.206 70.5789 257.834C72.9767 255.459 75.4634 252.83 77.5587 250.267C79.6784 247.674 81.3012 245.262 82.0778 243.317C83.9659 238.588 88.5018 232.993 92.3876 228.71C94.3606 226.535 96.2203 224.641 97.5863 223.291C98.2697 222.616 98.8307 222.075 99.2219 221.703C99.4176 221.517 99.5708 221.372 99.6758 221.274L99.7963 221.161L99.828 221.132L99.8395 221.121Z" fill="#535461"/>
<path d="M464.988 234.432C464.988 234.432 457.309 193.611 460.248 188.532C460.248 188.532 460.355 183.81 460.179 177.792C460.179 177.563 460.179 177.335 460.179 177.101C460.696 177.47 461.235 177.802 461.793 178.095C464.501 179.582 467.611 180.011 470.584 179.308L468.258 176.54C467.7 175.879 467.119 175.163 466.998 174.288C466.877 173.414 467.212 172.633 467.5 171.853C469.709 165.889 469.826 158.39 465.57 153.838C461.974 150.011 461.1 145.071 457.197 141.578C454.346 139.018 452.778 135.266 451.299 131.638C450.048 128.572 448.787 125.481 448.071 122.23C447.513 119.691 447.29 117.062 446.522 114.582C445.755 112.102 444.317 109.692 442.071 108.584C441.271 108.191 440.382 107.967 439.652 107.446C438.694 106.755 438.117 105.632 437.424 104.648C433.903 99.6778 422.111 102.605 416.53 104.623C415.012 105.131 413.607 105.963 412.399 107.068L412.45 106.978C412.492 106.904 412.543 106.829 412.59 106.755C411.979 107.283 411.451 107.912 411.027 108.618C410.213 109.995 409.874 111.6 409.194 113.091C408.376 114.855 403.822 119.78 405.78 121.763C405.918 121.896 406.075 122.004 406.245 122.081C406.981 122.408 407.79 122.495 408.571 122.33L408.487 122.544C407.819 124.293 407.476 126.165 407.478 128.055C407.478 136.22 413.781 142.84 421.563 142.84C423.026 142.841 424.48 142.602 425.874 142.129C425.907 142.318 425.935 142.507 425.967 142.696C425.967 142.77 425.991 142.845 426 142.919L425.754 143.287C425.741 143.264 425.727 143.243 425.712 143.223L418.409 154.126C417.293 154.966 410.864 159.936 410.502 163.663C410.12 167.743 409.739 172.519 409.739 172.519L409.688 173.543C409.368 173.828 408.995 174.035 408.594 174.151C408.192 174.267 407.772 174.288 407.362 174.214C405.083 173.816 405.083 183.159 405.083 183.159C405.083 183.159 403.566 184.65 402.524 183.358C401.482 182.066 398.729 186.444 398.729 186.444L381.472 187.239L381.077 187.264L380.146 184.188C380.046 183.863 379.83 183.594 379.546 183.439C379.261 183.284 378.93 183.254 378.625 183.358C378.553 183.383 378.483 183.415 378.416 183.452L378.351 183.492L378.23 183.582L378.17 183.641C378.136 183.674 378.105 183.709 378.076 183.746L378.021 183.815L377.993 183.845C377.885 184.004 377.814 184.187 377.785 184.38C377.756 184.574 377.77 184.772 377.825 184.958L378.625 187.597C375.295 188.313 371.89 190.331 374.667 195.887L360.592 193.109L365.146 197.194L388.654 202.377C388.342 202.974 388.547 203.838 389.519 205.056C393.705 210.309 401.334 211.735 404.403 212.103C405.214 214.041 406.227 215.874 407.422 217.57L407.157 222.803C407.157 222.803 399.385 262.69 397.961 264.712C398.68 263.843 399.337 262.917 399.929 261.944C397.673 270.139 394.519 281.356 393.691 283.036C392.361 285.719 391.128 296.578 392.645 297.274C393.11 297.488 394.44 297.383 396.338 297.229V298.129L396.254 332.216C396.254 332.216 396.636 353.124 395.589 355.117C394.543 357.109 394.263 361.289 394.263 361.289C394.263 361.289 390.077 369.534 386.761 372.849C386.738 372.874 386.713 372.898 386.686 372.918L386.584 372.143C386.584 372.143 382.598 377.52 373.779 377.217C373.779 377.217 368.471 380.905 376.342 381.103C384.212 381.302 394.263 380.805 394.263 380.805C394.263 380.805 401.282 369.375 407.162 370.866V379.528H408.962V370.727C409.797 370.139 410.511 369.377 411.062 368.486C411.613 367.595 411.989 366.594 412.167 365.543C412.321 364.46 412.208 363.353 411.839 362.33C411.471 361.308 410.859 360.406 410.064 359.714C409.707 359.369 409.421 358.949 409.223 358.48C409.026 358.012 408.921 357.504 408.915 356.99L408.85 357.05C408.85 356.876 408.808 356.697 408.79 356.513C408.274 352.04 407.627 342.812 409.911 335.983C413.041 326.62 413.99 313.58 411.711 305.817C410.975 303.336 410.371 300.812 409.901 298.258C409.846 297.935 409.795 297.627 409.748 297.339C411.306 297.564 412.849 297.896 414.367 298.333C419.646 299.888 431.196 300.176 441.057 300.092C441.08 300.38 441.108 300.683 441.14 300.986C441.316 303.094 441.684 305.177 442.238 307.208C443.475 311.184 444.043 328.712 444.043 328.712C444.043 328.712 445.638 343.125 444.769 348.989C444.303 352.249 443.838 355.524 443.573 358.814V358.879C443.573 358.879 440.959 366.83 439.047 371.149C439.001 371.258 438.95 371.368 438.903 371.472C438.393 371.522 437.892 371.64 437.41 371.825C437.41 371.825 434.847 377.292 432.293 378.196C429.74 379.101 430.586 382.077 436.368 380.984C442.15 379.891 450.88 378.996 450.88 378.996L451.257 373.42L453.034 371.045L452.569 376.606L454.462 376.208L454.211 369.444L457.118 365.558C457.118 365.558 460.63 362.218 455.411 355.648V355.792C455.355 355.698 455.304 355.599 455.243 355.504V355.474C454.378 354.043 453.69 351.374 454.95 346.638C457.23 338.08 458.555 330.313 458.555 330.313C458.555 330.313 463.644 309.505 457.527 299.659H457.797C457.17 298.274 456.727 296.802 456.481 295.286C456.45 295.107 456.422 294.923 456.397 294.734C460.923 294.456 465.365 293.582 468.988 291.693C468.974 291.673 466.793 242.294 464.988 234.432ZM407.529 199.992V200.091L406.599 200.141L407.529 199.992ZM404.338 200.464C404.185 200.5 404.042 200.573 403.92 200.678C403.52 201.282 403.269 201.985 403.189 202.72L401.738 202.372C401.738 202.372 400.72 202.139 399.254 201.875L398.561 201.13C400.468 200.961 402.45 200.712 404.338 200.464Z" fill="url(#paint1_linear_4216_3468)"/>
<path d="M452.355 369.513L451.801 376.556L453.657 376.158L453.378 368.52L452.355 369.513Z" fill="#072144"/>
<path d="M410.013 336.078C407.776 342.887 408.408 352.076 408.91 356.538C409.097 358.188 409.269 359.192 409.269 359.192C409.269 359.192 405.924 367.333 405.645 367.641C405.366 367.949 395.803 374.186 395.803 374.186L389.119 378.356C389.119 378.356 382.337 375.18 385.588 374.087C386.253 373.802 386.851 373.366 387.342 372.809C390.598 369.504 394.686 361.289 394.686 361.289C394.686 361.289 394.966 357.12 395.989 355.137C397.012 353.154 396.64 332.316 396.64 332.316L396.719 298.348V293.92L409.441 294.019C409.521 295.523 409.704 297.018 409.99 298.492C410.446 301.037 411.038 303.553 411.762 306.026C414.004 313.774 413.073 326.75 410.013 336.078Z" fill="#FFB0B1"/>
<path opacity="0.1" d="M409.269 359.191C409.269 359.191 405.924 367.331 405.645 367.639C405.366 367.947 395.803 374.184 395.803 374.184L389.119 378.354C389.119 378.354 382.337 375.178 385.588 374.085C386.253 373.8 386.851 373.364 387.342 372.808L387.63 374.98L389.858 374.88L408.929 356.547C409.097 358.187 409.269 359.191 409.269 359.191Z" fill="black"/>
<path d="M409.036 357.01L389.858 375.467L387.63 375.567L387.165 372.088C387.165 372.088 383.267 377.445 374.606 377.147C374.606 377.147 369.406 380.82 377.113 381.019C384.821 381.217 394.663 380.72 394.663 380.72C394.663 380.72 401.538 369.29 407.292 370.781V379.413H409.059V370.701C409.881 370.11 410.582 369.348 411.121 368.459C411.66 367.571 412.025 366.576 412.194 365.533C412.347 364.459 412.239 363.36 411.88 362.344C411.52 361.327 410.922 360.426 410.143 359.728C409.795 359.38 409.517 358.959 409.327 358.491C409.136 358.024 409.037 357.52 409.036 357.01Z" fill="#072144"/>
<path d="M454.123 346.692C452.885 351.414 453.56 354.073 454.406 355.499V355.529C455.492 357.29 456.247 359.259 456.63 361.328L456.704 361.776L447.978 375.368L443.243 377.356C443.243 377.356 435.629 374.578 437.019 373.782C437.368 373.589 437.912 372.555 438.536 371.129C440.396 366.83 442.964 358.898 442.964 358.898V358.833C443.234 355.558 443.662 352.293 444.136 349.043C444.987 343.194 443.424 328.836 443.424 328.836C443.424 328.836 442.866 311.378 441.657 307.407C441.111 305.388 440.748 303.318 440.573 301.224C440.322 298.74 440.266 296.692 440.266 296.692C440.266 296.692 445.28 289.238 454.471 297.288C455.206 297.931 455.853 298.68 456.392 299.515C462.742 309.166 457.63 330.427 457.63 330.427C457.63 330.427 456.351 338.159 454.123 346.692Z" fill="#FFB0B1"/>
<path opacity="0.1" d="M456.718 361.775L447.992 375.367L443.257 377.355C443.257 377.355 435.642 374.577 437.033 373.782C437.382 373.588 437.926 372.554 438.549 371.128C441.773 371.098 443.443 374.378 443.443 374.378L447.527 373.682C447.527 373.682 452.913 362.371 454.122 361.681C455.332 360.99 454.308 356.517 454.308 356.517V355.379C454.341 355.419 454.369 355.463 454.406 355.503V355.533C455.492 357.294 456.247 359.264 456.629 361.333L456.718 361.775Z" fill="black"/>
<path d="M443.722 374.672C443.722 374.672 441.396 370.11 436.94 371.795C436.94 371.795 434.433 377.261 431.926 378.146C429.419 379.031 430.256 382.013 435.921 380.924C441.587 379.836 450.127 378.936 450.127 378.936L450.499 373.375L456.257 365.538C456.257 365.538 459.69 362.213 454.583 355.668V356.806C454.583 356.806 455.606 361.279 454.397 361.97C453.187 362.66 447.82 373.976 447.82 373.976L443.722 374.672Z" fill="#072144"/>
<path opacity="0.1" d="M409.455 294.01C409.535 295.513 409.719 297.008 410.004 298.482C404.766 297.662 399.905 298.07 396.719 298.338V293.91L409.455 294.01Z" fill="black"/>
<path opacity="0.1" d="M456.908 300.753C456.908 300.753 449.466 301.141 440.591 301.221C440.34 298.736 440.284 296.688 440.284 296.688C440.284 296.688 445.298 289.234 454.49 297.285C455.225 297.927 455.871 298.676 456.411 299.511C456.555 299.935 456.721 300.349 456.908 300.753Z" fill="black"/>
<path d="M456.908 299.858C456.908 299.858 424.311 301.543 414.376 298.566C404.44 295.589 394.593 298.169 393.11 297.478C391.626 296.787 392.83 285.968 394.133 283.289C395.435 280.611 402.58 253.521 402.58 253.521L409.455 215.224L416.697 213.092L417.208 212.938L429.828 209.221L439.075 206.492C439.075 206.492 457.462 283.19 455.885 288.845C455.312 291.011 455.22 293.289 455.615 295.5C455.856 297.009 456.291 298.476 456.908 299.858Z" fill="#68A4F4"/>
<path d="M385.491 189.033C385.491 189.033 378.978 196.488 383.909 200.642C388.84 204.797 392.082 201.04 392.082 201.04L385.491 189.033Z" fill="#C7DAF5"/>
<path opacity="0.1" d="M385.491 189.033C385.491 189.033 378.978 196.488 383.909 200.642C388.84 204.797 392.082 201.04 392.082 201.04L385.491 189.033Z" fill="black"/>
<path d="M438.103 140.022C438.103 140.022 437.34 140.797 436.191 141.94C434.554 143.575 432.13 145.966 429.981 147.968C427.005 150.736 424.549 152.769 425.428 151.035C426.307 149.3 426.139 146.279 425.702 143.451C425.67 143.262 425.642 143.073 425.609 142.889C425.247 140.812 424.767 138.761 424.172 136.747C424.172 136.747 428.981 130.107 431.642 127.488C432.633 126.494 433.326 126.087 433.368 126.777C433.414 127.707 434.065 129.759 434.875 131.936C434.898 132.006 434.921 132.07 434.949 132.14C435.489 133.631 436.098 135.161 436.633 136.483C437.452 138.511 438.103 140.022 438.103 140.022Z" fill="#FFB0B1"/>
<path opacity="0.1" d="M434.949 132.14C434.497 134.737 433.401 137.157 431.774 139.147C430.147 141.137 428.05 142.623 425.702 143.451C425.332 141.182 424.821 138.943 424.172 136.747C424.172 136.747 433.228 124.248 433.368 126.777C433.4 127.737 434.107 129.864 434.949 132.14Z" fill="black"/>
<path opacity="0.1" d="M424.8 146.792L425.972 145.027C425.972 145.027 426.749 150.087 429.605 147.855C432.461 145.624 432.6 164.648 432.6 164.648L429.535 213.614L407.385 212.198L408.013 188.537L410.52 176.61L416.72 159.271L420.409 153.54L424.8 146.792Z" fill="black"/>
<path d="M432.6 164.95L429.809 209.225L429.516 213.917L417.167 213.126L416.702 213.097L407.399 212.5L408.027 188.834L410.534 176.907L416.734 159.568L420.423 153.838L424.814 147.064L425.986 145.305C425.986 145.305 426.763 150.364 429.619 148.132L429.679 148.088C432.47 146.199 432.6 164.95 432.6 164.95Z" fill="#68A4F4"/>
<path d="M410.845 172.762C410.845 172.762 409.734 175.247 407.501 174.844C405.268 174.441 405.273 183.79 405.273 183.79C405.273 183.79 403.789 185.28 402.766 183.988C401.743 182.696 399.045 187.065 399.045 187.065L382.142 187.86C382.142 187.86 389.663 191.532 388.188 202.645C388.188 202.645 413.725 200.955 414.562 198.376C415.399 195.796 410.845 172.762 410.845 172.762Z" fill="white"/>
<path opacity="0.03" d="M410.845 172.762C410.845 172.762 409.734 175.247 407.501 174.844C405.268 174.441 405.273 183.79 405.273 183.79C405.273 183.79 403.789 185.28 402.766 183.988C401.743 182.696 399.045 187.065 399.045 187.065L382.142 187.86C382.142 187.86 389.663 191.532 388.188 202.645C388.188 202.645 413.725 200.955 414.562 198.376C415.399 195.796 410.845 172.762 410.845 172.762Z" fill="black"/>
<path d="M361.722 193.699L366.178 197.764L402.859 205.999L398.31 201.039L361.722 193.699Z" fill="white"/>
<path d="M424.869 148.356C424.26 149.35 422.516 154.439 421.06 158.882C419.846 162.584 418.832 165.839 418.832 165.839C418.832 165.839 416.464 182.309 415.255 185.286C414.045 188.263 414.701 199.872 414.701 199.872L410.194 228.542C410.194 228.542 408.152 243.327 404.999 252.158C401.887 260.85 398.421 264.925 398.314 265.055C399.71 263.037 407.315 223.309 407.315 223.309L409.827 173.204C409.827 173.204 410.194 168.443 410.566 164.373C410.938 160.303 418.474 154.747 418.474 154.747L425.739 143.709C426.469 144.753 425.981 146.572 424.869 148.356Z" fill="white"/>
<path d="M405.924 212.748C405.924 212.748 395.226 212.252 390.044 205.602C384.863 198.953 402.022 202.948 402.022 202.948L406.482 204.042L405.924 212.748Z" fill="#FFB0B1"/>
<path opacity="0.1" d="M455.885 288.85C455.313 291.015 455.22 293.294 455.616 295.504C443.945 296.389 431.461 293.019 431.461 293.019C429.135 295.305 423.009 298.675 423.009 298.675L419.669 254.444C417.534 248.481 416.697 217.236 416.697 217.236C416.697 217.236 416.888 215.601 417.162 213.151C417.162 213.091 417.162 213.027 417.186 212.967C418.018 206.124 419.669 193.277 420.479 191.543C421.595 189.157 417.046 182.811 417.046 182.811L419.116 163.951L419.367 161.675C423.73 159.592 427.075 152.943 427.075 152.943L429.642 148.137C432.433 146.224 432.577 164.974 432.577 164.974L429.786 209.25L439.033 206.521C439.033 206.521 457.462 283.194 455.885 288.85Z" fill="black"/>
<path d="M467.863 291.907C455.141 298.656 432.019 292.404 432.019 292.404C429.693 294.69 423.567 298.06 423.567 298.06L420.223 253.829C418.093 247.866 417.255 216.621 417.255 216.621C417.255 216.621 419.944 193.308 421.06 190.928C421.386 190.232 421.228 189.198 420.842 188.085C418.944 182.786 418.245 177.083 418.804 171.441L419.697 163.336L419.944 161.064C424.312 158.977 427.656 152.328 427.656 152.328L429.982 147.974L434.261 139.953L436.289 136.156L436.633 136.489L439.261 139.034C439.261 139.034 440.378 140.028 442.052 141.519C445.694 144.799 451.988 150.573 455.234 154.107C458.09 157.218 458.993 169.319 459.253 178.429C459.425 184.427 459.323 189.129 459.323 189.129C456.444 194.193 463.974 234.85 463.974 234.85C465.728 242.707 467.863 291.907 467.863 291.907Z" fill="white"/>
<path opacity="0.03" d="M443.443 152.228C443.443 152.228 434.712 169.985 435.726 176.734C436.74 183.483 439.624 191.121 438.233 192.906C437.755 193.581 437.138 194.13 436.428 194.509C435.719 194.887 434.937 195.085 434.145 195.087C432.749 195.187 429.028 197.965 429.028 198.263C429.028 198.561 425.591 198.561 422.516 199.953C419.442 201.344 414.902 202.134 414.902 202.134C414.902 202.134 406.064 201.836 405.241 202.731C404.418 203.625 403.571 208.978 405.334 213.247C407.097 217.516 409.055 220.701 410.534 221.283C412.013 221.864 421.4 218.505 429.014 217.709C436.628 216.914 444.894 210.469 444.894 210.469C444.894 210.469 453.997 206.99 455.592 201.14C457.188 195.291 453.643 163.142 453.643 163.142C453.643 163.142 450.964 148.158 443.443 152.228Z" fill="black"/>
<path opacity="0.03" d="M442.326 150.737C442.326 150.737 433.596 168.498 434.619 175.242C435.642 181.986 438.517 189.63 437.122 191.419C436.645 192.096 436.029 192.645 435.32 193.023C434.611 193.402 433.83 193.6 433.038 193.601C431.642 193.7 427.921 196.478 427.921 196.776C427.921 197.074 424.484 197.074 421.409 198.461C418.334 199.847 413.795 200.643 413.795 200.643C413.795 200.643 404.957 200.344 404.138 201.239C403.32 202.134 402.464 207.491 404.231 211.755C405.999 216.019 407.952 219.21 409.432 219.791C410.911 220.372 420.297 217.013 427.912 216.223C435.526 215.433 443.792 208.977 443.792 208.977C443.792 208.977 452.89 205.498 454.467 199.654C456.044 193.809 452.518 161.65 452.518 161.65C452.518 161.65 449.848 146.671 442.326 150.737Z" fill="black"/>
<path d="M443.168 151.333C443.168 151.333 434.437 169.095 435.461 175.838C436.484 182.582 439.358 190.226 437.968 192.01C437.492 192.688 436.874 193.239 436.165 193.618C435.455 193.998 434.673 194.196 433.879 194.197C432.484 194.296 428.763 197.074 428.763 197.367C428.763 197.66 425.33 197.665 422.251 199.057C419.171 200.449 414.636 201.239 414.636 201.239C414.636 201.239 405.798 200.941 404.975 201.835C404.152 202.73 403.305 208.087 405.068 212.351C406.831 216.615 408.789 219.806 410.269 220.387C411.748 220.968 421.134 217.609 428.749 216.814C436.363 216.019 444.629 209.573 444.629 209.573C444.629 209.573 453.731 206.094 455.327 200.245C456.922 194.395 453.401 162.246 453.401 162.246C453.401 162.246 450.685 147.287 443.168 151.333Z" fill="white"/>
<path opacity="0.1" d="M442.978 198.973C442.978 198.973 436.001 197.482 438.429 199.967C440.857 202.452 440.843 204.628 443.815 204.529C446.787 204.43 442.978 198.973 442.978 198.973Z" fill="black"/>
<path opacity="0.1" d="M454.769 252.438C454.769 252.438 451.615 254.719 457.648 259.977C463.681 265.234 454.769 252.438 454.769 252.438Z" fill="black"/>
<path opacity="0.1" d="M448.75 271.188C448.75 271.486 447.633 282.121 451.81 284.78C455.987 287.438 448.75 271.188 448.75 271.188Z" fill="black"/>
<path d="M382.43 187.836C379.063 187.96 371.788 189.058 375.56 196.578C378.895 203.232 384.5 198.784 387.654 195.41C386.884 192.264 385.015 189.553 382.43 187.836Z" fill="#FFB0B1"/>
<path d="M387.695 195.353L387.838 195.195L387.695 195.353Z" fill="#FFB0B1"/>
<path opacity="0.1" d="M442.052 141.821C438.48 144.431 435.484 146.632 434.898 147.089C433.298 148.357 430.247 155.796 428.279 159.593C426.712 162.65 421.618 163.435 419.697 163.629L419.944 161.357C424.311 159.27 427.656 152.621 427.656 152.621L436.289 136.449L439.261 139.337C439.261 139.337 440.378 140.331 442.052 141.821Z" fill="black"/>
<path d="M442.052 141.523C438.48 144.132 435.484 146.333 434.898 146.796C433.298 148.058 430.247 155.498 428.279 159.294C426.712 162.351 421.618 163.136 419.697 163.33L419.944 161.059C424.311 158.971 427.656 152.322 427.656 152.322L436.289 136.15L439.261 139.028C439.261 139.028 440.378 140.012 442.052 141.523Z" fill="#DCE7FF"/>
<path d="M435.177 128.861C435.179 131.844 434.332 134.757 432.749 137.215C430.879 140.12 428.097 142.213 424.906 143.114C421.715 144.015 418.328 143.664 415.359 142.125C412.39 140.586 410.035 137.96 408.723 134.725C407.41 131.49 407.227 127.859 408.206 124.492C409.184 121.125 411.26 118.244 414.057 116.372C416.854 114.5 420.186 113.761 423.449 114.29C426.712 114.818 429.689 116.579 431.841 119.252C433.993 121.926 435.176 125.335 435.177 128.861Z" fill="#FFB0B1"/>
<path opacity="0.1" d="M459.253 178.434C457.364 177.192 455.825 175.427 454.801 173.325C454.025 171.685 453.508 169.791 452.183 168.628C450.987 167.585 449.392 167.331 447.903 166.864C443.01 165.319 438.907 160.548 438.754 155.101C438.68 152.536 439.428 149.977 439.089 147.438C438.896 146 438.361 144.64 437.535 143.487C437.125 142.935 436.676 142.418 436.191 141.941C435.54 141.285 434.856 140.649 434.261 139.953C433.886 139.522 433.558 139.047 433.284 138.537C433.063 138.119 432.883 137.678 432.749 137.22C431.819 134.178 432.665 130.57 431.642 127.494L431.586 127.325C431.2 126.232 430.414 125.138 429.321 125.054C428.228 124.969 427.293 125.939 426.251 126.371C424.069 127.275 421.716 125.735 419.897 124.164C418.078 122.594 416.027 120.8 413.715 121.148C412.185 121.381 410.976 122.495 409.566 123.071C409.248 123.203 408.92 123.304 408.585 123.374C409.778 120.196 411.969 117.561 414.783 115.922C417.596 114.282 420.856 113.741 424.003 114.391C427.149 115.041 429.986 116.841 432.025 119.482C434.064 122.124 435.179 125.442 435.177 128.866C435.179 129.9 435.077 130.931 434.875 131.942C434.898 132.012 434.921 132.076 434.949 132.146C435.489 133.637 436.098 135.167 436.633 136.489L439.261 139.034C439.261 139.034 440.377 140.028 442.052 141.519C445.694 144.799 451.987 150.573 455.234 154.107C458.09 157.228 458.983 169.324 459.253 178.434Z" fill="black"/>
<path d="M409.404 113.991C410.069 112.545 410.399 110.925 411.195 109.553C412.362 107.565 414.399 106.293 416.492 105.523C421.958 103.51 433.507 100.588 436.959 105.523C437.638 106.517 438.201 107.62 439.14 108.306C439.857 108.827 440.722 109.051 441.508 109.444C443.708 110.547 445.113 112.952 445.861 115.407C446.61 117.862 446.834 120.496 447.382 123.026C448.085 126.271 449.317 129.347 450.545 132.404C451.992 136.012 453.527 139.754 456.318 142.303C460.127 145.782 460.969 150.707 464.504 154.524C468.691 159.056 468.556 166.536 466.397 172.475C466.114 173.255 465.793 174.07 465.904 174.9C466.016 175.73 466.593 176.485 467.137 177.146L469.426 179.904C464.011 181.301 457.885 178.279 455.364 172.977C454.588 171.337 454.071 169.448 452.741 168.28C451.55 167.237 449.95 166.988 448.466 166.521C443.573 164.97 439.47 160.195 439.317 154.748C439.243 152.188 439.991 149.629 439.652 147.094C439.463 145.647 438.926 144.278 438.094 143.119C436.814 141.334 434.884 140.137 433.842 138.149C432.079 134.824 433.419 130.505 432.149 126.937C431.758 125.844 430.977 124.75 429.884 124.666C428.791 124.581 427.856 125.551 426.809 125.983C424.632 126.887 422.279 125.352 420.46 123.776C418.641 122.201 416.59 120.412 414.274 120.765C412.743 120.993 411.539 122.107 410.129 122.688C409.087 123.115 406.976 123.498 406.064 122.559C404.138 120.665 408.599 115.76 409.404 113.991Z" fill="#072144"/>
<path opacity="0.1" d="M456.658 171.336C455.876 169.696 455.364 167.808 454.034 166.645C452.843 165.601 451.243 165.348 449.755 164.881C444.866 163.335 440.764 158.559 440.606 153.113C440.531 150.553 441.28 147.989 440.945 145.454C440.75 144.017 440.214 142.656 439.387 141.503C438.103 139.719 436.173 138.521 435.135 136.534C433.373 133.214 434.712 128.895 433.438 125.322C433.052 124.233 432.266 123.14 431.177 123.051C430.089 122.961 429.144 123.94 428.103 124.373C425.926 125.277 423.567 123.736 421.753 122.166C419.939 120.596 417.879 118.802 415.567 119.149C414.037 119.383 412.827 120.496 411.423 121.073C410.381 121.5 408.264 121.888 407.353 120.948C405.436 118.961 409.897 114.065 410.697 112.306C411.362 110.855 411.692 109.24 412.492 107.868C412.534 107.794 412.581 107.719 412.627 107.645C412.029 108.174 411.512 108.801 411.097 109.503C410.302 110.875 409.971 112.485 409.306 113.941C408.502 115.7 404.041 120.611 405.962 122.584C406.892 123.528 408.985 123.14 410.027 122.713C411.423 122.131 412.641 121.018 414.172 120.789C416.497 120.437 418.544 122.231 420.358 123.801C422.172 125.372 424.544 126.912 426.712 126.008C427.754 125.575 428.665 124.601 429.782 124.691C430.898 124.78 431.642 125.868 432.047 126.962C433.317 130.53 431.977 134.849 433.74 138.174C434.782 140.127 436.712 141.349 437.991 143.143C438.824 144.302 439.361 145.672 439.55 147.119C439.889 149.654 439.14 152.213 439.215 154.772C439.368 160.239 443.471 164.995 448.364 166.546C449.839 167.013 451.448 167.261 452.639 168.305C453.974 169.473 454.499 171.361 455.262 173.001C457.783 178.304 463.909 181.326 469.323 179.929L468.244 178.627C463.551 178.702 458.802 175.849 456.658 171.336Z" fill="black"/>
<path opacity="0.1" d="M424.59 148.653C423.981 149.647 422.237 154.736 420.781 159.179C419.418 158.613 418.181 155 418.181 155L425.446 143.957C426.19 145.05 425.702 146.864 424.59 148.653Z" fill="black"/>
<path d="M424.869 148.355C424.26 149.349 422.516 154.438 421.06 158.881C419.697 158.32 418.46 154.702 418.46 154.702L425.725 143.664C426.47 144.752 425.981 146.571 424.869 148.355Z" fill="#DCE7FF"/>
<path d="M382.625 199.128L378.597 185.555C378.549 185.397 378.532 185.229 378.545 185.063C378.558 184.897 378.601 184.735 378.673 184.586C378.745 184.438 378.843 184.307 378.963 184.199C379.082 184.092 379.22 184.01 379.369 183.96C379.669 183.86 379.994 183.891 380.272 184.045C380.551 184.2 380.762 184.466 380.858 184.785L384.886 198.343L384.486 201.18L382.625 199.128Z" fill="#BE8B87"/>
<path opacity="0.1" d="M378.979 184.362C379.279 184.261 379.605 184.291 379.885 184.445C380.165 184.6 380.376 184.867 380.472 185.187L384.5 198.745L384.198 200.872L384.491 201.2L384.891 198.362L380.839 184.805C380.743 184.485 380.533 184.219 380.254 184.065C379.975 183.91 379.651 183.88 379.351 183.98C379.099 184.067 378.881 184.242 378.732 184.477C378.811 184.431 378.894 184.393 378.979 184.362Z" fill="white"/>
<path d="M382.625 199.127L384.886 198.361L384.556 200.687L384.486 201.199L383.826 200.464L382.625 199.127Z" fill="#EFC8C4"/>
<path d="M383.826 200.464C383.865 200.411 383.914 200.367 383.97 200.335C384.003 200.312 384.04 200.301 384.079 200.301C384.118 200.301 384.156 200.312 384.188 200.335C384.22 200.375 384.247 200.421 384.268 200.469C384.298 200.524 384.34 200.57 384.39 200.606C384.44 200.641 384.497 200.664 384.556 200.673L384.486 201.169L383.826 200.464Z" fill="#727A9C"/>
<path d="M378.574 190.375C378.574 190.375 386.654 190.325 384.751 193.998C382.849 197.671 379.877 198.113 379.877 198.113L378.574 190.375Z" fill="#FFB0B1"/>
<path d="M328.325 38.9688H327.976C314.096 38.9688 301.821 46.8159 294.76 58.3954C287.7 46.8159 275.425 38.9688 261.545 38.9688H261.196C250.779 39.0748 240.823 43.5687 233.49 51.4739C226.158 59.3791 222.041 70.0568 222.036 81.1865C222.036 95.0073 227.701 114.618 238.748 130.755C259.796 161.502 294.76 188.403 294.76 188.403C294.76 188.403 329.725 161.507 350.768 130.755C361.82 114.618 367.481 95.0073 367.481 81.1865C367.475 70.0576 363.359 59.3807 356.028 51.4757C348.696 43.5706 338.741 39.0761 328.325 38.9688ZM323.334 133.12C321.753 133.114 320.211 132.597 318.911 131.637C317.61 130.677 316.611 129.32 316.045 127.743H307.747C307.201 127.739 306.669 127.553 306.226 127.211C305.783 126.869 305.452 126.388 305.277 125.834L302.728 117.629L294.663 147.741C294.506 148.321 294.177 148.83 293.726 149.193C293.274 149.556 292.725 149.753 292.16 149.754H291.998C291.408 149.723 290.846 149.478 290.406 149.058C289.966 148.638 289.674 148.07 289.579 147.448L281.267 94.0333L275.192 125.641C275.053 126.241 274.729 126.774 274.273 127.155C273.817 127.536 273.255 127.743 272.676 127.743H260.987C260.636 127.759 260.286 127.699 259.958 127.566C259.63 127.434 259.33 127.232 259.077 126.973C258.824 126.713 258.623 126.402 258.485 126.057C258.347 125.713 258.276 125.342 258.276 124.967C258.276 124.593 258.347 124.222 258.485 123.877C258.623 123.532 258.824 123.221 259.077 122.962C259.33 122.702 259.63 122.501 259.958 122.368C260.286 122.236 260.636 122.176 260.987 122.192H270.629L279.234 79.6956C279.375 79.0673 279.716 78.511 280.199 78.1216C280.682 77.7323 281.276 77.5342 281.88 77.5612C282.485 77.5882 283.061 77.8386 283.512 78.2697C283.962 78.7007 284.259 79.2855 284.351 79.9242L292.839 134.412L300.068 107.471C300.218 106.904 300.536 106.404 300.975 106.046C301.413 105.687 301.948 105.49 302.5 105.483H302.552C303.098 105.484 303.631 105.668 304.074 106.011C304.516 106.354 304.846 106.837 305.017 107.392L309.626 122.207H315.943C316.392 120.749 317.209 119.452 318.305 118.459C319.4 117.466 320.731 116.816 322.15 116.58C323.57 116.345 325.023 116.532 326.348 117.123C327.674 117.714 328.821 118.684 329.664 119.928C330.506 121.171 331.01 122.639 331.121 124.169C331.231 125.699 330.944 127.232 330.291 128.599C329.637 129.966 328.643 131.113 327.418 131.915C326.193 132.716 324.785 133.14 323.348 133.14L323.334 133.12Z" fill="#68A4F4"/>
</g>
<defs>
<linearGradient id="paint0_linear_4216_3468" x1="165.744" y1="385.089" x2="165.744" y2="79.2818" gradientUnits="userSpaceOnUse">
<stop stop-color="#808080" stop-opacity="0.25"/>
<stop offset="0.54" stop-color="#808080" stop-opacity="0.12"/>
<stop offset="1" stop-color="#808080" stop-opacity="0.1"/>
</linearGradient>
<linearGradient id="paint1_linear_4216_3468" x1="103827" y1="230735" x2="103827" y2="73762" gradientUnits="userSpaceOnUse">
<stop stop-color="#808080" stop-opacity="0.25"/>
<stop offset="0.54" stop-color="#808080" stop-opacity="0.12"/>
<stop offset="1" stop-color="#808080" stop-opacity="0.1"/>
</linearGradient>
<clipPath id="clip0_4216_3468">
<rect width="514" height="389" fill="white"/>
</clipPath>
</defs>
</svg>
