<svg width="230" height="78" viewBox="0 0 230 78" fill="none" xmlns="http://www.w3.org/2000/svg">
<rect width="229.473" height="78" rx="11.3077" fill="#68A4F9"/>
<path d="M30.3271 56.8396V20.5416C30.3274 20.4628 30.3511 20.3859 30.3954 20.3204C30.4397 20.255 30.5025 20.2039 30.576 20.1736C30.6495 20.1434 30.7304 20.1352 30.8085 20.1502C30.8866 20.1652 30.9586 20.2027 31.0153 20.258L50.1211 38.6897L31.0153 57.1232C30.9586 57.1785 30.8866 57.216 30.8085 57.231C30.7304 57.246 30.6495 57.2378 30.576 57.2076C30.5025 57.1773 30.4397 57.1262 30.3954 57.0607C30.3511 56.9953 30.3274 56.9184 30.3271 56.8396ZM58.132 46.2633L34.1758 59.3195L34.1608 59.3278C33.7481 59.5495 33.356 58.9972 33.694 58.6758L52.473 40.9128L58.132 46.2633ZM33.6959 18.7036C33.356 18.3822 33.7481 17.8299 34.1627 18.0515L34.1776 18.0598L58.132 31.116L52.473 36.4684L33.6959 18.7036ZM67.8031 40.9987L61.1133 44.6433L54.8231 38.6897L61.1133 32.7388L67.8031 36.3806C69.6228 37.3754 69.6228 40.004 67.8031 40.9987Z" fill="white"/>
<path d="M90.4871 24.3789C90.3933 24.092 90.2698 23.8349 90.1163 23.6076C89.9658 23.3775 89.7854 23.1815 89.5752 23.0195C89.3678 22.8576 89.132 22.734 88.8678 22.6488C88.6036 22.5636 88.3138 22.521 87.9984 22.521C87.4814 22.521 87.0112 22.6545 86.5879 22.9215C86.1646 23.1886 85.828 23.582 85.578 24.1019C85.328 24.6218 85.203 25.2596 85.203 26.0153C85.203 26.771 85.3294 27.4087 85.5823 27.9286C85.8351 28.4485 86.1774 28.842 86.6092 29.109C87.0411 29.3761 87.5269 29.5096 88.0666 29.5096C88.5666 29.5096 89.007 29.4031 89.3877 29.19C89.7712 28.9741 90.0695 28.6701 90.2825 28.2781C90.4984 27.8832 90.6064 27.4187 90.6064 26.8846L90.9303 26.9528H88.3053V26.0153H91.6291V26.9528C91.6291 27.6715 91.4757 28.2965 91.1689 28.8278C90.8649 29.359 90.4445 29.771 89.9075 30.0636C89.3734 30.3533 88.7598 30.4982 88.0666 30.4982C87.2939 30.4982 86.6149 30.3164 86.0297 29.9528C85.4473 29.5891 84.9928 29.0721 84.6661 28.4016C84.3422 27.7312 84.1803 26.9357 84.1803 26.0153C84.1803 25.3249 84.2726 24.7042 84.4573 24.1531C84.6448 23.5991 84.909 23.1275 85.2499 22.7383C85.5908 22.3491 85.9942 22.0508 86.4601 21.8434C86.926 21.636 87.4388 21.5323 87.9984 21.5323C88.4587 21.5323 88.8877 21.6019 89.2854 21.7411C89.6859 21.8775 90.0425 22.0721 90.355 22.3249C90.6703 22.5749 90.9331 22.8746 91.1433 23.2241C91.3536 23.5707 91.4984 23.9556 91.578 24.3789H90.4871ZM96.0471 30.5153C95.4164 30.5153 94.8724 30.3761 94.415 30.0977C93.9604 29.8164 93.6096 29.4244 93.3624 28.9215C93.1181 28.4158 92.996 27.8278 92.996 27.1573C92.996 26.4869 93.1181 25.896 93.3624 25.3846C93.6096 24.8704 93.9533 24.4698 94.3937 24.1829C94.8369 23.8931 95.3539 23.7482 95.9448 23.7482C96.2857 23.7482 96.6224 23.805 96.9548 23.9187C97.2872 24.0323 97.5897 24.217 97.8624 24.4727C98.1352 24.7255 98.3525 25.0607 98.5144 25.4783C98.6764 25.896 98.7573 26.4102 98.7573 27.021V27.4471H93.7119V26.5778H97.7346C97.7346 26.2085 97.6607 25.8789 97.513 25.5891C97.3681 25.2994 97.1607 25.0707 96.8908 24.9031C96.6238 24.7354 96.3085 24.6516 95.9448 24.6516C95.5443 24.6516 95.1977 24.7511 94.9051 24.9499C94.6153 25.146 94.3923 25.4016 94.236 25.717C94.0798 26.0323 94.0016 26.3704 94.0016 26.7312V27.3107C94.0016 27.805 94.0869 28.2241 94.2573 28.5678C94.4306 28.9087 94.6707 29.1687 94.9775 29.3477C95.2843 29.5238 95.6408 29.6119 96.0471 29.6119C96.3113 29.6119 96.5499 29.5749 96.763 29.5011C96.9789 29.4244 97.165 29.3107 97.3212 29.1602C97.4775 29.0067 97.5982 28.8164 97.6835 28.5891L98.6551 28.8619C98.5528 29.1914 98.3809 29.4812 98.1394 29.7312C97.8979 29.9783 97.5997 30.1715 97.2445 30.3107C96.8894 30.4471 96.4903 30.5153 96.0471 30.5153ZM103.134 23.8335V24.6857H99.7417V23.8335H103.134ZM100.73 22.2653H101.736V28.5039C101.736 28.788 101.777 29.0011 101.86 29.1431C101.945 29.2823 102.053 29.3761 102.183 29.4244C102.317 29.4698 102.458 29.4925 102.605 29.4925C102.716 29.4925 102.807 29.4869 102.878 29.4755C102.949 29.4613 103.006 29.4499 103.049 29.4414L103.253 30.3448C103.185 30.3704 103.09 30.396 102.968 30.4215C102.845 30.4499 102.691 30.4641 102.503 30.4641C102.219 30.4641 101.941 30.4031 101.668 30.2809C101.398 30.1587 101.174 29.9727 100.995 29.7227C100.818 29.4727 100.73 29.1573 100.73 28.7766V22.2653ZM108.022 30.3789V23.8335H109.027V30.3789H108.022ZM108.533 22.7425C108.337 22.7425 108.168 22.6758 108.026 22.5423C107.887 22.4087 107.817 22.2482 107.817 22.0607C107.817 21.8732 107.887 21.7127 108.026 21.5792C108.168 21.4457 108.337 21.3789 108.533 21.3789C108.729 21.3789 108.897 21.4457 109.036 21.5792C109.178 21.7127 109.249 21.8732 109.249 22.0607C109.249 22.2482 109.178 22.4087 109.036 22.5423C108.897 22.6758 108.729 22.7425 108.533 22.7425ZM113.716 23.8335V24.6857H110.324V23.8335H113.716ZM111.312 22.2653H112.318V28.5039C112.318 28.788 112.359 29.0011 112.442 29.1431C112.527 29.2823 112.635 29.3761 112.765 29.4244C112.899 29.4698 113.04 29.4925 113.187 29.4925C113.298 29.4925 113.389 29.4869 113.46 29.4755C113.531 29.4613 113.588 29.4499 113.631 29.4414L113.835 30.3448C113.767 30.3704 113.672 30.396 113.55 30.4215C113.427 30.4499 113.273 30.4641 113.085 30.4641C112.801 30.4641 112.523 30.4031 112.25 30.2809C111.98 30.1587 111.756 29.9727 111.577 29.7227C111.4 29.4727 111.312 29.1573 111.312 28.7766V22.2653ZM121.263 30.5153C120.672 30.5153 120.153 30.3746 119.707 30.0934C119.264 29.8121 118.917 29.4187 118.667 28.913C118.42 28.4073 118.297 27.8164 118.297 27.1403C118.297 26.4585 118.42 25.8633 118.667 25.3548C118.917 24.8462 119.264 24.4513 119.707 24.1701C120.153 23.8888 120.672 23.7482 121.263 23.7482C121.854 23.7482 122.371 23.8888 122.814 24.1701C123.26 24.4513 123.606 24.8462 123.854 25.3548C124.104 25.8633 124.229 26.4585 124.229 27.1403C124.229 27.8164 124.104 28.4073 123.854 28.913C123.606 29.4187 123.26 29.8121 122.814 30.0934C122.371 30.3746 121.854 30.5153 121.263 30.5153ZM121.263 29.6119C121.712 29.6119 122.081 29.4968 122.371 29.2667C122.66 29.0366 122.875 28.734 123.014 28.359C123.153 27.984 123.223 27.5778 123.223 27.1403C123.223 26.7028 123.153 26.2951 123.014 25.9173C122.875 25.5394 122.66 25.234 122.371 25.0011C122.081 24.7681 121.712 24.6516 121.263 24.6516C120.814 24.6516 120.444 24.7681 120.155 25.0011C119.865 25.234 119.65 25.5394 119.511 25.9173C119.372 26.2951 119.302 26.7028 119.302 27.1403C119.302 27.5778 119.372 27.984 119.511 28.359C119.65 28.734 119.865 29.0366 120.155 29.2667C120.444 29.4968 120.814 29.6119 121.263 29.6119ZM126.769 26.4414V30.3789H125.764V23.8335H126.735V24.8562H126.821C126.974 24.5238 127.207 24.2567 127.519 24.055C127.832 23.8505 128.235 23.7482 128.73 23.7482C129.173 23.7482 129.561 23.8391 129.893 24.021C130.225 24.1999 130.484 24.4727 130.669 24.8391C130.853 25.2028 130.946 25.663 130.946 26.2198V30.3789H129.94V26.288C129.94 25.7738 129.806 25.3732 129.539 25.0863C129.272 24.7965 128.906 24.6516 128.44 24.6516C128.119 24.6516 127.832 24.7212 127.579 24.8604C127.329 24.9996 127.132 25.2028 126.987 25.4698C126.842 25.7369 126.769 26.0607 126.769 26.4414Z" fill="white"/>
<path d="M95.1689 43.3789C95.0127 42.9007 94.8067 42.4722 94.551 42.0934C94.3001 41.7099 93.9994 41.3832 93.649 41.1133C93.3034 40.8434 92.9104 40.6374 92.47 40.4954C92.0297 40.3533 91.5467 40.2823 91.0212 40.2823C90.1594 40.2823 89.3758 40.5049 88.6703 40.9499C87.9648 41.395 87.4037 42.0508 86.9871 42.9173C86.5704 43.7837 86.3621 44.8467 86.3621 46.1062C86.3621 47.3656 86.5728 48.4286 86.9942 49.2951C87.4156 50.1616 87.9861 50.8174 88.7058 51.2624C89.4255 51.7075 90.2352 51.93 91.1348 51.93C91.9681 51.93 92.702 51.7525 93.3365 51.3974C93.9757 51.0375 94.4729 50.5309 94.828 49.8775C95.1878 49.2193 95.3678 48.4452 95.3678 47.555L95.9075 47.6687H91.5325V46.1062H97.0723V47.6687C97.0723 48.8666 96.8166 49.9083 96.3053 50.7937C95.7986 51.6791 95.0979 52.3656 94.203 52.8533C93.3128 53.3363 92.2901 53.5778 91.1348 53.5778C89.8469 53.5778 88.7153 53.2747 87.7399 52.6687C86.7693 52.0626 86.0117 51.2009 85.4672 50.0835C84.9274 48.966 84.6575 47.6403 84.6575 46.1062C84.6575 44.9556 84.8114 43.921 85.1192 43.0025C85.4317 42.0792 85.872 41.2932 86.4402 40.6445C87.0084 39.9959 87.6807 39.4987 88.4573 39.1531C89.2338 38.8074 90.0884 38.6346 91.0212 38.6346C91.7882 38.6346 92.5032 38.7506 93.1661 38.9826C93.8337 39.2099 94.4279 39.5342 94.9487 39.9556C95.4743 40.3723 95.9123 40.8718 96.2627 41.4542C96.613 42.0318 96.8545 42.6734 96.9871 43.3789H95.1689ZM104.294 53.6062C103.309 53.6062 102.445 53.3718 101.701 52.9031C100.963 52.4343 100.385 51.7785 99.9683 50.9357C99.5563 50.0929 99.3504 49.1081 99.3504 47.9812C99.3504 46.8448 99.5563 45.8529 99.9683 45.0053C100.385 44.1578 100.963 43.4996 101.701 43.0309C102.445 42.5621 103.309 42.3278 104.294 42.3278C105.278 42.3278 106.14 42.5621 106.879 43.0309C107.622 43.4996 108.2 44.1578 108.612 45.0053C109.028 45.8529 109.237 46.8448 109.237 47.9812C109.237 49.1081 109.028 50.0929 108.612 50.9357C108.2 51.7785 107.622 52.4343 106.879 52.9031C106.14 53.3718 105.278 53.6062 104.294 53.6062ZM104.294 52.1005C105.042 52.1005 105.657 51.9087 106.14 51.5252C106.623 51.1417 106.981 50.6374 107.213 50.0124C107.445 49.3874 107.561 48.7103 107.561 47.9812C107.561 47.252 107.445 46.5726 107.213 45.9428C106.981 45.3131 106.623 44.8041 106.14 44.4158C105.657 44.0276 105.042 43.8335 104.294 43.8335C103.545 43.8335 102.93 44.0276 102.447 44.4158C101.964 44.8041 101.607 45.3131 101.375 45.9428C101.143 46.5726 101.027 47.252 101.027 47.9812C101.027 48.7103 101.143 49.3874 101.375 50.0124C101.607 50.6374 101.964 51.1417 102.447 51.5252C102.93 51.9087 103.545 52.1005 104.294 52.1005ZM116.227 53.6062C115.242 53.6062 114.378 53.3718 113.635 52.9031C112.896 52.4343 112.319 51.7785 111.902 50.9357C111.49 50.0929 111.284 49.1081 111.284 47.9812C111.284 46.8448 111.49 45.8529 111.902 45.0053C112.319 44.1578 112.896 43.4996 113.635 43.0309C114.378 42.5621 115.242 42.3278 116.227 42.3278C117.212 42.3278 118.074 42.5621 118.812 43.0309C119.556 43.4996 120.133 44.1578 120.545 45.0053C120.962 45.8529 121.17 46.8448 121.17 47.9812C121.17 49.1081 120.962 50.0929 120.545 50.9357C120.133 51.7785 119.556 52.4343 118.812 52.9031C118.074 53.3718 117.212 53.6062 116.227 53.6062ZM116.227 52.1005C116.975 52.1005 117.591 51.9087 118.074 51.5252C118.557 51.1417 118.914 50.6374 119.146 50.0124C119.378 49.3874 119.494 48.7103 119.494 47.9812C119.494 47.252 119.378 46.5726 119.146 45.9428C118.914 45.3131 118.557 44.8041 118.074 44.4158C117.591 44.0276 116.975 43.8335 116.227 43.8335C115.479 43.8335 114.864 44.0276 114.381 44.4158C113.898 44.8041 113.54 45.3131 113.308 45.9428C113.076 46.5726 112.96 47.252 112.96 47.9812C112.96 48.7103 113.076 49.3874 113.308 50.0124C113.54 50.6374 113.898 51.1417 114.381 51.5252C114.864 51.9087 115.479 52.1005 116.227 52.1005ZM128.132 57.6971C127.323 57.6971 126.627 57.5929 126.044 57.3846C125.462 57.181 124.977 56.9111 124.588 56.5749C124.205 56.2435 123.899 55.8884 123.672 55.5096L125.007 54.5721C125.159 54.771 125.351 54.9982 125.583 55.2539C125.815 55.5143 126.132 55.7392 126.534 55.9286C126.942 56.1228 127.474 56.2198 128.132 56.2198C129.013 56.2198 129.74 56.0067 130.313 55.5806C130.886 55.1545 131.172 54.4869 131.172 53.5778V51.3619H131.03C130.907 51.5607 130.732 51.8069 130.504 52.1005C130.282 52.3893 129.96 52.6474 129.539 52.8746C129.122 53.0972 128.558 53.2085 127.848 53.2085C126.968 53.2085 126.177 53.0001 125.476 52.5835C124.78 52.1668 124.228 51.5607 123.821 50.7653C123.419 49.9698 123.218 49.0039 123.218 47.8675C123.218 46.7501 123.414 45.7771 123.807 44.9485C124.2 44.1152 124.747 43.4712 125.448 43.0167C126.148 42.5574 126.958 42.3278 127.877 42.3278C128.587 42.3278 129.15 42.4461 129.567 42.6829C129.988 42.9149 130.31 43.18 130.533 43.4783C130.76 43.7719 130.935 44.0134 131.058 44.2028H131.229V42.4698H132.848V53.6914C132.848 54.6289 132.635 55.3912 132.209 55.9783C131.788 56.5702 131.219 57.0034 130.504 57.2781C129.794 57.5574 129.004 57.6971 128.132 57.6971ZM128.076 51.7028C128.748 51.7028 129.316 51.5489 129.78 51.2411C130.244 50.9334 130.597 50.4906 130.838 49.913C131.08 49.3353 131.201 48.6441 131.201 47.8391C131.201 47.0531 131.082 46.3595 130.845 45.7582C130.609 45.1568 130.258 44.6857 129.794 44.3448C129.33 44.0039 128.757 43.8335 128.076 43.8335C127.365 43.8335 126.773 44.0134 126.3 44.3732C125.831 44.7331 125.478 45.216 125.242 45.8221C125.01 46.4281 124.894 47.1005 124.894 47.8391C124.894 48.5967 125.012 49.2667 125.249 49.8491C125.49 50.4267 125.845 50.8813 126.314 51.2127C126.788 51.5394 127.375 51.7028 128.076 51.7028ZM137.593 38.8335V53.3789H135.916V38.8335H137.593ZM145.236 53.6062C144.185 53.6062 143.279 53.3742 142.516 52.9102C141.759 52.4414 141.174 51.788 140.762 50.9499C140.355 50.1071 140.151 49.127 140.151 48.0096C140.151 46.8922 140.355 45.9073 140.762 45.055C141.174 44.198 141.747 43.5304 142.481 43.0522C143.219 42.5692 144.081 42.3278 145.066 42.3278C145.634 42.3278 146.195 42.4225 146.749 42.6119C147.303 42.8013 147.807 43.109 148.262 43.5352C148.716 43.9566 149.079 44.5153 149.349 45.2113C149.618 45.9073 149.753 46.7643 149.753 47.7823V48.4925H141.344V47.0437H148.049C148.049 46.4281 147.926 45.8789 147.68 45.396C147.438 44.913 147.092 44.5318 146.643 44.2525C146.198 43.9731 145.672 43.8335 145.066 43.8335C144.398 43.8335 143.821 43.9992 143.333 44.3306C142.85 44.6573 142.478 45.0835 142.218 45.609C141.957 46.1346 141.827 46.698 141.827 47.2994V48.2653C141.827 49.0891 141.969 49.7875 142.253 50.3604C142.542 50.9286 142.942 51.3619 143.454 51.6602C143.965 51.9537 144.559 52.1005 145.236 52.1005C145.677 52.1005 146.074 52.0389 146.43 51.9158C146.789 51.788 147.1 51.5986 147.36 51.3477C147.62 51.092 147.822 50.7747 147.964 50.396L149.583 50.8505C149.413 51.3997 149.126 51.8827 148.724 52.2994C148.321 52.7113 147.824 53.0333 147.232 53.2653C146.64 53.4925 145.975 53.6062 145.236 53.6062ZM158.155 53.3789V38.8335H163.07C164.211 38.8335 165.144 39.0394 165.868 39.4513C166.598 39.8585 167.137 40.4102 167.488 41.1062C167.838 41.8022 168.013 42.5787 168.013 43.4357C168.013 44.2927 167.838 45.0716 167.488 45.7724C167.142 46.4731 166.607 47.0318 165.883 47.4485C165.158 47.8604 164.23 48.0664 163.099 48.0664H159.576V46.5039H163.042C163.823 46.5039 164.45 46.369 164.924 46.0991C165.397 45.8292 165.741 45.4646 165.954 45.0053C166.172 44.5413 166.28 44.0181 166.28 43.4357C166.28 42.8533 166.172 42.3325 165.954 41.8732C165.741 41.4139 165.395 41.0541 164.917 40.7937C164.439 40.5285 163.804 40.396 163.013 40.396H159.917V53.3789H158.155ZM172.3 38.8335V53.3789H170.623V38.8335H172.3ZM178.58 53.6346C177.888 53.6346 177.261 53.5044 176.698 53.244C176.134 52.9788 175.687 52.5977 175.355 52.1005C175.024 51.5986 174.858 50.9925 174.858 50.2823C174.858 49.6573 174.981 49.1507 175.227 48.7624C175.474 48.3694 175.803 48.0617 176.215 47.8391C176.627 47.6166 177.081 47.4509 177.578 47.342C178.08 47.2283 178.585 47.1384 179.091 47.0721C179.754 46.9869 180.291 46.9229 180.703 46.8803C181.12 46.833 181.423 46.7549 181.612 46.646C181.807 46.5371 181.904 46.3477 181.904 46.0778V46.021C181.904 45.3202 181.712 44.7757 181.328 44.3874C180.95 43.9992 180.374 43.805 179.602 43.805C178.802 43.805 178.175 43.9802 177.72 44.3306C177.266 44.681 176.946 45.055 176.762 45.4528L175.171 44.8846C175.455 44.2217 175.834 43.7056 176.307 43.3363C176.785 42.9622 177.306 42.7018 177.87 42.555C178.438 42.4035 178.996 42.3278 179.546 42.3278C179.896 42.3278 180.299 42.3704 180.753 42.4556C181.212 42.5361 181.655 42.7042 182.081 42.9599C182.512 43.2156 182.87 43.6014 183.154 44.1175C183.438 44.6336 183.58 45.3249 183.58 46.1914V53.3789H181.904V51.9016H181.818C181.705 52.1384 181.515 52.3917 181.25 52.6616C180.985 52.9315 180.632 53.1611 180.192 53.3505C179.752 53.5399 179.214 53.6346 178.58 53.6346ZM178.835 52.1289C179.498 52.1289 180.057 51.9987 180.512 51.7383C180.971 51.4779 181.317 51.1417 181.549 50.7298C181.785 50.3178 181.904 49.8846 181.904 49.43V47.896C181.833 47.9812 181.676 48.0593 181.435 48.1303C181.198 48.1966 180.924 48.2558 180.611 48.3079C180.303 48.3552 180.003 48.3978 179.709 48.4357C179.42 48.4689 179.186 48.4973 179.006 48.521C178.57 48.5778 178.163 48.6701 177.784 48.7979C177.41 48.921 177.107 49.1081 176.875 49.359C176.648 49.6052 176.534 49.9414 176.534 50.3675C176.534 50.9499 176.75 51.3903 177.181 51.6886C177.616 51.9821 178.168 52.1289 178.835 52.1289ZM187.328 57.4698C187.044 57.4698 186.791 57.4461 186.568 57.3988C186.346 57.3562 186.192 57.3136 186.106 57.271L186.533 55.7937C186.94 55.8978 187.3 55.9357 187.612 55.9073C187.925 55.8789 188.202 55.7392 188.443 55.4883C188.689 55.2421 188.914 54.842 189.118 54.288L189.43 53.4357L185.396 42.4698H187.214L190.226 51.163H190.339L193.351 42.4698H195.169L190.538 54.9698C190.33 55.5333 190.072 55.9996 189.764 56.369C189.456 56.743 189.099 57.02 188.692 57.1999C188.289 57.3799 187.835 57.4698 187.328 57.4698Z" fill="white"/>
</svg>
