<svg width="501" height="79" viewBox="0 0 501 79" fill="none" xmlns="http://www.w3.org/2000/svg">
<rect width="229.473" height="78" rx="11.3077" fill="#68A4F9"/>
<rect x="270.92" width="229.473" height="78.2115" rx="11.3077" fill="#68A4F9"/>
<path d="M30.3271 56.8396V20.5416C30.3274 20.4628 30.3511 20.3859 30.3954 20.3204C30.4397 20.255 30.5025 20.2039 30.576 20.1736C30.6495 20.1434 30.7304 20.1352 30.8085 20.1502C30.8866 20.1652 30.9586 20.2027 31.0153 20.258L50.1211 38.6897L31.0153 57.1232C30.9586 57.1785 30.8866 57.216 30.8085 57.231C30.7304 57.246 30.6495 57.2378 30.576 57.2076C30.5025 57.1773 30.4397 57.1262 30.3954 57.0607C30.3511 56.9953 30.3274 56.9184 30.3271 56.8396ZM58.132 46.2633L34.1758 59.3195L34.1608 59.3278C33.7481 59.5495 33.356 58.9972 33.694 58.6758L52.473 40.9128L58.132 46.2633ZM33.6959 18.7036C33.356 18.3822 33.7481 17.8298 34.1627 18.0515L34.1776 18.0598L58.132 31.116L52.473 36.4684L33.6959 18.7036ZM67.8031 40.9987L61.1133 44.6433L54.8231 38.6897L61.1133 32.7388L67.8031 36.3806C69.6228 37.3754 69.6228 40.004 67.8031 40.9987Z" fill="white"/>
<path d="M90.4871 24.3789C90.3933 24.092 90.2698 23.8349 90.1163 23.6076C89.9658 23.3775 89.7854 23.1815 89.5752 23.0195C89.3678 22.8576 89.132 22.734 88.8678 22.6488C88.6036 22.5636 88.3138 22.521 87.9984 22.521C87.4814 22.521 87.0112 22.6545 86.5879 22.9215C86.1646 23.1886 85.828 23.582 85.578 24.1019C85.328 24.6218 85.203 25.2596 85.203 26.0153C85.203 26.771 85.3294 27.4087 85.5823 27.9286C85.8351 28.4485 86.1774 28.842 86.6092 29.109C87.0411 29.3761 87.5269 29.5096 88.0666 29.5096C88.5666 29.5096 89.007 29.4031 89.3877 29.19C89.7712 28.9741 90.0695 28.6701 90.2825 28.2781C90.4984 27.8832 90.6064 27.4187 90.6064 26.8846L90.9303 26.9528H88.3053V26.0153H91.6291V26.9528C91.6291 27.6715 91.4757 28.2965 91.1689 28.8278C90.8649 29.359 90.4445 29.771 89.9075 30.0636C89.3734 30.3533 88.7598 30.4982 88.0666 30.4982C87.2939 30.4982 86.6149 30.3164 86.0297 29.9528C85.4473 29.5891 84.9928 29.0721 84.6661 28.4016C84.3422 27.7312 84.1803 26.9357 84.1803 26.0153C84.1803 25.3249 84.2726 24.7042 84.4573 24.1531C84.6448 23.5991 84.909 23.1275 85.2499 22.7383C85.5908 22.3491 85.9942 22.0508 86.4601 21.8434C86.926 21.636 87.4388 21.5323 87.9984 21.5323C88.4587 21.5323 88.8877 21.6019 89.2854 21.7411C89.6859 21.8775 90.0425 22.0721 90.355 22.3249C90.6703 22.5749 90.9331 22.8746 91.1433 23.2241C91.3536 23.5707 91.4984 23.9556 91.578 24.3789H90.4871ZM96.0471 30.5153C95.4164 30.5153 94.8724 30.3761 94.415 30.0977C93.9604 29.8164 93.6096 29.4244 93.3624 28.9215C93.1181 28.4158 92.996 27.8278 92.996 27.1573C92.996 26.4869 93.1181 25.896 93.3624 25.3846C93.6096 24.8704 93.9533 24.4698 94.3937 24.1829C94.8369 23.8931 95.3539 23.7482 95.9448 23.7482C96.2857 23.7482 96.6224 23.805 96.9548 23.9187C97.2872 24.0323 97.5897 24.217 97.8624 24.4727C98.1352 24.7255 98.3525 25.0607 98.5144 25.4783C98.6764 25.896 98.7573 26.4102 98.7573 27.021V27.4471H93.7119V26.5778H97.7346C97.7346 26.2085 97.6607 25.8789 97.513 25.5891C97.3681 25.2994 97.1607 25.0707 96.8908 24.9031C96.6238 24.7354 96.3085 24.6516 95.9448 24.6516C95.5443 24.6516 95.1977 24.7511 94.9051 24.9499C94.6153 25.146 94.3923 25.4016 94.236 25.717C94.0798 26.0323 94.0016 26.3704 94.0016 26.7312V27.3107C94.0016 27.805 94.0869 28.2241 94.2573 28.5678C94.4306 28.9087 94.6707 29.1687 94.9775 29.3477C95.2843 29.5238 95.6408 29.6119 96.0471 29.6119C96.3113 29.6119 96.5499 29.5749 96.763 29.5011C96.9789 29.4244 97.165 29.3107 97.3212 29.1602C97.4775 29.0067 97.5982 28.8164 97.6835 28.5891L98.6551 28.8619C98.5528 29.1914 98.3809 29.4812 98.1394 29.7312C97.8979 29.9783 97.5997 30.1715 97.2445 30.3107C96.8894 30.4471 96.4903 30.5153 96.0471 30.5153ZM103.134 23.8335V24.6857H99.7417V23.8335H103.134ZM100.73 22.2653H101.736V28.5039C101.736 28.788 101.777 29.0011 101.86 29.1431C101.945 29.2823 102.053 29.3761 102.183 29.4244C102.317 29.4698 102.458 29.4925 102.605 29.4925C102.716 29.4925 102.807 29.4869 102.878 29.4755C102.949 29.4613 103.006 29.4499 103.049 29.4414L103.253 30.3448C103.185 30.3704 103.09 30.396 102.968 30.4215C102.845 30.4499 102.691 30.4641 102.503 30.4641C102.219 30.4641 101.941 30.4031 101.668 30.2809C101.398 30.1587 101.174 29.9727 100.995 29.7227C100.818 29.4727 100.73 29.1573 100.73 28.7766V22.2653ZM108.022 30.3789V23.8335H109.027V30.3789H108.022ZM108.533 22.7425C108.337 22.7425 108.168 22.6758 108.026 22.5423C107.887 22.4087 107.817 22.2482 107.817 22.0607C107.817 21.8732 107.887 21.7127 108.026 21.5792C108.168 21.4457 108.337 21.3789 108.533 21.3789C108.729 21.3789 108.897 21.4457 109.036 21.5792C109.178 21.7127 109.249 21.8732 109.249 22.0607C109.249 22.2482 109.178 22.4087 109.036 22.5423C108.897 22.6758 108.729 22.7425 108.533 22.7425ZM113.716 23.8335V24.6857H110.324V23.8335H113.716ZM111.312 22.2653H112.318V28.5039C112.318 28.788 112.359 29.0011 112.442 29.1431C112.527 29.2823 112.635 29.3761 112.765 29.4244C112.899 29.4698 113.04 29.4925 113.187 29.4925C113.298 29.4925 113.389 29.4869 113.46 29.4755C113.531 29.4613 113.588 29.4499 113.631 29.4414L113.835 30.3448C113.767 30.3704 113.672 30.396 113.55 30.4215C113.427 30.4499 113.273 30.4641 113.085 30.4641C112.801 30.4641 112.523 30.4031 112.25 30.2809C111.98 30.1587 111.756 29.9727 111.577 29.7227C111.4 29.4727 111.312 29.1573 111.312 28.7766V22.2653ZM121.263 30.5153C120.672 30.5153 120.153 30.3746 119.707 30.0934C119.264 29.8121 118.917 29.4187 118.667 28.913C118.42 28.4073 118.297 27.8164 118.297 27.1403C118.297 26.4585 118.42 25.8633 118.667 25.3548C118.917 24.8462 119.264 24.4513 119.707 24.1701C120.153 23.8888 120.672 23.7482 121.263 23.7482C121.854 23.7482 122.371 23.8888 122.814 24.1701C123.26 24.4513 123.606 24.8462 123.854 25.3548C124.104 25.8633 124.229 26.4585 124.229 27.1403C124.229 27.8164 124.104 28.4073 123.854 28.913C123.606 29.4187 123.26 29.8121 122.814 30.0934C122.371 30.3746 121.854 30.5153 121.263 30.5153ZM121.263 29.6119C121.712 29.6119 122.081 29.4968 122.371 29.2667C122.66 29.0366 122.875 28.734 123.014 28.359C123.153 27.984 123.223 27.5778 123.223 27.1403C123.223 26.7028 123.153 26.2951 123.014 25.9173C122.875 25.5394 122.66 25.234 122.371 25.0011C122.081 24.7681 121.712 24.6516 121.263 24.6516C120.814 24.6516 120.444 24.7681 120.155 25.0011C119.865 25.234 119.65 25.5394 119.511 25.9173C119.372 26.2951 119.302 26.7028 119.302 27.1403C119.302 27.5778 119.372 27.984 119.511 28.359C119.65 28.734 119.865 29.0366 120.155 29.2667C120.444 29.4968 120.814 29.6119 121.263 29.6119ZM126.769 26.4414V30.3789H125.764V23.8335H126.735V24.8562H126.821C126.974 24.5238 127.207 24.2567 127.519 24.055C127.832 23.8505 128.235 23.7482 128.73 23.7482C129.173 23.7482 129.561 23.8391 129.893 24.021C130.225 24.1999 130.484 24.4727 130.669 24.8391C130.853 25.2028 130.946 25.663 130.946 26.2198V30.3789H129.94V26.288C129.94 25.7738 129.806 25.3732 129.539 25.0863C129.272 24.7965 128.906 24.6516 128.44 24.6516C128.119 24.6516 127.832 24.7212 127.579 24.8604C127.329 24.9996 127.132 25.2028 126.987 25.4698C126.842 25.7369 126.769 26.0607 126.769 26.4414Z" fill="white"/>
<path d="M95.1689 43.3789C95.0127 42.9007 94.8067 42.4722 94.551 42.0934C94.3001 41.7099 93.9994 41.3832 93.649 41.1133C93.3034 40.8434 92.9104 40.6374 92.47 40.4954C92.0297 40.3533 91.5467 40.2823 91.0212 40.2823C90.1594 40.2823 89.3758 40.5049 88.6703 40.9499C87.9648 41.395 87.4037 42.0508 86.9871 42.9173C86.5704 43.7837 86.3621 44.8467 86.3621 46.1062C86.3621 47.3656 86.5728 48.4286 86.9942 49.2951C87.4156 50.1616 87.9861 50.8174 88.7058 51.2624C89.4255 51.7075 90.2352 51.93 91.1348 51.93C91.9681 51.93 92.702 51.7525 93.3365 51.3974C93.9757 51.0375 94.4729 50.5309 94.828 49.8775C95.1878 49.2193 95.3678 48.4452 95.3678 47.555L95.9075 47.6687H91.5325V46.1062H97.0723V47.6687C97.0723 48.8666 96.8166 49.9083 96.3053 50.7937C95.7986 51.6791 95.0979 52.3656 94.203 52.8533C93.3128 53.3363 92.2901 53.5778 91.1348 53.5778C89.8469 53.5778 88.7153 53.2747 87.7399 52.6687C86.7693 52.0626 86.0117 51.2009 85.4672 50.0835C84.9274 48.966 84.6575 47.6403 84.6575 46.1062C84.6575 44.9556 84.8114 43.921 85.1192 43.0025C85.4317 42.0792 85.872 41.2932 86.4402 40.6445C87.0084 39.9959 87.6807 39.4987 88.4573 39.1531C89.2338 38.8074 90.0884 38.6346 91.0212 38.6346C91.7882 38.6346 92.5032 38.7506 93.1661 38.9826C93.8337 39.2099 94.4279 39.5342 94.9487 39.9556C95.4743 40.3723 95.9123 40.8718 96.2627 41.4542C96.613 42.0318 96.8545 42.6734 96.9871 43.3789H95.1689ZM104.294 53.6062C103.309 53.6062 102.445 53.3718 101.701 52.9031C100.963 52.4343 100.385 51.7785 99.9683 50.9357C99.5563 50.0929 99.3504 49.1081 99.3504 47.9812C99.3504 46.8448 99.5563 45.8529 99.9683 45.0053C100.385 44.1578 100.963 43.4996 101.701 43.0309C102.445 42.5621 103.309 42.3278 104.294 42.3278C105.278 42.3278 106.14 42.5621 106.879 43.0309C107.622 43.4996 108.2 44.1578 108.612 45.0053C109.028 45.8529 109.237 46.8448 109.237 47.9812C109.237 49.1081 109.028 50.0929 108.612 50.9357C108.2 51.7785 107.622 52.4343 106.879 52.9031C106.14 53.3718 105.278 53.6062 104.294 53.6062ZM104.294 52.1005C105.042 52.1005 105.657 51.9087 106.14 51.5252C106.623 51.1417 106.981 50.6374 107.213 50.0124C107.445 49.3874 107.561 48.7103 107.561 47.9812C107.561 47.252 107.445 46.5726 107.213 45.9428C106.981 45.3131 106.623 44.8041 106.14 44.4158C105.657 44.0276 105.042 43.8335 104.294 43.8335C103.545 43.8335 102.93 44.0276 102.447 44.4158C101.964 44.8041 101.607 45.3131 101.375 45.9428C101.143 46.5726 101.027 47.252 101.027 47.9812C101.027 48.7103 101.143 49.3874 101.375 50.0124C101.607 50.6374 101.964 51.1417 102.447 51.5252C102.93 51.9087 103.545 52.1005 104.294 52.1005ZM116.227 53.6062C115.242 53.6062 114.378 53.3718 113.635 52.9031C112.896 52.4343 112.319 51.7785 111.902 50.9357C111.49 50.0929 111.284 49.1081 111.284 47.9812C111.284 46.8448 111.49 45.8529 111.902 45.0053C112.319 44.1578 112.896 43.4996 113.635 43.0309C114.378 42.5621 115.242 42.3278 116.227 42.3278C117.212 42.3278 118.074 42.5621 118.812 43.0309C119.556 43.4996 120.133 44.1578 120.545 45.0053C120.962 45.8529 121.17 46.8448 121.17 47.9812C121.17 49.1081 120.962 50.0929 120.545 50.9357C120.133 51.7785 119.556 52.4343 118.812 52.9031C118.074 53.3718 117.212 53.6062 116.227 53.6062ZM116.227 52.1005C116.975 52.1005 117.591 51.9087 118.074 51.5252C118.557 51.1417 118.914 50.6374 119.146 50.0124C119.378 49.3874 119.494 48.7103 119.494 47.9812C119.494 47.252 119.378 46.5726 119.146 45.9428C118.914 45.3131 118.557 44.8041 118.074 44.4158C117.591 44.0276 116.975 43.8335 116.227 43.8335C115.479 43.8335 114.864 44.0276 114.381 44.4158C113.898 44.8041 113.54 45.3131 113.308 45.9428C113.076 46.5726 112.96 47.252 112.96 47.9812C112.96 48.7103 113.076 49.3874 113.308 50.0124C113.54 50.6374 113.898 51.1417 114.381 51.5252C114.864 51.9087 115.479 52.1005 116.227 52.1005ZM128.132 57.6971C127.323 57.6971 126.627 57.5929 126.044 57.3846C125.462 57.181 124.977 56.9111 124.588 56.5749C124.205 56.2435 123.899 55.8884 123.672 55.5096L125.007 54.5721C125.159 54.771 125.351 54.9982 125.583 55.2539C125.815 55.5143 126.132 55.7392 126.534 55.9286C126.942 56.1228 127.474 56.2198 128.132 56.2198C129.013 56.2198 129.74 56.0067 130.313 55.5806C130.886 55.1545 131.172 54.4869 131.172 53.5778V51.3619H131.03C130.907 51.5607 130.732 51.8069 130.504 52.1005C130.282 52.3893 129.96 52.6474 129.539 52.8746C129.122 53.0972 128.558 53.2085 127.848 53.2085C126.968 53.2085 126.177 53.0001 125.476 52.5835C124.78 52.1668 124.228 51.5607 123.821 50.7653C123.419 49.9698 123.218 49.0039 123.218 47.8675C123.218 46.7501 123.414 45.7771 123.807 44.9485C124.2 44.1152 124.747 43.4712 125.448 43.0167C126.148 42.5574 126.958 42.3278 127.877 42.3278C128.587 42.3278 129.15 42.4461 129.567 42.6829C129.988 42.9149 130.31 43.18 130.533 43.4783C130.76 43.7719 130.935 44.0134 131.058 44.2028H131.229V42.4698H132.848V53.6914C132.848 54.6289 132.635 55.3912 132.209 55.9783C131.788 56.5702 131.219 57.0034 130.504 57.2781C129.794 57.5574 129.004 57.6971 128.132 57.6971ZM128.076 51.7028C128.748 51.7028 129.316 51.5489 129.78 51.2411C130.244 50.9334 130.597 50.4906 130.838 49.913C131.08 49.3353 131.201 48.6441 131.201 47.8391C131.201 47.0531 131.082 46.3595 130.845 45.7582C130.609 45.1568 130.258 44.6857 129.794 44.3448C129.33 44.0039 128.757 43.8335 128.076 43.8335C127.365 43.8335 126.773 44.0134 126.3 44.3732C125.831 44.7331 125.478 45.216 125.242 45.8221C125.01 46.4281 124.894 47.1005 124.894 47.8391C124.894 48.5967 125.012 49.2667 125.249 49.8491C125.49 50.4267 125.845 50.8813 126.314 51.2127C126.788 51.5394 127.375 51.7028 128.076 51.7028ZM137.593 38.8335V53.3789H135.916V38.8335H137.593ZM145.236 53.6062C144.185 53.6062 143.279 53.3742 142.516 52.9102C141.759 52.4414 141.174 51.788 140.762 50.9499C140.355 50.1071 140.151 49.127 140.151 48.0096C140.151 46.8922 140.355 45.9073 140.762 45.055C141.174 44.198 141.747 43.5304 142.481 43.0522C143.219 42.5692 144.081 42.3278 145.066 42.3278C145.634 42.3278 146.195 42.4225 146.749 42.6119C147.303 42.8013 147.807 43.109 148.262 43.5352C148.716 43.9566 149.079 44.5153 149.349 45.2113C149.618 45.9073 149.753 46.7643 149.753 47.7823V48.4925H141.344V47.0437H148.049C148.049 46.4281 147.926 45.8789 147.68 45.396C147.438 44.913 147.092 44.5318 146.643 44.2525C146.198 43.9731 145.672 43.8335 145.066 43.8335C144.398 43.8335 143.821 43.9992 143.333 44.3306C142.85 44.6573 142.478 45.0835 142.218 45.609C141.957 46.1346 141.827 46.698 141.827 47.2994V48.2653C141.827 49.0891 141.969 49.7875 142.253 50.3604C142.542 50.9286 142.942 51.3619 143.454 51.6602C143.965 51.9537 144.559 52.1005 145.236 52.1005C145.677 52.1005 146.074 52.0389 146.43 51.9158C146.789 51.788 147.1 51.5986 147.36 51.3477C147.62 51.092 147.822 50.7747 147.964 50.396L149.583 50.8505C149.413 51.3997 149.126 51.8827 148.724 52.2994C148.321 52.7113 147.824 53.0333 147.232 53.2653C146.64 53.4925 145.975 53.6062 145.236 53.6062ZM158.155 53.3789V38.8335H163.07C164.211 38.8335 165.144 39.0394 165.868 39.4513C166.598 39.8585 167.137 40.4102 167.488 41.1062C167.838 41.8022 168.013 42.5787 168.013 43.4357C168.013 44.2927 167.838 45.0716 167.488 45.7724C167.142 46.4731 166.607 47.0318 165.883 47.4485C165.158 47.8604 164.23 48.0664 163.099 48.0664H159.576V46.5039H163.042C163.823 46.5039 164.45 46.369 164.924 46.0991C165.397 45.8292 165.741 45.4646 165.954 45.0053C166.172 44.5413 166.28 44.0181 166.28 43.4357C166.28 42.8533 166.172 42.3325 165.954 41.8732C165.741 41.4139 165.395 41.0541 164.917 40.7937C164.439 40.5285 163.804 40.396 163.013 40.396H159.917V53.3789H158.155ZM172.3 38.8335V53.3789H170.623V38.8335H172.3ZM178.58 53.6346C177.888 53.6346 177.261 53.5044 176.698 53.244C176.134 52.9788 175.687 52.5977 175.355 52.1005C175.024 51.5986 174.858 50.9925 174.858 50.2823C174.858 49.6573 174.981 49.1507 175.227 48.7624C175.474 48.3694 175.803 48.0617 176.215 47.8391C176.627 47.6166 177.081 47.4509 177.578 47.342C178.08 47.2283 178.585 47.1384 179.091 47.0721C179.754 46.9869 180.291 46.9229 180.703 46.8803C181.12 46.833 181.423 46.7549 181.612 46.646C181.807 46.5371 181.904 46.3477 181.904 46.0778V46.021C181.904 45.3202 181.712 44.7757 181.328 44.3874C180.95 43.9992 180.374 43.805 179.602 43.805C178.802 43.805 178.175 43.9802 177.72 44.3306C177.266 44.681 176.946 45.055 176.762 45.4528L175.171 44.8846C175.455 44.2217 175.834 43.7056 176.307 43.3363C176.785 42.9622 177.306 42.7018 177.87 42.555C178.438 42.4035 178.996 42.3278 179.546 42.3278C179.896 42.3278 180.299 42.3704 180.753 42.4556C181.212 42.5361 181.655 42.7042 182.081 42.9599C182.512 43.2156 182.87 43.6014 183.154 44.1175C183.438 44.6336 183.58 45.3249 183.58 46.1914V53.3789H181.904V51.9016H181.818C181.705 52.1384 181.515 52.3917 181.25 52.6616C180.985 52.9315 180.632 53.1611 180.192 53.3505C179.752 53.5399 179.214 53.6346 178.58 53.6346ZM178.835 52.1289C179.498 52.1289 180.057 51.9987 180.512 51.7383C180.971 51.4779 181.317 51.1417 181.549 50.7298C181.785 50.3178 181.904 49.8846 181.904 49.43V47.896C181.833 47.9812 181.676 48.0593 181.435 48.1303C181.198 48.1966 180.924 48.2558 180.611 48.3079C180.303 48.3552 180.003 48.3978 179.709 48.4357C179.42 48.4689 179.186 48.4973 179.006 48.521C178.57 48.5778 178.163 48.6701 177.784 48.7979C177.41 48.921 177.107 49.1081 176.875 49.359C176.648 49.6052 176.534 49.9414 176.534 50.3675C176.534 50.9499 176.75 51.3903 177.181 51.6886C177.616 51.9821 178.168 52.1289 178.835 52.1289ZM187.328 57.4698C187.044 57.4698 186.791 57.4461 186.568 57.3988C186.346 57.3562 186.192 57.3136 186.106 57.271L186.533 55.7937C186.94 55.8978 187.3 55.9357 187.612 55.9073C187.925 55.8789 188.202 55.7392 188.443 55.4883C188.689 55.2421 188.914 54.842 189.118 54.288L189.43 53.4357L185.396 42.4698H187.214L190.226 51.163H190.339L193.351 42.4698H195.169L190.538 54.9698C190.33 55.5333 190.072 55.9996 189.764 56.369C189.456 56.743 189.099 57.02 188.692 57.1999C188.289 57.3799 187.835 57.4698 187.328 57.4698Z" fill="white"/>
<path d="M339.378 49.1556C338.704 51.2925 337.641 53.4294 336.189 55.5662C333.96 58.9169 331.739 60.5922 329.527 60.5922C328.681 60.5922 327.471 60.3187 325.898 59.7716C324.412 59.2246 323.107 58.9511 321.984 58.9511C320.93 58.9511 319.703 59.2331 318.303 59.7973C316.903 60.3785 315.763 60.6691 314.882 60.6691C312.255 60.6691 309.654 58.4553 307.079 54.0277C304.539 49.5659 303.269 45.2665 303.269 41.1295C303.269 37.2319 304.245 34.0351 306.198 31.5392C308.151 29.0776 310.604 27.8467 313.56 27.8467C314.804 27.8467 316.333 28.1031 318.148 28.616C319.945 29.1288 321.137 29.3853 321.725 29.3853C322.503 29.3853 323.738 29.0947 325.432 28.5134C327.194 27.9322 328.689 27.6416 329.916 27.6416C331.973 27.6416 333.813 28.1972 335.438 29.3083C336.336 29.9238 337.235 30.7785 338.133 31.8726C336.768 33.018 335.783 34.0266 335.178 34.8984C334.055 36.5053 333.493 38.2747 333.493 40.2064C333.493 42.3262 334.09 44.2323 335.282 45.9247C336.474 47.6171 337.84 48.6941 339.378 49.1556ZM329.631 19.077C329.631 20.1198 329.381 21.2822 328.879 22.5644C328.361 23.8465 327.557 25.026 326.469 26.103C325.535 27.0262 324.602 27.6416 323.669 27.9493C323.03 28.1373 322.131 28.2826 320.973 28.3852C321.025 25.8381 321.699 23.6413 322.995 21.7951C324.274 19.9659 326.434 18.7009 329.476 18C329.493 18.0513 329.514 18.1453 329.54 18.2821C329.566 18.4188 329.588 18.5128 329.605 18.5641C329.605 18.6325 329.609 18.718 329.618 18.8206C329.627 18.9231 329.631 19.0086 329.631 19.077Z" fill="#DDDDDD"/>
<path d="M360.447 33H357.754V24.2727H360.566C361.413 24.2727 362.137 24.4474 362.739 24.7969C363.342 25.1435 363.803 25.642 364.124 26.2926C364.445 26.9403 364.606 27.7159 364.606 28.6193C364.606 29.5284 364.444 30.3111 364.12 30.9673C363.796 31.6207 363.325 32.1236 362.705 32.4759C362.086 32.8253 361.333 33 360.447 33ZM358.81 32.0625H360.379C361.1 32.0625 361.698 31.9233 362.173 31.6449C362.647 31.3665 363.001 30.9702 363.234 30.456C363.467 29.9418 363.583 29.3295 363.583 28.6193C363.583 27.9148 363.468 27.3082 363.238 26.7997C363.008 26.2884 362.664 25.8963 362.207 25.6236C361.749 25.348 361.18 25.2102 360.498 25.2102H358.81V32.0625ZM368.901 33.1364C368.31 33.1364 367.792 32.9957 367.346 32.7145C366.903 32.4332 366.556 32.0398 366.306 31.5341C366.059 31.0284 365.935 30.4375 365.935 29.7614C365.935 29.0795 366.059 28.4844 366.306 27.9759C366.556 27.4673 366.903 27.0724 367.346 26.7912C367.792 26.5099 368.31 26.3693 368.901 26.3693C369.492 26.3693 370.009 26.5099 370.452 26.7912C370.898 27.0724 371.245 27.4673 371.492 27.9759C371.742 28.4844 371.867 29.0795 371.867 29.7614C371.867 30.4375 371.742 31.0284 371.492 31.5341C371.245 32.0398 370.898 32.4332 370.452 32.7145C370.009 32.9957 369.492 33.1364 368.901 33.1364ZM368.901 32.233C369.35 32.233 369.72 32.1179 370.009 31.8878C370.299 31.6577 370.514 31.3551 370.653 30.9801C370.792 30.6051 370.862 30.1989 370.862 29.7614C370.862 29.3239 370.792 28.9162 370.653 28.5384C370.514 28.1605 370.299 27.8551 370.009 27.6222C369.72 27.3892 369.35 27.2727 368.901 27.2727C368.452 27.2727 368.083 27.3892 367.793 27.6222C367.504 27.8551 367.289 28.1605 367.15 28.5384C367.011 28.9162 366.941 29.3239 366.941 29.7614C366.941 30.1989 367.011 30.6051 367.15 30.9801C367.289 31.3551 367.504 31.6577 367.793 31.8878C368.083 32.1179 368.452 32.233 368.901 32.233ZM374.663 33L372.668 26.4545H373.725L375.14 31.4659H375.208L376.606 26.4545H377.68L379.06 31.4489H379.129L380.543 26.4545H381.6L379.606 33H378.617L377.185 27.9716H377.083L375.651 33H374.663ZM383.935 29.0625V33H382.93V26.4545H383.901V27.4773H383.987C384.14 27.1449 384.373 26.8778 384.685 26.6761C384.998 26.4716 385.401 26.3693 385.896 26.3693C386.339 26.3693 386.727 26.4602 387.059 26.642C387.391 26.821 387.65 27.0938 387.835 27.4602C388.019 27.8239 388.112 28.2841 388.112 28.8409V33H387.106V28.9091C387.106 28.3949 386.972 27.9943 386.705 27.7074C386.438 27.4176 386.072 27.2727 385.606 27.2727C385.285 27.2727 384.998 27.3423 384.745 27.4815C384.495 27.6207 384.298 27.8239 384.153 28.0909C384.008 28.358 383.935 28.6818 383.935 29.0625ZM390.955 24.2727V33H389.949V24.2727H390.955ZM395.456 33.1364C394.865 33.1364 394.347 32.9957 393.901 32.7145C393.457 32.4332 393.111 32.0398 392.861 31.5341C392.614 31.0284 392.49 30.4375 392.49 29.7614C392.49 29.0795 392.614 28.4844 392.861 27.9759C393.111 27.4673 393.457 27.0724 393.901 26.7912C394.347 26.5099 394.865 26.3693 395.456 26.3693C396.047 26.3693 396.564 26.5099 397.007 26.7912C397.453 27.0724 397.8 27.4673 398.047 27.9759C398.297 28.4844 398.422 29.0795 398.422 29.7614C398.422 30.4375 398.297 31.0284 398.047 31.5341C397.8 32.0398 397.453 32.4332 397.007 32.7145C396.564 32.9957 396.047 33.1364 395.456 33.1364ZM395.456 32.233C395.905 32.233 396.274 32.1179 396.564 31.8878C396.854 31.6577 397.068 31.3551 397.207 30.9801C397.347 30.6051 397.416 30.1989 397.416 29.7614C397.416 29.3239 397.347 28.9162 397.207 28.5384C397.068 28.1605 396.854 27.8551 396.564 27.6222C396.274 27.3892 395.905 27.2727 395.456 27.2727C395.007 27.2727 394.638 27.3892 394.348 27.6222C394.058 27.8551 393.844 28.1605 393.705 28.5384C393.565 28.9162 393.496 29.3239 393.496 29.7614C393.496 30.1989 393.565 30.6051 393.705 30.9801C393.844 31.3551 394.058 31.6577 394.348 31.8878C394.638 32.1179 395.007 32.233 395.456 32.233ZM401.883 33.1534C401.468 33.1534 401.092 33.0753 400.754 32.919C400.416 32.7599 400.147 32.5312 399.949 32.233C399.75 31.9318 399.65 31.5682 399.65 31.142C399.65 30.767 399.724 30.4631 399.872 30.2301C400.02 29.9943 400.217 29.8097 400.464 29.6761C400.711 29.5426 400.984 29.4432 401.282 29.3778C401.583 29.3097 401.886 29.2557 402.19 29.2159C402.588 29.1648 402.91 29.1264 403.157 29.1009C403.407 29.0724 403.589 29.0256 403.703 28.9602C403.819 28.8949 403.878 28.7812 403.878 28.6193V28.5852C403.878 28.1648 403.762 27.8381 403.532 27.6051C403.305 27.3722 402.96 27.2557 402.497 27.2557C402.017 27.2557 401.64 27.3608 401.368 27.571C401.095 27.7812 400.903 28.0057 400.792 28.2443L399.838 27.9034C400.008 27.5057 400.235 27.196 400.52 26.9744C400.807 26.75 401.119 26.5937 401.457 26.5057C401.798 26.4148 402.133 26.3693 402.463 26.3693C402.673 26.3693 402.914 26.3949 403.187 26.446C403.463 26.4943 403.728 26.5952 403.984 26.7486C404.243 26.902 404.457 27.1335 404.628 27.4432C404.798 27.7528 404.883 28.1676 404.883 28.6875V33H403.878V32.1136H403.826C403.758 32.2557 403.645 32.4077 403.485 32.5696C403.326 32.7315 403.115 32.8693 402.851 32.983C402.586 33.0966 402.264 33.1534 401.883 33.1534ZM402.037 32.25C402.434 32.25 402.77 32.1719 403.042 32.0156C403.318 31.8594 403.525 31.6577 403.664 31.4105C403.807 31.1634 403.878 30.9034 403.878 30.6307V29.7102C403.835 29.7614 403.741 29.8082 403.596 29.8509C403.454 29.8906 403.289 29.9261 403.102 29.9574C402.917 29.9858 402.737 30.0114 402.561 30.0341C402.387 30.054 402.247 30.071 402.139 30.0852C401.878 30.1193 401.633 30.1747 401.406 30.2514C401.182 30.3253 401 30.4375 400.86 30.5881C400.724 30.7358 400.656 30.9375 400.656 31.1932C400.656 31.5426 400.785 31.8068 401.044 31.9858C401.305 32.1619 401.636 32.25 402.037 32.25ZM409.19 33.1364C408.645 33.1364 408.163 32.9986 407.746 32.723C407.328 32.4446 407.001 32.0526 406.766 31.5469C406.53 31.0384 406.412 30.4375 406.412 29.7443C406.412 29.0568 406.53 28.4602 406.766 27.9545C407.001 27.4489 407.33 27.0582 407.75 26.7827C408.17 26.5071 408.656 26.3693 409.207 26.3693C409.634 26.3693 409.97 26.4403 410.217 26.5824C410.467 26.7216 410.658 26.8807 410.788 27.0597C410.922 27.2358 411.026 27.3807 411.099 27.4943H411.185V24.2727H412.19V33H411.219V31.9943H411.099C411.026 32.1136 410.92 32.2642 410.784 32.446C410.648 32.625 410.453 32.7855 410.2 32.9276C409.947 33.0668 409.611 33.1364 409.19 33.1364ZM409.327 32.233C409.73 32.233 410.071 32.1278 410.349 31.9176C410.628 31.7045 410.84 31.4105 410.984 31.0355C411.129 30.6577 411.202 30.2216 411.202 29.7273C411.202 29.2386 411.131 28.8111 410.989 28.4446C410.847 28.0753 410.636 27.7884 410.358 27.5838C410.08 27.3764 409.736 27.2727 409.327 27.2727C408.901 27.2727 408.545 27.3821 408.261 27.6009C407.98 27.8168 407.769 28.1108 407.626 28.483C407.487 28.8523 407.418 29.267 407.418 29.7273C407.418 30.1932 407.489 30.6165 407.631 30.9972C407.776 31.375 407.989 31.6761 408.27 31.9006C408.554 32.1222 408.906 32.233 409.327 32.233ZM420.206 33.1364C419.615 33.1364 419.097 32.9957 418.651 32.7145C418.207 32.4332 417.861 32.0398 417.611 31.5341C417.364 31.0284 417.24 30.4375 417.24 29.7614C417.24 29.0795 417.364 28.4844 417.611 27.9759C417.861 27.4673 418.207 27.0724 418.651 26.7912C419.097 26.5099 419.615 26.3693 420.206 26.3693C420.797 26.3693 421.314 26.5099 421.757 26.7912C422.203 27.0724 422.55 27.4673 422.797 27.9759C423.047 28.4844 423.172 29.0795 423.172 29.7614C423.172 30.4375 423.047 31.0284 422.797 31.5341C422.55 32.0398 422.203 32.4332 421.757 32.7145C421.314 32.9957 420.797 33.1364 420.206 33.1364ZM420.206 32.233C420.655 32.233 421.024 32.1179 421.314 31.8878C421.604 31.6577 421.818 31.3551 421.957 30.9801C422.097 30.6051 422.166 30.1989 422.166 29.7614C422.166 29.3239 422.097 28.9162 421.957 28.5384C421.818 28.1605 421.604 27.8551 421.314 27.6222C421.024 27.3892 420.655 27.2727 420.206 27.2727C419.757 27.2727 419.388 27.3892 419.098 27.6222C418.808 27.8551 418.594 28.1605 418.455 28.5384C418.315 28.9162 418.246 29.3239 418.246 29.7614C418.246 30.1989 418.315 30.6051 418.455 30.9801C418.594 31.3551 418.808 31.6577 419.098 31.8878C419.388 32.1179 419.757 32.233 420.206 32.233ZM425.713 29.0625V33H424.707V26.4545H425.679V27.4773H425.764C425.917 27.1449 426.15 26.8778 426.463 26.6761C426.775 26.4716 427.179 26.3693 427.673 26.3693C428.116 26.3693 428.504 26.4602 428.836 26.642C429.169 26.821 429.427 27.0938 429.612 27.4602C429.797 27.8239 429.889 28.2841 429.889 28.8409V33H428.883V28.9091C428.883 28.3949 428.75 27.9943 428.483 27.7074C428.216 27.4176 427.849 27.2727 427.383 27.2727C427.062 27.2727 426.775 27.3423 426.522 27.4815C426.272 27.6207 426.075 27.8239 425.93 28.0909C425.785 28.358 425.713 28.6818 425.713 29.0625ZM437.948 26.4545V27.3068H434.556V26.4545H437.948ZM435.545 24.8864H436.55V31.125C436.55 31.4091 436.592 31.6222 436.674 31.7642C436.759 31.9034 436.867 31.9972 436.998 32.0455C437.131 32.0909 437.272 32.1136 437.42 32.1136C437.531 32.1136 437.621 32.108 437.693 32.0966C437.764 32.0824 437.82 32.071 437.863 32.0625L438.068 32.9659C437.999 32.9915 437.904 33.017 437.782 33.0426C437.66 33.071 437.505 33.0852 437.318 33.0852C437.033 33.0852 436.755 33.0241 436.482 32.902C436.212 32.7798 435.988 32.5938 435.809 32.3438C435.633 32.0938 435.545 31.7784 435.545 31.3977V24.8864ZM440.607 29.0625V33H439.602V24.2727H440.607V27.4773H440.693C440.846 27.1392 441.076 26.8707 441.383 26.6719C441.693 26.4702 442.104 26.3693 442.619 26.3693C443.065 26.3693 443.455 26.4588 443.791 26.6378C444.126 26.8139 444.386 27.0852 444.57 27.4517C444.758 27.8153 444.852 28.2784 444.852 28.8409V33H443.846V28.9091C443.846 28.3892 443.711 27.9872 443.441 27.7031C443.174 27.4162 442.803 27.2727 442.329 27.2727C441.999 27.2727 441.704 27.3423 441.443 27.4815C441.184 27.6207 440.979 27.8239 440.829 28.0909C440.681 28.358 440.607 28.6818 440.607 29.0625ZM449.436 33.1364C448.805 33.1364 448.261 32.9972 447.804 32.7188C447.349 32.4375 446.998 32.0455 446.751 31.5426C446.507 31.0369 446.385 30.4489 446.385 29.7784C446.385 29.108 446.507 28.517 446.751 28.0057C446.998 27.4915 447.342 27.0909 447.782 26.804C448.226 26.5142 448.743 26.3693 449.333 26.3693C449.674 26.3693 450.011 26.4261 450.343 26.5398C450.676 26.6534 450.978 26.8381 451.251 27.0938C451.524 27.3466 451.741 27.6818 451.903 28.0994C452.065 28.517 452.146 29.0312 452.146 29.642V30.0682H447.101V29.1989H451.123C451.123 28.8295 451.049 28.5 450.902 28.2102C450.757 27.9205 450.549 27.6918 450.28 27.5241C450.012 27.3565 449.697 27.2727 449.333 27.2727C448.933 27.2727 448.586 27.3722 448.294 27.571C448.004 27.767 447.781 28.0227 447.625 28.3381C447.468 28.6534 447.39 28.9915 447.39 29.3523V29.9318C447.39 30.4261 447.476 30.8452 447.646 31.1889C447.819 31.5298 448.059 31.7898 448.366 31.9688C448.673 32.1449 449.03 32.233 449.436 32.233C449.7 32.233 449.939 32.196 450.152 32.1222C450.368 32.0455 450.554 31.9318 450.71 31.7812C450.866 31.6278 450.987 31.4375 451.072 31.2102L452.044 31.483C451.941 31.8125 451.77 32.1023 451.528 32.3523C451.287 32.5994 450.988 32.7926 450.633 32.9318C450.278 33.0682 449.879 33.1364 449.436 33.1364Z" fill="white"/>
<path d="M359.055 56H357.208L362.549 41.4545H364.367L369.708 56H367.862L363.515 43.7557H363.401L359.055 56ZM359.737 50.3182H367.18V51.8807H359.737V50.3182ZM371.746 60.0909V45.0909H373.366V46.8239H373.565C373.688 46.6345 373.858 46.393 374.076 46.0994C374.299 45.8011 374.616 45.536 375.028 45.304C375.444 45.0672 376.008 44.9489 376.718 44.9489C377.637 44.9489 378.446 45.1785 379.147 45.6378C379.848 46.0971 380.395 46.7481 380.788 47.5909C381.181 48.4337 381.377 49.428 381.377 50.5739C381.377 51.7292 381.181 52.7306 380.788 53.5781C380.395 54.4209 379.85 55.0743 379.154 55.5384C378.458 55.9976 377.656 56.2273 376.746 56.2273C376.046 56.2273 375.485 56.1113 375.063 55.8793C374.642 55.6425 374.318 55.375 374.09 55.0767C373.863 54.7737 373.688 54.5227 373.565 54.3239H373.423V60.0909H371.746ZM373.394 50.5455C373.394 51.3693 373.515 52.0961 373.756 52.7259C373.998 53.3509 374.351 53.8409 374.815 54.196C375.279 54.5464 375.847 54.7216 376.519 54.7216C377.22 54.7216 377.805 54.5369 378.273 54.1676C378.747 53.7936 379.102 53.2917 379.339 52.6619C379.58 52.0275 379.701 51.322 379.701 50.5455C379.701 49.7784 379.583 49.0871 379.346 48.4716C379.114 47.8513 378.761 47.3613 378.288 47.0014C377.819 46.6368 377.229 46.4545 376.519 46.4545C375.837 46.4545 375.264 46.6274 374.8 46.973C374.336 47.3139 373.986 47.7921 373.749 48.4077C373.513 49.0185 373.394 49.7311 373.394 50.5455ZM383.934 60.0909V45.0909H385.553V46.8239H385.752C385.875 46.6345 386.046 46.393 386.264 46.0994C386.486 45.8011 386.803 45.536 387.215 45.304C387.632 45.0672 388.195 44.9489 388.906 44.9489C389.824 44.9489 390.634 45.1785 391.335 45.6378C392.035 46.0971 392.582 46.7481 392.975 47.5909C393.368 48.4337 393.565 49.428 393.565 50.5739C393.565 51.7292 393.368 52.7306 392.975 53.5781C392.582 54.4209 392.038 55.0743 391.342 55.5384C390.646 55.9976 389.843 56.2273 388.934 56.2273C388.233 56.2273 387.672 56.1113 387.251 55.8793C386.829 55.6425 386.505 55.375 386.278 55.0767C386.05 54.7737 385.875 54.5227 385.752 54.3239H385.61V60.0909H383.934ZM385.582 50.5455C385.582 51.3693 385.702 52.0961 385.944 52.7259C386.185 53.3509 386.538 53.8409 387.002 54.196C387.466 54.5464 388.034 54.7216 388.707 54.7216C389.407 54.7216 389.992 54.5369 390.461 54.1676C390.934 53.7936 391.29 53.2917 391.526 52.6619C391.768 52.0275 391.889 51.322 391.889 50.5455C391.889 49.7784 391.77 49.0871 391.533 48.4716C391.301 47.8513 390.949 47.3613 390.475 47.0014C390.006 46.6368 389.417 46.4545 388.707 46.4545C388.025 46.4545 387.452 46.6274 386.988 46.973C386.524 47.3139 386.174 47.7921 385.937 48.4077C385.7 49.0185 385.582 49.7311 385.582 50.5455ZM397.798 41.4545V56H396.121V41.4545H397.798ZM405.441 56.2273C404.39 56.2273 403.484 55.9953 402.721 55.5312C401.964 55.0625 401.379 54.4091 400.967 53.571C400.56 52.7282 400.356 51.7481 400.356 50.6307C400.356 49.5133 400.56 48.5284 400.967 47.6761C401.379 46.8191 401.952 46.1515 402.686 45.6733C403.424 45.1903 404.286 44.9489 405.271 44.9489C405.839 44.9489 406.4 45.0436 406.954 45.233C407.508 45.4223 408.012 45.7301 408.467 46.1562C408.922 46.5777 409.284 47.1364 409.554 47.8324C409.824 48.5284 409.958 49.3854 409.958 50.4034V51.1136H401.549V49.6648H408.254C408.254 49.0492 408.131 48.5 407.885 48.017C407.643 47.5341 407.298 47.1529 406.848 46.8736C406.403 46.5942 405.877 46.4545 405.271 46.4545C404.603 46.4545 404.026 46.6203 403.538 46.9517C403.055 47.2784 402.683 47.7045 402.423 48.2301C402.163 48.7557 402.032 49.3191 402.032 49.9205V50.8864C402.032 51.7102 402.174 52.4086 402.458 52.9815C402.747 53.5497 403.147 53.983 403.659 54.2812C404.17 54.5748 404.764 54.7216 405.441 54.7216C405.882 54.7216 406.28 54.66 406.635 54.5369C406.994 54.4091 407.305 54.2197 407.565 53.9688C407.825 53.7131 408.027 53.3958 408.169 53.017L409.788 53.4716C409.618 54.0208 409.331 54.5038 408.929 54.9205C408.526 55.3324 408.029 55.6544 407.437 55.8864C406.845 56.1136 406.18 56.2273 405.441 56.2273ZM426.315 45.0909C426.23 44.3712 425.884 43.8125 425.278 43.4148C424.672 43.017 423.929 42.8182 423.048 42.8182C422.404 42.8182 421.841 42.9223 421.358 43.1307C420.879 43.339 420.505 43.6255 420.235 43.9901C419.97 44.3546 419.838 44.7689 419.838 45.233C419.838 45.6212 419.93 45.955 420.115 46.2344C420.304 46.509 420.546 46.7386 420.839 46.9233C421.133 47.1032 421.441 47.2524 421.762 47.3707C422.084 47.4844 422.38 47.5767 422.65 47.6477L424.128 48.0455C424.506 48.1449 424.928 48.2822 425.392 48.4574C425.86 48.6326 426.308 48.8717 426.734 49.1747C427.165 49.473 427.52 49.8565 427.799 50.3253C428.079 50.794 428.218 51.3693 428.218 52.0511C428.218 52.8371 428.012 53.5473 427.601 54.1818C427.193 54.8163 426.597 55.3205 425.811 55.6946C425.03 56.0687 424.08 56.2557 422.963 56.2557C421.921 56.2557 421.019 56.0876 420.257 55.7514C419.499 55.4152 418.903 54.9465 418.467 54.3452C418.036 53.7438 417.792 53.0455 417.735 52.25H419.554C419.601 52.7992 419.786 53.2538 420.108 53.6136C420.434 53.9687 420.846 54.2339 421.343 54.4091C421.845 54.5795 422.385 54.6648 422.963 54.6648C423.635 54.6648 424.239 54.5559 424.774 54.3381C425.309 54.1155 425.733 53.8078 426.045 53.4148C426.358 53.017 426.514 52.553 426.514 52.0227C426.514 51.5398 426.379 51.1468 426.109 50.8438C425.839 50.5407 425.484 50.2945 425.044 50.1051C424.603 49.9157 424.128 49.75 423.616 49.608L421.826 49.0966C420.69 48.7699 419.79 48.3035 419.128 47.6974C418.465 47.0914 418.133 46.2983 418.133 45.3182C418.133 44.5038 418.353 43.7936 418.794 43.1875C419.239 42.5767 419.835 42.1032 420.583 41.767C421.336 41.4261 422.177 41.2557 423.105 41.2557C424.042 41.2557 424.876 41.4238 425.605 41.7599C426.334 42.0914 426.912 42.5459 427.338 43.1236C427.769 43.7012 427.996 44.357 428.02 45.0909H426.315ZM435.631 45.0909V46.5114H429.978V45.0909H435.631ZM431.626 42.4773H433.302V52.875C433.302 53.3485 433.371 53.7036 433.508 53.9403C433.65 54.1723 433.83 54.3286 434.048 54.4091C434.27 54.4848 434.505 54.5227 434.751 54.5227C434.935 54.5227 435.087 54.5133 435.205 54.4943C435.324 54.4706 435.418 54.4517 435.489 54.4375L435.83 55.9432C435.717 55.9858 435.558 56.0284 435.354 56.071C435.151 56.1184 434.893 56.142 434.58 56.142C434.107 56.142 433.643 56.0402 433.188 55.8366C432.738 55.633 432.364 55.3229 432.066 54.9062C431.773 54.4896 431.626 53.964 431.626 53.3295V42.4773ZM442.467 56.2273C441.483 56.2273 440.618 55.9929 439.875 55.5241C439.136 55.0554 438.559 54.3996 438.142 53.5568C437.73 52.714 437.524 51.7292 437.524 50.6023C437.524 49.4659 437.73 48.474 438.142 47.6264C438.559 46.7789 439.136 46.1207 439.875 45.652C440.618 45.1832 441.483 44.9489 442.467 44.9489C443.452 44.9489 444.314 45.1832 445.053 45.652C445.796 46.1207 446.374 46.7789 446.786 47.6264C447.202 48.474 447.411 49.4659 447.411 50.6023C447.411 51.7292 447.202 52.714 446.786 53.5568C446.374 54.3996 445.796 55.0554 445.053 55.5241C444.314 55.9929 443.452 56.2273 442.467 56.2273ZM442.467 54.7216C443.215 54.7216 443.831 54.5298 444.314 54.1463C444.797 53.7628 445.154 53.2585 445.386 52.6335C445.618 52.0085 445.734 51.3314 445.734 50.6023C445.734 49.8731 445.618 49.1937 445.386 48.5639C445.154 47.9342 444.797 47.4252 444.314 47.0369C443.831 46.6487 443.215 46.4545 442.467 46.4545C441.719 46.4545 441.104 46.6487 440.621 47.0369C440.138 47.4252 439.78 47.9342 439.548 48.5639C439.316 49.1937 439.2 49.8731 439.2 50.6023C439.2 51.3314 439.316 52.0085 439.548 52.6335C439.78 53.2585 440.138 53.7628 440.621 54.1463C441.104 54.5298 441.719 54.7216 442.467 54.7216ZM449.969 56V45.0909H451.588V46.7386H451.702C451.901 46.1989 452.261 45.7609 452.782 45.4247C453.302 45.0885 453.89 44.9205 454.543 44.9205C454.666 44.9205 454.82 44.9228 455.005 44.9276C455.189 44.9323 455.329 44.9394 455.424 44.9489V46.6534C455.367 46.6392 455.237 46.6179 455.033 46.5895C454.834 46.5563 454.624 46.5398 454.401 46.5398C453.871 46.5398 453.397 46.651 452.981 46.8736C452.569 47.0914 452.242 47.3944 452 47.7827C451.764 48.1662 451.645 48.6042 451.645 49.0966V56H449.969ZM461.652 56.2273C460.601 56.2273 459.695 55.9953 458.932 55.5312C458.175 55.0625 457.59 54.4091 457.178 53.571C456.771 52.7282 456.567 51.7481 456.567 50.6307C456.567 49.5133 456.771 48.5284 457.178 47.6761C457.59 46.8191 458.163 46.1515 458.897 45.6733C459.635 45.1903 460.497 44.9489 461.482 44.9489C462.05 44.9489 462.611 45.0436 463.165 45.233C463.719 45.4223 464.223 45.7301 464.678 46.1562C465.133 46.5777 465.495 47.1364 465.765 47.8324C466.034 48.5284 466.169 49.3854 466.169 50.4034V51.1136H457.76V49.6648H464.465C464.465 49.0492 464.342 48.5 464.096 48.017C463.854 47.5341 463.508 47.1529 463.059 46.8736C462.614 46.5942 462.088 46.4545 461.482 46.4545C460.814 46.4545 460.237 46.6203 459.749 46.9517C459.266 47.2784 458.894 47.7045 458.634 48.2301C458.374 48.7557 458.243 49.3191 458.243 49.9205V50.8864C458.243 51.7102 458.385 52.4086 458.669 52.9815C458.958 53.5497 459.358 53.983 459.87 54.2812C460.381 54.5748 460.975 54.7216 461.652 54.7216C462.093 54.7216 462.49 54.66 462.846 54.5369C463.205 54.4091 463.516 54.2197 463.776 53.9688C464.036 53.7131 464.238 53.3958 464.38 53.017L465.999 53.4716C465.829 54.0208 465.542 54.5038 465.14 54.9205C464.737 55.3324 464.24 55.6544 463.648 55.8864C463.056 56.1136 462.391 56.2273 461.652 56.2273Z" fill="white"/>
</svg>
