<svg width="212" height="37" viewBox="0 0 212 37" fill="none" xmlns="http://www.w3.org/2000/svg">
<path d="M14.3055 17.0899C13.5323 17.8708 13.5164 19.1479 14.2777 19.941C15.039 20.734 16.276 20.7503 17.0571 19.9694C17.1126 19.9125 17.1681 19.8474 17.2157 19.7905C17.8898 23.0767 18.1832 23.5159 18.6074 23.5159C18.655 23.5159 18.7065 23.5078 18.762 23.4997C19.3489 23.4143 19.3607 23.4143 19.8207 15.4672C19.8286 15.3045 19.8405 15.1377 19.8484 14.975C19.8564 15.0808 19.8683 15.1906 19.8762 15.2882C20.4352 21.2221 20.4352 21.2221 20.8516 21.3848C21.3868 21.6003 21.6604 21.1041 22.2432 20.0182C22.3979 19.7376 22.6278 19.3024 22.7746 19.0909C23.4565 19.1682 25.324 19.3187 25.8831 18.5744C25.9941 18.4321 26.1408 18.1962 26.2994 17.9237C26.5095 17.5861 26.9457 16.8744 27.2192 16.6019C27.3461 16.7605 27.5047 17.0249 27.6316 17.2323C28.1629 18.1026 28.7616 19.0828 29.5903 19.1031H29.618L33.9398 19.1113H35.3394V19.7457C35.3394 22.3039 33.3173 24.37 30.8313 24.37H23.7697V31.6257C23.7697 34.1758 21.7476 36.25 19.2537 36.25H16.0897C13.6037 36.25 11.5816 34.1758 11.5816 31.6257V24.3741H4.50812C2.02211 24.3741 0 22.308 0 19.7498V16.5043C0 13.9461 2.02211 11.88 4.50812 11.88H11.5816V4.62428C11.5816 2.07422 13.6037 0 16.0897 0H19.2537C21.7476 0 23.7697 2.07422 23.7697 4.62428V11.88H30.8353C33.3213 11.88 35.3434 13.9461 35.3434 16.5043V18.0416H33.9438L29.6458 18.0335C29.6458 18.0335 29.6378 18.0335 29.6299 18.0335C29.3563 18.0335 28.7537 17.0411 28.5237 16.6629C28.2224 16.1748 27.9884 15.7925 27.7149 15.5892C27.5483 15.459 27.3303 15.4183 27.1241 15.459C26.5531 15.5729 26.0654 16.3172 25.4231 17.3543C25.2844 17.5902 25.1575 17.7976 25.0742 17.9033C24.8165 18.123 23.3376 18.1026 22.6992 17.9969C22.1957 17.9196 21.9459 18.367 21.3472 19.4773C21.2203 18.3548 21.0617 16.6547 20.9309 15.1906C20.3599 9.12249 20.3599 9.12249 19.8564 9.02081C19.7057 8.99234 19.5471 9.02895 19.4282 9.12656C19.1506 9.34211 19.1347 9.35431 18.7819 15.4021C18.6827 17.0615 18.5717 19.0747 18.4607 20.5836C18.3497 20.0914 18.2188 19.4814 18.0721 18.7249L18.0523 18.6476C17.9968 18.3629 17.8382 18.1962 17.6043 18.1026C17.5329 17.7447 17.3624 17.4031 17.0888 17.1225C16.3276 16.3253 15.0866 16.3131 14.3055 17.0899Z" fill="url(#paint0_linear_4216_3661)"/>
<path d="M63.9844 7.76551V30.2977H59.0578V21.0216H51.3943V30.2977H46.4678V7.76551H51.3943V16.5922H59.0578V7.76551H63.9844Z" fill="#424242"/>
<path d="M68.0018 21.3105C68.0018 19.4703 68.3091 17.8547 68.9237 16.4638C69.5576 15.073 70.4123 14.0031 71.4878 13.2541C72.5634 12.5052 73.7639 12.1307 75.0891 12.1307C76.2223 12.1307 77.2115 12.3875 78.0566 12.9011C78.9209 13.4146 79.5835 14.0886 80.0445 14.9232V12.3875H84.971V30.2977H80.0445V27.762C79.5643 28.5966 78.8921 29.2706 78.0278 29.7842C77.1827 30.2977 76.1935 30.5545 75.0603 30.5545C73.7543 30.5545 72.5634 30.18 71.4878 29.4311C70.4123 28.6608 69.5576 27.5801 68.9237 26.1893C68.3091 24.777 68.0018 23.1507 68.0018 21.3105ZM80.0445 21.3426C80.0445 19.9731 79.6987 18.8925 79.0073 18.1008C78.3351 17.3091 77.5092 16.9132 76.5296 16.9132C75.5501 16.9132 74.7146 17.3091 74.0231 18.1008C73.3509 18.8711 73.0148 19.941 73.0148 21.3105C73.0148 22.68 73.3509 23.7713 74.0231 24.5844C74.7146 25.3761 75.5501 25.772 76.5296 25.772C77.5092 25.772 78.3351 25.3761 79.0073 24.5844C79.6987 23.7927 80.0445 22.7121 80.0445 21.3426Z" fill="#424242"/>
<path d="M99.7999 30.2977L94.9022 22.787V30.2977H89.9757V6.54582H94.9022V19.6736L99.7711 12.3875H105.85L99.1661 21.3747L105.908 30.2977H99.7999Z" fill="#424242"/>
<path d="M111.703 10.5259C110.839 10.5259 110.128 10.2477 109.571 9.69134C109.034 9.11359 108.765 8.40745 108.765 7.57293C108.765 6.717 109.034 6.01087 109.571 5.45451C110.128 4.87677 110.839 4.58789 111.703 4.58789C112.548 4.58789 113.24 4.87677 113.778 5.45451C114.335 6.01087 114.613 6.717 114.613 7.57293C114.613 8.40745 114.335 9.11359 113.778 9.69134C113.24 10.2477 112.548 10.5259 111.703 10.5259ZM114.152 12.3875V30.2977H109.226V12.3875H114.152Z" fill="#424242"/>
<path d="M139.676 12.1949C141.673 12.1949 143.258 12.869 144.429 14.217C145.62 15.5651 146.216 17.4375 146.216 19.834V30.2977H141.318V20.5723C141.318 19.4168 141.039 18.5288 140.482 17.9082C139.945 17.2663 139.196 16.9453 138.235 16.9453C137.275 16.9453 136.516 17.2663 135.959 17.9082C135.421 18.5288 135.153 19.4168 135.153 20.5723V30.2977H130.255V20.5723C130.255 19.4168 129.976 18.5288 129.419 17.9082C128.882 17.2663 128.132 16.9453 127.172 16.9453C126.212 16.9453 125.453 17.2663 124.896 17.9082C124.358 18.5288 124.089 19.4168 124.089 20.5723V30.2977H119.163V12.3875H124.089V14.6343C124.589 13.8854 125.242 13.2969 126.049 12.869C126.855 12.4196 127.768 12.1949 128.785 12.1949C129.995 12.1949 131.071 12.4838 132.012 13.0615C132.973 13.6393 133.722 14.4631 134.259 15.533C134.816 14.5487 135.575 13.7463 136.535 13.1257C137.496 12.5052 138.543 12.1949 139.676 12.1949Z" fill="#424242"/>
<path d="M169.002 7.87789V30.4101H164.075V21.134H156.412V30.4101H151.485V7.87789H156.412V16.7046H164.075V7.87789H169.002Z" fill="#68A4F4"/>
<path d="M189.873 12.4999V30.4101H184.947V27.9707C184.447 28.7624 183.766 29.4044 182.901 29.8965C182.056 30.3673 181.115 30.6027 180.078 30.6027C178.849 30.6027 177.763 30.3031 176.822 29.704C175.881 29.0834 175.151 28.1954 174.633 27.0399C174.114 25.8844 173.855 24.5256 173.855 22.9636V12.4999H178.753V22.2253C178.753 23.4236 179.031 24.3544 179.588 25.0178C180.145 25.6811 180.894 26.0128 181.835 26.0128C182.796 26.0128 183.554 25.6811 184.111 25.0178C184.668 24.3544 184.947 23.4236 184.947 22.2253V12.4999H189.873Z" fill="#68A4F4"/>
<path d="M199.779 15.0356C200.24 14.201 200.903 13.527 201.767 13.0134C202.631 12.4999 203.62 12.2431 204.734 12.2431C206.06 12.2431 207.26 12.6176 208.336 13.3665C209.411 14.1154 210.256 15.1853 210.871 16.5762C211.505 17.9671 211.822 19.5827 211.822 21.4229C211.822 23.2631 211.505 24.8894 210.871 26.3017C210.256 27.6925 209.411 28.7731 208.336 29.5435C207.26 30.2924 206.06 30.6669 204.734 30.6669C203.601 30.6669 202.612 30.4208 201.767 29.9286C200.922 29.4151 200.259 28.741 199.779 27.9065V30.4101H194.853V6.6582H199.779V15.0356ZM206.809 21.4229C206.809 20.0534 206.463 18.9835 205.772 18.2132C205.099 17.4214 204.264 17.0256 203.265 17.0256C202.286 17.0256 201.45 17.4214 200.759 18.2132C200.086 19.0049 199.75 20.0855 199.75 21.455C199.75 22.8245 200.086 23.9051 200.759 24.6968C201.45 25.4885 202.286 25.8844 203.265 25.8844C204.245 25.8844 205.08 25.4885 205.772 24.6968C206.463 23.8837 206.809 22.7924 206.809 21.4229Z" fill="#68A4F4"/>
<defs>
<linearGradient id="paint0_linear_4216_3661" x1="2.86871" y1="24.931" x2="35.3925" y2="10.7249" gradientUnits="userSpaceOnUse">
<stop offset="4.1024e-07" stop-color="#68A4F4" stop-opacity="0.88"/>
<stop offset="0.0934" stop-color="#68A4F4" stop-opacity="0.92"/>
<stop offset="0.6815" stop-color="#68A4F4" stop-opacity="0.93"/>
<stop offset="1" stop-color="#68A4F4"/>
</linearGradient>
</defs>
</svg>
